<?xml version="1.0" encoding="utf-8"?>
<!-- Generator: Adobe Illustrator 28.0.0, SVG Export Plug-In . SVG Version: 6.00 Build 0)  -->
<svg version="1.1" xmlns="http://www.w3.org/2000/svg" xmlns:xlink="http://www.w3.org/1999/xlink" x="0px" y="0px"
	 viewBox="0 0 429.5 429.5" style="enable-background:new 0 0 429.5 429.5;" xml:space="preserve">
<style type="text/css">
	.st0{clip-path:url(#SVGID_00000039098668650911479720000001504206846283439510_);}
	
		.st1{clip-path:url(#SVGID_00000061442386869025063590000005130931767174334619_);fill:#FFFFFF;stroke:#FFFFFF;stroke-width:10;stroke-linecap:round;stroke-linejoin:round;stroke-miterlimit:10;}
	
		.st2{clip-path:url(#SVGID_00000063595629585263734030000013323194905246050475_);fill:#FFFFFF;stroke:#FFFFFF;stroke-width:10;stroke-linecap:round;stroke-linejoin:round;stroke-miterlimit:10;}
	.st3{clip-path:url(#SVGID_00000170265013324731806780000003334000811244900738_);}
	
		.st4{clip-path:url(#SVGID_00000082326594570320604960000010902063127098385576_);fill:#FFFFFF;stroke:#FFFFFF;stroke-width:10;stroke-linecap:round;stroke-linejoin:round;stroke-miterlimit:10;}
	
		.st5{clip-path:url(#SVGID_00000183246369776430949330000003507002490326559884_);fill:#FFFFFF;stroke:#FFFFFF;stroke-width:10;stroke-linecap:round;stroke-linejoin:round;stroke-miterlimit:10;}
	.st6{fill:#FFFFFF;stroke:#FFFFFF;stroke-width:3;stroke-miterlimit:10;}
	.st7{fill:#FFFFFF;stroke:#FFFFFF;stroke-width:10;stroke-linecap:round;stroke-linejoin:round;stroke-miterlimit:10;}
	.st8{fill:#FFFFFF;stroke:#FFFFFF;stroke-width:10;stroke-miterlimit:10;}
	.st9{fill:#FFFFFF;stroke:#FFFFFF;stroke-miterlimit:10;}
	.st10{fill:#FFFFFF;stroke:#FFFFFF;stroke-width:11;stroke-miterlimit:10;}
	.st11{fill:#FFFFFF;stroke:#FFFFFF;stroke-width:11;stroke-linecap:round;stroke-linejoin:round;stroke-miterlimit:10;}
	.st12{fill:none;stroke:#FFFFFF;stroke-width:13;stroke-miterlimit:10;}
	.st13{fill:none;stroke:#FFFFFF;stroke-width:10;stroke-miterlimit:10;}
	.st14{fill:none;stroke:#FFFFFF;stroke-width:20;stroke-miterlimit:10;}
	.st15{fill:none;stroke:#FFFFFF;stroke-width:9;stroke-miterlimit:10;}
	.st16{fill:none;stroke:#FFFFFF;stroke-width:33;stroke-miterlimit:10;}
</style>
<g id="Calque_1">
</g>
<g id="Calque_2">
	<g>
		<g id="_x3C_Répétition_miroir_x3E__00000033367335996074307350000014548827665449971623_">
			<g>
				<defs>
					<polygon id="SVGID_1_" points="957,66 957,66 1272.9,66 1272.9,205.3 957,205.3 					"/>
				</defs>
				<clipPath id="SVGID_00000100357483174751800000000014762073185298157968_">
					<use xlink:href="#SVGID_1_"  style="overflow:visible;"/>
				</clipPath>
				<g style="clip-path:url(#SVGID_00000100357483174751800000000014762073185298157968_);">
					<g id="_x3C_Répétition_miroir_x3E__00000057847442478934398700000013908657102371603388_">
						<g>
							<defs>
								<rect id="SVGID_00000031207393568525304630000008866987284434230666_" x="1133.7" y="66" width="139.3" height="139.3"/>
							</defs>
							<clipPath id="SVGID_00000044874724521680303190000017503658782784048811_">
								<use xlink:href="#SVGID_00000031207393568525304630000008866987284434230666_"  style="overflow:visible;"/>
							</clipPath>
							
								<line style="clip-path:url(#SVGID_00000044874724521680303190000017503658782784048811_);fill:#FFFFFF;stroke:#FFFFFF;stroke-width:10;stroke-linecap:round;stroke-linejoin:round;stroke-miterlimit:10;" x1="1138.7" y1="200.3" x2="1267.9" y2="71"/>
						</g>
					</g>
					<g id="_x3C_Répétition_miroir_x3E__00000092422622513411333410000005104146269611492235_">
						<g>
							<defs>
								<rect id="SVGID_00000145043242086185909440000001814113965029891227_" x="957" y="66" width="139.3" height="139.3"/>
							</defs>
							<clipPath id="SVGID_00000104677967347389877860000008995056831214355108_">
								<use xlink:href="#SVGID_00000145043242086185909440000001814113965029891227_"  style="overflow:visible;"/>
							</clipPath>
							
								<line style="clip-path:url(#SVGID_00000104677967347389877860000008995056831214355108_);fill:#FFFFFF;stroke:#FFFFFF;stroke-width:10;stroke-linecap:round;stroke-linejoin:round;stroke-miterlimit:10;" x1="1091.3" y1="200.3" x2="962" y2="71"/>
						</g>
					</g>
				</g>
			</g>
		</g>
		<g id="_x3C_Répétition_miroir_x3E__00000025406468462264612080000002175695189132670378_">
			<g>
				<defs>
					<polygon id="SVGID_00000164473818465049716800000008942986577580085177_" points="953.7,381.1 953.7,381.1 1269.6,387.7 
						1272.5,248.5 956.6,241.9 					"/>
				</defs>
				<clipPath id="SVGID_00000000924591994972546280000009796938503287256450_">
					<use xlink:href="#SVGID_00000164473818465049716800000008942986577580085177_"  style="overflow:visible;"/>
				</clipPath>
				<g style="clip-path:url(#SVGID_00000000924591994972546280000009796938503287256450_);">
					<g id="_x3C_Répétition_miroir_x3E__00000141436949960425104140000015483571401350200509_">
						<g>
							<defs>
								
									<rect id="SVGID_00000137118810343021048260000001355265478186428036_" x="1131.8" y="247" transform="matrix(2.079125e-02 -0.9998 0.9998 2.079125e-02 859.8591 1511.2294)" width="139.3" height="139.3"/>
							</defs>
							<clipPath id="SVGID_00000141443816112460240250000002002926599513951655_">
								<use xlink:href="#SVGID_00000137118810343021048260000001355265478186428036_"  style="overflow:visible;"/>
							</clipPath>
							
								<line style="clip-path:url(#SVGID_00000141443816112460240250000002002926599513951655_);fill:#FFFFFF;stroke:#FFFFFF;stroke-width:10;stroke-linecap:round;stroke-linejoin:round;stroke-miterlimit:10;" x1="1138.2" y1="250.7" x2="1264.7" y2="382.6"/>
						</g>
					</g>
					<g id="_x3C_Répétition_miroir_x3E__00000115480285343843925500000016734445772951835810_">
						<g>
							<defs>
								
									<rect id="SVGID_00000179615887533071041580000017115464214271692441_" x="955.2" y="243.4" transform="matrix(2.079125e-02 -0.9998 0.9998 2.079125e-02 690.5633 1331.0295)" width="139.3" height="139.3"/>
							</defs>
							<clipPath id="SVGID_00000163775321066037377840000016390931522162295194_">
								<use xlink:href="#SVGID_00000179615887533071041580000017115464214271692441_"  style="overflow:visible;"/>
							</clipPath>
							
								<line style="clip-path:url(#SVGID_00000163775321066037377840000016390931522162295194_);fill:#FFFFFF;stroke:#FFFFFF;stroke-width:10;stroke-linecap:round;stroke-linejoin:round;stroke-miterlimit:10;" x1="1090.7" y1="249.7" x2="958.8" y2="376.2"/>
						</g>
					</g>
				</g>
			</g>
		</g>
	</g>
	<g>
		<g>
			<g>
				<circle class="st6" cx="-2479.1" cy="314.2" r="52.3"/>
			</g>
			<g>
				<circle class="st6" cx="-2581.5" cy="217.4" r="52.3"/>
			</g>
			<g>
				<circle class="st6" cx="-2484.7" cy="115" r="52.3"/>
			</g>
			<g>
				<circle class="st6" cx="-2382.3" cy="211.8" r="52.3"/>
			</g>
		</g>
	</g>
	<g>
		<line class="st7" x1="1368.1" y1="233.8" x2="1759.1" y2="233.8"/>
		<line class="st7" x1="1563.6" y1="303.8" x2="1563.6" y2="163.8"/>
		<path class="st8" d="M1563.6,286.8L1563.6,286.8c0-29.3-23.7-53-53-53v0c29.3,0,53-23.7,53-53h0c0,29.3,23.7,53,53,53v0
			C1587.3,233.8,1563.6,257.6,1563.6,286.8z"/>
	</g>
	<g>
		<path class="st9" d="M1820.9,256.7c-12.6-52.6,228.7-80.4,228.4-79.6c0,0-157,24-152.3,65.1c8.1,71.4,282.7,51,282.7,51
			S1836.6,322.1,1820.9,256.7z"/>
		<path class="st9" d="M2204.6,196.3c12.7,52.6-228.6,80.6-228.4,79.7c0,0,156.9-24.1,152.2-65.2c-8.1-71.4-282.7-50.7-282.7-50.7
			S2188.9,130.9,2204.6,196.3z"/>
		<path class="st6" d="M1845.8,160"/>
	</g>
	<g>
		<circle class="st10" cx="664.6" cy="225.4" r="33.6"/>
		<line class="st11" x1="744.5" y1="306.1" x2="584.3" y2="145.9"/>
		<line class="st11" x1="585.5" y1="304.5" x2="747.7" y2="146.2"/>
		<line class="st11" x1="492.5" y1="225.4" x2="836.7" y2="225.4"/>
		<line class="st11" x1="664.6" y1="45.3" x2="664.6" y2="409.3"/>
	</g>
	<path class="st9" d="M-3381.1,35.8L-3381.1,35.8c0,99-80.3,179.2-179.2,179.2v0c99,0,179.2,80.3,179.2,179.2h0
		c0-99,80.3-179.2,179.2-179.2v0C-3300.9,215.1-3381.1,134.8-3381.1,35.8z"/>
	<path class="st9" d="M-2898,159c2.7,1.1,47-79.3-117.5-111.7c0,0,235.1-2.9,141,202.8c0,0,61.7,50,108.7-102.8
		c0,0-8.8,214.5-196.9,126.4c0,0-58.8,73.5,117.5,108.7c0,0-232.1,5.9-144-199.8c0,0-76.4-61.7-108.7,126.4
		C-3097.8,308.9-3112.5,73.8-2898,159z"/>
	<g>
		<circle class="st12" cx="-684.4" cy="217.8" r="87.6"/>
		<ellipse class="st12" cx="-685.6" cy="217.8" rx="144.8" ry="87.6"/>
		<ellipse class="st12" cx="-684.4" cy="217.8" rx="182.5" ry="87.6"/>
	</g>
	<g>
		<g>
			<circle class="st13" cx="-234.4" cy="217.8" r="88.1"/>
			<ellipse class="st13" cx="-235.6" cy="217.8" rx="145.6" ry="88.1"/>
			<ellipse class="st13" cx="-234.4" cy="217.8" rx="183.5" ry="88.1"/>
		</g>
		<line class="st13" x1="-234.4" y1="129.8" x2="-234.4" y2="305.9"/>
		<line class="st13" x1="-417.9" y1="217.8" x2="-50.9" y2="217.8"/>
	</g>
	<g>
		<g>
			
				<ellipse transform="matrix(0.8449 -0.5348 0.5348 0.8449 -363.4765 -812.8087)" class="st12" cx="-1583.6" cy="220.5" rx="178.1" ry="64.6"/>
		</g>
		<g>
			
				<ellipse transform="matrix(0.9992 -4.071705e-02 4.071705e-02 0.9992 -10.0614 -64.3578)" class="st12" cx="-1585" cy="214.8" rx="64.6" ry="178.1"/>
		</g>
		<g>
			
				<ellipse transform="matrix(0.4643 -0.8857 0.8857 0.4643 -1037.774 -1282.8486)" class="st12" cx="-1579.4" cy="216.5" rx="64.6" ry="178.1"/>
		</g>
	</g>
	<g>
		<g>
			
				<ellipse transform="matrix(0.8449 -0.5348 0.5348 0.8449 -432.2516 -1060.2745)" class="st14" cx="-2044.8" cy="215.4" rx="61" ry="168.3"/>
		</g>
		<g>
			
				<ellipse transform="matrix(0.8449 -0.5348 0.5348 0.8449 -434.014 -1062.0581)" class="st14" cx="-2048.8" cy="217.5" rx="168.3" ry="61"/>
		</g>
	</g>
	<g>
		<g id="_x3C_Répétition_radiale_x3E__00000121240889882035710790000008300304575971596974_">
			
				<ellipse transform="matrix(0.8449 -0.5348 0.5348 0.8449 -293.9348 -572.7421)" class="st15" cx="-1134.8" cy="220.6" rx="171.4" ry="62.1"/>
		</g>
		<g id="_x3C_Répétition_radiale_x3E__00000131365975782240818570000011612738050436874912_">
			
				<ellipse transform="matrix(0.6383 -0.7698 0.7698 0.6383 -578.7548 -796.6359)" class="st15" cx="-1137.1" cy="217.6" rx="62.1" ry="171.4"/>
		</g>
		<g id="_x3C_Répétition_radiale_x3E__00000130629761761055641240000003308723640861677744_">
			
				<ellipse transform="matrix(0.3692 -0.9293 0.9293 0.3692 -915.2077 -919.5176)" class="st15" cx="-1135" cy="214.4" rx="171.4" ry="62.1"/>
		</g>
		<g id="_x3C_Répétition_radiale_x3E__00000041995400588401256200000013151061058015107467_">
			
				<ellipse transform="matrix(6.394781e-02 -0.998 0.998 6.394781e-02 -1274.0294 -927.2668)" class="st15" cx="-1131.3" cy="215.5" rx="62.1" ry="171.4"/>
		</g>
		<g id="_x3C_Répétition_radiale_x3E__00000134214660848159670340000015358752131988398738_">
			
				<ellipse transform="matrix(0.9689 -0.2476 0.2476 0.9689 -89.5094 -273.222)" class="st15" cx="-1131.2" cy="219.3" rx="62.1" ry="171.4"/>
		</g>
	</g>
	<g>
		<circle class="st16" cx="213.3" cy="214.4" r="120.8"/>
		<ellipse class="st16" cx="215.1" cy="216.2" rx="194" ry="25.6"/>
	</g>
</g>
</svg>
