<?xml version="1.0" encoding="utf-8"?>
<!-- Generator: Adobe Illustrator 28.0.0, SVG Export Plug-In . SVG Version: 6.00 Build 0)  -->
<svg version="1.1" xmlns="http://www.w3.org/2000/svg" xmlns:xlink="http://www.w3.org/1999/xlink" x="0px" y="0px"
	 viewBox="0 0 429.5 429.5" style="enable-background:new 0 0 429.5 429.5;" xml:space="preserve">
<style type="text/css">
	.st0{clip-path:url(#SVGID_00000173124756229904967230000005800293022782815109_);}
	
		.st1{clip-path:url(#SVGID_00000172398392516710939520000017115662107328746904_);fill:#FFFFFF;stroke:#FFFFFF;stroke-width:13;stroke-linecap:round;stroke-linejoin:round;stroke-miterlimit:10;}
	
		.st2{clip-path:url(#SVGID_00000158719639425319235520000015627113139228660118_);fill:#FFFFFF;stroke:#FFFFFF;stroke-width:13;stroke-linecap:round;stroke-linejoin:round;stroke-miterlimit:10;}
	.st3{clip-path:url(#SVGID_00000179614800267878766820000001259289367038388885_);}
	
		.st4{clip-path:url(#SVGID_00000083055227241769388540000014628042046940790945_);fill:#FFFFFF;stroke:#FFFFFF;stroke-width:13;stroke-linecap:round;stroke-linejoin:round;stroke-miterlimit:10;}
	
		.st5{clip-path:url(#SVGID_00000116935327603534951800000002391795098573501085_);fill:#FFFFFF;stroke:#FFFFFF;stroke-width:13;stroke-linecap:round;stroke-linejoin:round;stroke-miterlimit:10;}
	.st6{fill:#FFFFFF;stroke:#FFFFFF;stroke-width:3;stroke-miterlimit:10;}
	.st7{fill:#FFFFFF;stroke:#FFFFFF;stroke-width:13;stroke-linecap:round;stroke-linejoin:round;stroke-miterlimit:10;}
	.st8{fill:#FFFFFF;stroke:#FFFFFF;stroke-width:13;stroke-miterlimit:10;}
	.st9{fill:#FFFFFF;stroke:#FFFFFF;stroke-miterlimit:10;}
	.st10{fill:none;stroke:#FFFFFF;stroke-width:13;stroke-miterlimit:10;}
	.st11{fill:none;stroke:#FFFFFF;stroke-width:9;stroke-miterlimit:10;}
</style>
<g id="Calque_1">
</g>
<g id="Calque_2">
	<g>
		<g id="_x3C_Répétition_miroir_x3E__00000124869660582524431470000001462777452211004578_">
			<g>
				<defs>
					<polygon id="SVGID_1_" points="2304,64.5 2304,64.5 2622.9,64.5 2622.9,206.8 2304,206.8 					"/>
				</defs>
				<clipPath id="SVGID_00000085936632447263386690000012954395434802866840_">
					<use xlink:href="#SVGID_1_"  style="overflow:visible;"/>
				</clipPath>
				<g style="clip-path:url(#SVGID_00000085936632447263386690000012954395434802866840_);">
					<g id="_x3C_Répétition_miroir_x3E__00000162329158703157905780000003892272765998187711_">
						<g>
							<defs>
								<rect id="SVGID_00000176751344157198946830000008241449391284812991_" x="2480.7" y="64.5" width="142.3" height="142.3"/>
							</defs>
							<clipPath id="SVGID_00000157995607209500215640000007861366071864946573_">
								<use xlink:href="#SVGID_00000176751344157198946830000008241449391284812991_"  style="overflow:visible;"/>
							</clipPath>
							
								<line style="clip-path:url(#SVGID_00000157995607209500215640000007861366071864946573_);fill:#FFFFFF;stroke:#FFFFFF;stroke-width:13;stroke-linecap:round;stroke-linejoin:round;stroke-miterlimit:10;" x1="2487.2" y1="200.3" x2="2616.4" y2="71"/>
						</g>
					</g>
					<g id="_x3C_Répétition_miroir_x3E__00000139987315607223108190000008931568517600844707_">
						<g>
							<defs>
								<rect id="SVGID_00000122708582376085692300000010991394842286092433_" x="2304" y="64.5" width="142.3" height="142.3"/>
							</defs>
							<clipPath id="SVGID_00000093880631089458176940000016723342886569792132_">
								<use xlink:href="#SVGID_00000122708582376085692300000010991394842286092433_"  style="overflow:visible;"/>
							</clipPath>
							
								<line style="clip-path:url(#SVGID_00000093880631089458176940000016723342886569792132_);fill:#FFFFFF;stroke:#FFFFFF;stroke-width:13;stroke-linecap:round;stroke-linejoin:round;stroke-miterlimit:10;" x1="2439.8" y1="200.3" x2="2310.5" y2="71"/>
						</g>
					</g>
				</g>
			</g>
		</g>
		<g id="_x3C_Répétition_miroir_x3E__00000157266386946301920420000005882367563300322702_">
			<g>
				<defs>
					<polygon id="SVGID_00000033360188685046359040000008396352454597387147_" points="2300.7,382.6 2300.7,382.6 2619.6,389.2 
						2622.5,247 2303.7,240.4 					"/>
				</defs>
				<clipPath id="SVGID_00000100374274159610074960000017623724694597409975_">
					<use xlink:href="#SVGID_00000033360188685046359040000008396352454597387147_"  style="overflow:visible;"/>
				</clipPath>
				<g style="clip-path:url(#SVGID_00000100374274159610074960000017623724694597409975_);">
					<g id="_x3C_Répétition_miroir_x3E__00000059295837772399543480000007158686175887486626_">
						<g>
							<defs>
								
									<rect id="SVGID_00000163046273510745337860000013616062244144505755_" x="2478.8" y="245.5" transform="matrix(2.079125e-02 -0.9998 0.9998 2.079125e-02 2180.3271 2859.4431)" width="142.3" height="142.3"/>
							</defs>
							<clipPath id="SVGID_00000110428743871736891340000008493851534434266522_">
								<use xlink:href="#SVGID_00000163046273510745337860000013616062244144505755_"  style="overflow:visible;"/>
							</clipPath>
							
								<line style="clip-path:url(#SVGID_00000110428743871736891340000008493851534434266522_);fill:#FFFFFF;stroke:#FFFFFF;stroke-width:13;stroke-linecap:round;stroke-linejoin:round;stroke-miterlimit:10;" x1="2486.7" y1="250.7" x2="2613.2" y2="382.6"/>
						</g>
					</g>
					<g id="_x3C_Répétition_miroir_x3E__00000115511501564201973250000009706613401627232898_">
						<g>
							<defs>
								
									<rect id="SVGID_00000106126203501480125650000005724747291720569513_" x="2302.2" y="241.9" transform="matrix(2.079125e-02 -0.9998 0.9998 2.079125e-02 2011.0314 2679.2432)" width="142.3" height="142.3"/>
							</defs>
							<clipPath id="SVGID_00000004523288001905584480000014511427437055895198_">
								<use xlink:href="#SVGID_00000106126203501480125650000005724747291720569513_"  style="overflow:visible;"/>
							</clipPath>
							
								<line style="clip-path:url(#SVGID_00000004523288001905584480000014511427437055895198_);fill:#FFFFFF;stroke:#FFFFFF;stroke-width:13;stroke-linecap:round;stroke-linejoin:round;stroke-miterlimit:10;" x1="2439.2" y1="249.7" x2="2307.3" y2="376.2"/>
						</g>
					</g>
				</g>
			</g>
		</g>
	</g>
	<g>
		<g>
			<g>
				<circle class="st6" cx="-1130.6" cy="314.2" r="52.3"/>
			</g>
			<g>
				<circle class="st6" cx="-1233" cy="217.4" r="52.3"/>
			</g>
			<g>
				<circle class="st6" cx="-1136.2" cy="115" r="52.3"/>
			</g>
			<g>
				<circle class="st6" cx="-1033.8" cy="211.8" r="52.3"/>
			</g>
		</g>
	</g>
	<g>
		<line class="st7" x1="2716.6" y1="233.8" x2="3107.6" y2="233.8"/>
		<line class="st7" x1="2912.1" y1="303.8" x2="2912.1" y2="163.8"/>
		<path class="st8" d="M2912.1,286.8L2912.1,286.8c0-29.3-23.7-53-53-53v0c29.3,0,53-23.7,53-53l0,0c0,29.3,23.7,53,53,53v0
			C2935.9,233.8,2912.1,257.6,2912.1,286.8z"/>
	</g>
	<g>
		<path class="st9" d="M3169.4,256.7c-12.6-52.6,228.7-80.4,228.4-79.6c0,0-157,24-152.3,65.1c8.1,71.4,282.7,51,282.7,51
			S3185.1,322.1,3169.4,256.7z"/>
		<path class="st9" d="M3553.1,196.3c12.7,52.6-228.6,80.6-228.4,79.7c0,0,156.9-24.1,152.2-65.2c-8.1-71.4-282.7-50.7-282.7-50.7
			S3537.4,130.9,3553.1,196.3z"/>
		<path class="st6" d="M3194.3,160"/>
	</g>
	<g>
		<circle class="st8" cx="2013.1" cy="225.4" r="33.6"/>
		<line class="st7" x1="2093.1" y1="306.1" x2="1932.8" y2="145.9"/>
		<line class="st7" x1="1934" y1="304.5" x2="2096.2" y2="146.2"/>
		<line class="st7" x1="1841" y1="225.4" x2="2185.2" y2="225.4"/>
		<line class="st7" x1="2013.1" y1="45.3" x2="2013.1" y2="409.3"/>
	</g>
	<path class="st9" d="M-2032.6,35.8L-2032.6,35.8c0,99-80.3,179.2-179.3,179.2v0c99,0,179.2,80.3,179.2,179.2h0
		c0-99,80.3-179.2,179.2-179.2v0C-1952.4,215.1-2032.6,134.8-2032.6,35.8z"/>
	<path class="st9" d="M-1549.5,159c2.7,1.1,47-79.3-117.5-111.7c0,0,235.1-2.9,141,202.8c0,0,61.7,50,108.7-102.8
		c0,0-8.8,214.5-196.9,126.4c0,0-58.8,73.5,117.5,108.7c0,0-232.1,5.9-144-199.8c0,0-76.4-61.7-108.7,126.4
		C-1749.3,308.9-1764,73.8-1549.5,159z"/>
	<g>
		<circle class="st10" cx="664.1" cy="217.8" r="87.6"/>
		<ellipse class="st10" cx="662.9" cy="217.8" rx="144.8" ry="87.6"/>
		<ellipse class="st10" cx="664.1" cy="217.8" rx="182.5" ry="87.6"/>
	</g>
	<g>
		<g>
			<circle class="st10" cx="1114.1" cy="217.8" r="88.1"/>
			<ellipse class="st10" cx="1112.9" cy="217.8" rx="145.6" ry="88.1"/>
			<ellipse class="st10" cx="1114.1" cy="217.8" rx="183.5" ry="88.1"/>
		</g>
		<line class="st10" x1="1114.1" y1="129.8" x2="1114.1" y2="305.9"/>
		<line class="st10" x1="930.6" y1="217.8" x2="1297.6" y2="217.8"/>
	</g>
	<g>
		<g>
			
				<ellipse transform="matrix(0.8449 -0.5348 0.5348 0.8449 -154.389 -91.5642)" class="st10" cx="-235.1" cy="220.5" rx="178.1" ry="64.6"/>
		</g>
		<g>
			
				<ellipse transform="matrix(0.9992 -4.071705e-02 4.071705e-02 0.9992 -8.9432 -9.4507)" class="st10" cx="-236.5" cy="214.8" rx="64.6" ry="178.1"/>
		</g>
		<g>
			
				<ellipse transform="matrix(0.4643 -0.8857 0.8857 0.4643 -315.4113 -88.5238)" class="st10" cx="-230.9" cy="216.5" rx="64.6" ry="178.1"/>
		</g>
	</g>
	<g>
		<g>
			
				<ellipse transform="matrix(0.8449 -0.5348 0.5348 0.8449 -223.1641 -339.0302)" class="st10" cx="-696.3" cy="215.4" rx="61" ry="168.3"/>
		</g>
		<g>
			
				<ellipse transform="matrix(0.8449 -0.5348 0.5348 0.8449 -224.9266 -340.8136)" class="st10" cx="-700.3" cy="217.5" rx="168.3" ry="61"/>
		</g>
	</g>
	<g>
		<g id="_x3C_Répétition_radiale_x3E__00000052803230917781265900000001380807482455457922_">
			
				<ellipse transform="matrix(0.8449 -0.5348 0.5348 0.8449 -84.8473 148.5024)" class="st11" cx="213.7" cy="220.6" rx="171.4" ry="62.1"/>
		</g>
		<g id="_x3C_Répétition_radiale_x3E__00000104695908211853146770000005344631192957995703_">
			
				<ellipse transform="matrix(0.6383 -0.7698 0.7698 0.6383 -91.0234 241.4077)" class="st11" cx="211.4" cy="217.6" rx="62.1" ry="171.4"/>
		</g>
		<g id="_x3C_Répétition_radiale_x3E__00000103225810938883286640000015669265204586576829_">
			
				<ellipse transform="matrix(0.3692 -0.9293 0.9293 0.3692 -64.574 333.7144)" class="st11" cx="213.5" cy="214.4" rx="171.4" ry="62.1"/>
		</g>
		<g id="_x3C_Répétition_radiale_x3E__00000180363789504662391630000007200662047375857341_">
			
				<ellipse transform="matrix(6.394781e-02 -0.998 0.998 6.394781e-02 -11.7581 418.4783)" class="st11" cx="217.2" cy="215.5" rx="62.1" ry="171.4"/>
		</g>
		<g id="_x3C_Répétition_radiale_x3E__00000091697680591759366010000015808885702671448455_">
			
				<ellipse transform="matrix(0.9689 -0.2476 0.2476 0.9689 -47.5316 60.6228)" class="st11" cx="217.3" cy="219.3" rx="62.1" ry="171.4"/>
		</g>
	</g>
	<g>
		<circle class="st10" cx="1561.8" cy="214.4" r="120.8"/>
		<ellipse class="st10" cx="1563.6" cy="216.2" rx="194" ry="25.6"/>
	</g>
</g>
</svg>
