<?xml version="1.0" encoding="utf-8"?>
<!-- Generator: Adobe Illustrator 28.0.0, SVG Export Plug-In . SVG Version: 6.00 Build 0)  -->
<svg version="1.1" xmlns="http://www.w3.org/2000/svg" xmlns:xlink="http://www.w3.org/1999/xlink" x="0px" y="0px"
	 viewBox="0 0 429.5 429.5" style="enable-background:new 0 0 429.5 429.5;" xml:space="preserve">
<style type="text/css">
	.st0{clip-path:url(#SVGID_00000082347442878606019010000015621451000066077860_);}
	
		.st1{clip-path:url(#SVGID_00000093177789955183304560000009132235122233027217_);fill:#FFFFFF;stroke:#FFFFFF;stroke-width:13;stroke-linecap:round;stroke-linejoin:round;stroke-miterlimit:10;}
	
		.st2{clip-path:url(#SVGID_00000015350830124733673690000012654100318782636689_);fill:#FFFFFF;stroke:#FFFFFF;stroke-width:13;stroke-linecap:round;stroke-linejoin:round;stroke-miterlimit:10;}
	.st3{clip-path:url(#SVGID_00000009586557072494628600000001346784908858666399_);}
	
		.st4{clip-path:url(#SVGID_00000031926476347619450930000002012140445682384777_);fill:#FFFFFF;stroke:#FFFFFF;stroke-width:13;stroke-linecap:round;stroke-linejoin:round;stroke-miterlimit:10;}
	
		.st5{clip-path:url(#SVGID_00000067194220310272118910000001749189204485297832_);fill:#FFFFFF;stroke:#FFFFFF;stroke-width:13;stroke-linecap:round;stroke-linejoin:round;stroke-miterlimit:10;}
	.st6{fill:#FFFFFF;stroke:#FFFFFF;stroke-width:3;stroke-miterlimit:10;}
	.st7{fill:#FFFFFF;stroke:#FFFFFF;stroke-width:13;stroke-linecap:round;stroke-linejoin:round;stroke-miterlimit:10;}
	.st8{fill:#FFFFFF;stroke:#FFFFFF;stroke-width:13;stroke-miterlimit:10;}
	.st9{fill:#FFFFFF;stroke:#FFFFFF;stroke-miterlimit:10;}
	.st10{fill:none;stroke:#FFFFFF;stroke-width:13;stroke-miterlimit:10;}
</style>
<g id="Calque_1">
</g>
<g id="Calque_2">
	<g>
		<g id="_x3C_Répétition_miroir_x3E__00000103974324111275044480000000329321855508978329_">
			<g>
				<defs>
					<polygon id="SVGID_1_" points="4551.5,64.5 4551.5,64.5 4870.4,64.5 4870.4,206.8 4551.5,206.8 					"/>
				</defs>
				<clipPath id="SVGID_00000028318608656530691800000000775114690809371313_">
					<use xlink:href="#SVGID_1_"  style="overflow:visible;"/>
				</clipPath>
				<g style="clip-path:url(#SVGID_00000028318608656530691800000000775114690809371313_);">
					<g id="_x3C_Répétition_miroir_x3E__00000014618229557081995600000016541090813359423377_">
						<g>
							<defs>
								<rect id="SVGID_00000005972144909479445790000015649075262933710766_" x="4728.2" y="64.5" width="142.3" height="142.3"/>
							</defs>
							<clipPath id="SVGID_00000080894406733305434660000009373391741541627061_">
								<use xlink:href="#SVGID_00000005972144909479445790000015649075262933710766_"  style="overflow:visible;"/>
							</clipPath>
							
								<line style="clip-path:url(#SVGID_00000080894406733305434660000009373391741541627061_);fill:#FFFFFF;stroke:#FFFFFF;stroke-width:13;stroke-linecap:round;stroke-linejoin:round;stroke-miterlimit:10;" x1="4734.7" y1="200.3" x2="4863.9" y2="71"/>
						</g>
					</g>
					<g id="_x3C_Répétition_miroir_x3E__00000086668873693101640700000005077440802541962925_">
						<g>
							<defs>
								<rect id="SVGID_00000058573530626499550100000011302082616580867247_" x="4551.5" y="64.5" width="142.3" height="142.3"/>
							</defs>
							<clipPath id="SVGID_00000109029106439442075390000008546084644600340394_">
								<use xlink:href="#SVGID_00000058573530626499550100000011302082616580867247_"  style="overflow:visible;"/>
							</clipPath>
							
								<line style="clip-path:url(#SVGID_00000109029106439442075390000008546084644600340394_);fill:#FFFFFF;stroke:#FFFFFF;stroke-width:13;stroke-linecap:round;stroke-linejoin:round;stroke-miterlimit:10;" x1="4687.3" y1="200.3" x2="4558" y2="71"/>
						</g>
					</g>
				</g>
			</g>
		</g>
		<g id="_x3C_Répétition_miroir_x3E__00000163066381581255720500000007959469968957868944_">
			<g>
				<defs>
					<polygon id="SVGID_00000106852184786278806940000008508853493561597629_" points="4548.2,382.6 4548.2,382.6 4867.1,389.2 
						4870,247 4551.2,240.4 					"/>
				</defs>
				<clipPath id="SVGID_00000083050484734937940740000017565744541661150098_">
					<use xlink:href="#SVGID_00000106852184786278806940000008508853493561597629_"  style="overflow:visible;"/>
				</clipPath>
				<g style="clip-path:url(#SVGID_00000083050484734937940740000017565744541661150098_);">
					<g id="_x3C_Répétition_miroir_x3E__00000062158841370141220040000012136812774307617675_">
						<g>
							<defs>
								
									<rect id="SVGID_00000070840201866847553310000011630426859365462969_" x="4726.3" y="245.5" transform="matrix(2.079125e-02 -0.9998 0.9998 2.079125e-02 4381.1074 5106.4658)" width="142.3" height="142.3"/>
							</defs>
							<clipPath id="SVGID_00000036220187109917027010000003628640134363031195_">
								<use xlink:href="#SVGID_00000070840201866847553310000011630426859365462969_"  style="overflow:visible;"/>
							</clipPath>
							
								<line style="clip-path:url(#SVGID_00000036220187109917027010000003628640134363031195_);fill:#FFFFFF;stroke:#FFFFFF;stroke-width:13;stroke-linecap:round;stroke-linejoin:round;stroke-miterlimit:10;" x1="4734.2" y1="250.7" x2="4860.7" y2="382.6"/>
						</g>
					</g>
					<g id="_x3C_Répétition_miroir_x3E__00000009573032120216452000000015519066345368505744_">
						<g>
							<defs>
								
									<rect id="SVGID_00000014631461578971827930000001964874371461080726_" x="4549.7" y="241.9" transform="matrix(2.079125e-02 -0.9998 0.9998 2.079125e-02 4211.8115 4926.2661)" width="142.3" height="142.3"/>
							</defs>
							<clipPath id="SVGID_00000017501080362728801490000012971042131362201741_">
								<use xlink:href="#SVGID_00000014631461578971827930000001964874371461080726_"  style="overflow:visible;"/>
							</clipPath>
							
								<line style="clip-path:url(#SVGID_00000017501080362728801490000012971042131362201741_);fill:#FFFFFF;stroke:#FFFFFF;stroke-width:13;stroke-linecap:round;stroke-linejoin:round;stroke-miterlimit:10;" x1="4686.8" y1="249.7" x2="4554.8" y2="376.2"/>
						</g>
					</g>
				</g>
			</g>
		</g>
	</g>
	<g>
		<g>
			<g>
				<circle class="st6" cx="1116.9" cy="314.2" r="52.3"/>
			</g>
			<g>
				<circle class="st6" cx="1014.5" cy="217.4" r="52.3"/>
			</g>
			<g>
				<circle class="st6" cx="1111.3" cy="115" r="52.3"/>
			</g>
			<g>
				<circle class="st6" cx="1213.8" cy="211.8" r="52.3"/>
			</g>
		</g>
	</g>
	<g>
		<line class="st7" x1="4964.1" y1="233.8" x2="5355.1" y2="233.8"/>
		<line class="st7" x1="5159.6" y1="303.8" x2="5159.6" y2="163.8"/>
		<path class="st8" d="M5159.6,286.8L5159.6,286.8c0-29.3-23.7-53-53-53v0c29.3,0,53-23.7,53-53l0,0c0,29.3,23.7,53,53,53v0
			C5183.4,233.8,5159.6,257.6,5159.6,286.8z"/>
	</g>
	<g>
		<path class="st9" d="M5416.9,256.7c-12.6-52.6,228.7-80.4,228.4-79.6c0,0-157,24-152.3,65.1c8.1,71.4,282.7,51,282.7,51
			S5432.6,322.1,5416.9,256.7z"/>
		<path class="st9" d="M5800.7,196.3c12.7,52.6-228.6,80.6-228.4,79.7c0,0,156.9-24.1,152.2-65.2c-8.1-71.4-282.7-50.7-282.7-50.7
			S5784.9,130.9,5800.7,196.3z"/>
		<path class="st6" d="M5441.8,160"/>
	</g>
	<g>
		<circle class="st8" cx="4260.6" cy="225.4" r="33.6"/>
		<line class="st7" x1="4340.6" y1="306.1" x2="4180.3" y2="145.9"/>
		<line class="st7" x1="4181.5" y1="304.5" x2="4343.7" y2="146.2"/>
		<line class="st7" x1="4088.5" y1="225.4" x2="4432.7" y2="225.4"/>
		<line class="st7" x1="4260.6" y1="45.3" x2="4260.6" y2="409.3"/>
	</g>
	<path class="st9" d="M214.9,35.8L214.9,35.8c0,99-80.3,179.2-179.3,179.2v0c99,0,179.2,80.3,179.2,179.2h0
		c0-99,80.3-179.2,179.2-179.2v0C295.1,215.1,214.9,134.8,214.9,35.8z"/>
	<path class="st9" d="M698,159c2.7,1.1,47-79.3-117.5-111.7c0,0,235.1-2.9,141,202.8c0,0,61.7,50,108.7-102.8
		c0,0-8.8,214.5-196.9,126.4c0,0-58.8,73.5,117.5,108.7c0,0-232.1,5.9-144-199.8c0,0-76.4-61.7-108.7,126.4
		C498.2,308.9,483.5,73.8,698,159z"/>
	<g>
		<circle class="st10" cx="2911.6" cy="217.8" r="87.6"/>
		<ellipse class="st10" cx="2910.4" cy="217.8" rx="144.8" ry="87.6"/>
		<ellipse class="st10" cx="2911.6" cy="217.8" rx="182.5" ry="87.6"/>
	</g>
	<g>
		<g>
			<circle class="st10" cx="3361.6" cy="217.8" r="88.1"/>
			<ellipse class="st10" cx="3360.4" cy="217.8" rx="145.6" ry="88.1"/>
			<ellipse class="st10" cx="3361.6" cy="217.8" rx="183.5" ry="88.1"/>
		</g>
		<line class="st10" x1="3361.6" y1="129.8" x2="3361.6" y2="305.9"/>
		<line class="st10" x1="3178.1" y1="217.8" x2="3545.1" y2="217.8"/>
	</g>
	<g>
		<g>
			
				<ellipse transform="matrix(0.8449 -0.5348 0.5348 0.8449 194.0901 1110.5099)" class="st10" cx="2012.4" cy="220.5" rx="178.1" ry="64.6"/>
		</g>
		<g>
			
				<ellipse transform="matrix(0.9992 -4.071705e-02 4.071705e-02 0.9992 -7.0793 82.0612)" class="st10" cx="2011" cy="214.8" rx="64.6" ry="178.1"/>
		</g>
		<g>
			
				<ellipse transform="matrix(0.4643 -0.8857 0.8857 0.4643 888.5265 1902.0176)" class="st10" cx="2016.6" cy="216.5" rx="64.6" ry="178.1"/>
		</g>
	</g>
	<g>
		<g>
			
				<ellipse transform="matrix(0.8449 -0.5348 0.5348 0.8449 125.3151 863.0439)" class="st10" cx="1551.2" cy="215.4" rx="61" ry="168.3"/>
		</g>
		<g>
			
				<ellipse transform="matrix(0.8449 -0.5348 0.5348 0.8449 123.5526 861.2604)" class="st10" cx="1547.2" cy="217.5" rx="168.3" ry="61"/>
		</g>
	</g>
	<g>
		<g>
			
				<ellipse transform="matrix(0.8449 -0.5348 0.5348 0.8449 263.6319 1350.5762)" class="st10" cx="2461.2" cy="220.6" rx="171.4" ry="62.1"/>
		</g>
		<g>
			
				<ellipse transform="matrix(0.6383 -0.7698 0.7698 0.6383 721.8614 1971.4808)" class="st10" cx="2458.9" cy="217.6" rx="62.1" ry="171.4"/>
		</g>
		<g>
			
				<ellipse transform="matrix(0.3692 -0.9293 0.9293 0.3692 1353.1493 2422.4341)" class="st10" cx="2461.1" cy="214.4" rx="171.4" ry="62.1"/>
		</g>
		<g>
			
				<ellipse transform="matrix(6.394779e-02 -0.998 0.998 6.394779e-02 2092.0281 2661.3882)" class="st10" cx="2464.7" cy="215.5" rx="62.1" ry="171.4"/>
		</g>
		<g>
			
				<ellipse transform="matrix(0.9689 -0.2476 0.2476 0.9689 22.4314 617.0305)" class="st10" cx="2464.8" cy="219.3" rx="62.1" ry="171.4"/>
		</g>
	</g>
	<g>
		<circle class="st10" cx="3809.3" cy="214.4" r="120.8"/>
		<ellipse class="st10" cx="3811.1" cy="216.2" rx="194" ry="25.6"/>
	</g>
</g>
</svg>
