<?xml version="1.0" encoding="utf-8"?>
<!-- Generator: Adobe Illustrator 28.0.0, SVG Export Plug-In . SVG Version: 6.00 Build 0)  -->
<svg version="1.1" xmlns="http://www.w3.org/2000/svg" xmlns:xlink="http://www.w3.org/1999/xlink" x="0px" y="0px"
	 viewBox="0 0 429.5 429.5" style="enable-background:new 0 0 429.5 429.5;" xml:space="preserve">
<style type="text/css">
	.st0{clip-path:url(#SVGID_00000059293498611656503370000008738022584608105604_);}
	
		.st1{clip-path:url(#SVGID_00000054985640201931368800000004766388239164260770_);fill:#FFFFFF;stroke:#FFFFFF;stroke-width:10;stroke-linecap:round;stroke-linejoin:round;stroke-miterlimit:10;}
	
		.st2{clip-path:url(#SVGID_00000132807782124399560970000006159837493107248049_);fill:#FFFFFF;stroke:#FFFFFF;stroke-width:10;stroke-linecap:round;stroke-linejoin:round;stroke-miterlimit:10;}
	.st3{clip-path:url(#SVGID_00000171699507338066669030000011888428103961962629_);}
	
		.st4{clip-path:url(#SVGID_00000148661261801270948850000017801340410293049788_);fill:#FFFFFF;stroke:#FFFFFF;stroke-width:10;stroke-linecap:round;stroke-linejoin:round;stroke-miterlimit:10;}
	
		.st5{clip-path:url(#SVGID_00000183219237312931644610000001945624043277616533_);fill:#FFFFFF;stroke:#FFFFFF;stroke-width:10;stroke-linecap:round;stroke-linejoin:round;stroke-miterlimit:10;}
	.st6{fill:#FFFFFF;stroke:#FFFFFF;stroke-width:3;stroke-miterlimit:10;}
	.st7{fill:#FFFFFF;stroke:#FFFFFF;stroke-width:13;stroke-linecap:round;stroke-linejoin:round;stroke-miterlimit:10;}
	.st8{fill:#FFFFFF;stroke:#FFFFFF;stroke-width:13;stroke-miterlimit:10;}
	.st9{fill:#FFFFFF;stroke:#FFFFFF;stroke-miterlimit:10;}
	.st10{fill:#FFFFFF;stroke:#FFFFFF;stroke-width:11;stroke-miterlimit:10;}
	.st11{fill:#FFFFFF;stroke:#FFFFFF;stroke-width:11;stroke-linecap:round;stroke-linejoin:round;stroke-miterlimit:10;}
	.st12{fill:none;stroke:#FFFFFF;stroke-width:13;stroke-miterlimit:10;}
	.st13{fill:none;stroke:#FFFFFF;stroke-width:10;stroke-miterlimit:10;}
	.st14{fill:none;stroke:#FFFFFF;stroke-width:9;stroke-miterlimit:10;}
</style>
<g id="Calque_1">
</g>
<g id="Calque_2">
	<g>
		<g id="_x3C_Répétition_miroir_x3E__00000070095706891414642660000006161228937501346463_">
			<g>
				<defs>
					<polygon id="SVGID_1_" points="56.5,64.5 56.5,64.5 375.4,64.5 375.4,206.8 56.5,206.8 					"/>
				</defs>
				<clipPath id="SVGID_00000121994660351465403620000003923764501699034788_">
					<use xlink:href="#SVGID_1_"  style="overflow:visible;"/>
				</clipPath>
				<g style="clip-path:url(#SVGID_00000121994660351465403620000003923764501699034788_);">
					<g id="_x3C_Répétition_miroir_x3E__00000029725417055590638080000018094581496460315308_">
						<g>
							<defs>
								<rect id="SVGID_00000160892606552866376960000013782408092973268663_" x="234.7" y="66" width="139.3" height="139.3"/>
							</defs>
							<clipPath id="SVGID_00000142171380096093954140000010045634128517103547_">
								<use xlink:href="#SVGID_00000160892606552866376960000013782408092973268663_"  style="overflow:visible;"/>
							</clipPath>
							
								<line style="clip-path:url(#SVGID_00000142171380096093954140000010045634128517103547_);fill:#FFFFFF;stroke:#FFFFFF;stroke-width:10;stroke-linecap:round;stroke-linejoin:round;stroke-miterlimit:10;" x1="239.7" y1="200.3" x2="368.9" y2="71"/>
						</g>
					</g>
					<g id="_x3C_Répétition_miroir_x3E__00000049924689674469748890000016863732448153288113_">
						<g>
							<defs>
								<rect id="SVGID_00000003071679800878962570000012806394009197062822_" x="58" y="66" width="139.3" height="139.3"/>
							</defs>
							<clipPath id="SVGID_00000066473460691761819950000000510329655388738484_">
								<use xlink:href="#SVGID_00000003071679800878962570000012806394009197062822_"  style="overflow:visible;"/>
							</clipPath>
							
								<line style="clip-path:url(#SVGID_00000066473460691761819950000000510329655388738484_);fill:#FFFFFF;stroke:#FFFFFF;stroke-width:10;stroke-linecap:round;stroke-linejoin:round;stroke-miterlimit:10;" x1="192.2" y1="200.3" x2="63" y2="71"/>
						</g>
					</g>
				</g>
			</g>
		</g>
		<g id="_x3C_Répétition_miroir_x3E__00000139981092725594920880000013069924425370472082_">
			<g>
				<defs>
					<polygon id="SVGID_00000172409794517717676520000013254207546738359203_" points="53.2,382.6 53.2,382.6 372.1,389.2 375,247 
						56.1,240.4 					"/>
				</defs>
				<clipPath id="SVGID_00000093145273238340004680000009421180783935464105_">
					<use xlink:href="#SVGID_00000172409794517717676520000013254207546738359203_"  style="overflow:visible;"/>
				</clipPath>
				<g style="clip-path:url(#SVGID_00000093145273238340004680000009421180783935464105_);">
					<g id="_x3C_Répétition_miroir_x3E__00000133517667956313382140000014691918055926055812_">
						<g>
							<defs>
								
									<rect id="SVGID_00000070115205816582057460000002271378883667769525_" x="232.8" y="247" transform="matrix(2.079125e-02 -0.9998 0.9998 2.079125e-02 -20.453 612.4202)" width="139.3" height="139.3"/>
							</defs>
							<clipPath id="SVGID_00000013154667735198922670000002374430088117457547_">
								<use xlink:href="#SVGID_00000070115205816582057460000002271378883667769525_"  style="overflow:visible;"/>
							</clipPath>
							
								<line style="clip-path:url(#SVGID_00000013154667735198922670000002374430088117457547_);fill:#FFFFFF;stroke:#FFFFFF;stroke-width:10;stroke-linecap:round;stroke-linejoin:round;stroke-miterlimit:10;" x1="239.1" y1="250.7" x2="365.7" y2="382.6"/>
						</g>
					</g>
					<g id="_x3C_Répétition_miroir_x3E__00000127725324068533802870000009071855241216851364_">
						<g>
							<defs>
								
									<rect id="SVGID_00000115486536090673705880000013335099353107281041_" x="56.1" y="243.4" transform="matrix(2.079125e-02 -0.9998 0.9998 2.079125e-02 -189.7488 432.2205)" width="139.3" height="139.3"/>
							</defs>
							<clipPath id="SVGID_00000045618175823465082100000000467071181214856611_">
								<use xlink:href="#SVGID_00000115486536090673705880000013335099353107281041_"  style="overflow:visible;"/>
							</clipPath>
							
								<line style="clip-path:url(#SVGID_00000045618175823465082100000000467071181214856611_);fill:#FFFFFF;stroke:#FFFFFF;stroke-width:10;stroke-linecap:round;stroke-linejoin:round;stroke-miterlimit:10;" x1="191.7" y1="249.7" x2="59.8" y2="376.2"/>
						</g>
					</g>
				</g>
			</g>
		</g>
	</g>
	<g>
		<g>
			<g>
				<circle class="st6" cx="-3378.1" cy="314.2" r="52.3"/>
			</g>
			<g>
				<circle class="st6" cx="-3480.5" cy="217.4" r="52.3"/>
			</g>
			<g>
				<circle class="st6" cx="-3383.7" cy="115" r="52.3"/>
			</g>
			<g>
				<circle class="st6" cx="-3281.3" cy="211.8" r="52.3"/>
			</g>
		</g>
	</g>
	<g>
		<line class="st7" x1="469.1" y1="233.8" x2="860.1" y2="233.8"/>
		<line class="st7" x1="664.6" y1="303.8" x2="664.6" y2="163.8"/>
		<path class="st8" d="M664.6,286.8L664.6,286.8c0-29.3-23.7-53-53-53v0c29.3,0,53-23.7,53-53h0c0,29.3,23.7,53,53,53v0
			C688.3,233.8,664.6,257.6,664.6,286.8z"/>
	</g>
	<g>
		<path class="st9" d="M921.9,256.7c-12.6-52.6,228.7-80.4,228.4-79.6c0,0-157,24-152.3,65.1c8.1,71.4,282.7,51,282.7,51
			S937.6,322.1,921.9,256.7z"/>
		<path class="st9" d="M1305.6,196.3c12.7,52.6-228.6,80.6-228.4,79.7c0,0,156.9-24.1,152.2-65.2c-8.1-71.4-282.7-50.7-282.7-50.7
			S1289.9,130.9,1305.6,196.3z"/>
		<path class="st6" d="M946.8,160"/>
	</g>
	<g>
		<circle class="st10" cx="-234.4" cy="225.4" r="33.6"/>
		<line class="st11" x1="-154.5" y1="306.1" x2="-314.7" y2="145.9"/>
		<line class="st11" x1="-313.5" y1="304.5" x2="-151.3" y2="146.2"/>
		<line class="st11" x1="-406.5" y1="225.4" x2="-62.3" y2="225.4"/>
		<line class="st11" x1="-234.4" y1="45.3" x2="-234.4" y2="409.3"/>
	</g>
	<path class="st9" d="M-4280.1,35.8L-4280.1,35.8c0,99-80.3,179.2-179.2,179.2v0c99,0,179.2,80.3,179.2,179.2h0
		c0-99,80.3-179.2,179.2-179.2v0C-4199.9,215.1-4280.1,134.8-4280.1,35.8z"/>
	<path class="st9" d="M-3797,159c2.7,1.1,47-79.3-117.5-111.7c0,0,235.1-2.9,141,202.8c0,0,61.7,50,108.7-102.8
		c0,0-8.8,214.5-196.9,126.4c0,0-58.8,73.5,117.5,108.7c0,0-232.1,5.9-144-199.8c0,0-76.4-61.7-108.7,126.4
		C-3996.8,308.9-4011.5,73.8-3797,159z"/>
	<g>
		<circle class="st12" cx="-1583.4" cy="217.8" r="87.6"/>
		<ellipse class="st12" cx="-1584.6" cy="217.8" rx="144.8" ry="87.6"/>
		<ellipse class="st12" cx="-1583.4" cy="217.8" rx="182.5" ry="87.6"/>
	</g>
	<g>
		<g>
			<circle class="st13" cx="-1133.4" cy="217.8" r="88.1"/>
			<ellipse class="st13" cx="-1134.6" cy="217.8" rx="145.6" ry="88.1"/>
			<ellipse class="st13" cx="-1133.4" cy="217.8" rx="183.5" ry="88.1"/>
		</g>
		<line class="st13" x1="-1133.4" y1="129.8" x2="-1133.4" y2="305.9"/>
		<line class="st13" x1="-1316.9" y1="217.8" x2="-949.9" y2="217.8"/>
	</g>
	<g>
		<g>
			
				<ellipse transform="matrix(0.8449 -0.5348 0.5348 0.8449 -502.8682 -1293.6383)" class="st12" cx="-2482.6" cy="220.5" rx="178.1" ry="64.6"/>
		</g>
		<g>
			
				<ellipse transform="matrix(0.9992 -4.071705e-02 4.071705e-02 0.9992 -10.807 -100.9626)" class="st12" cx="-2484" cy="214.8" rx="64.6" ry="178.1"/>
		</g>
		<g>
			
				<ellipse transform="matrix(0.4643 -0.8857 0.8857 0.4643 -1519.3492 -2079.0652)" class="st12" cx="-2478.4" cy="216.5" rx="64.6" ry="178.1"/>
		</g>
	</g>
	<g>
		<g>
			
				<ellipse transform="matrix(0.8449 -0.5348 0.5348 0.8449 -571.6432 -1541.1042)" class="st12" cx="-2943.8" cy="215.4" rx="61" ry="168.3"/>
		</g>
		<g>
			
				<ellipse transform="matrix(0.8449 -0.5348 0.5348 0.8449 -573.4057 -1542.8877)" class="st12" cx="-2947.8" cy="217.5" rx="168.3" ry="61"/>
		</g>
	</g>
	<g>
		<g id="_x3C_Répétition_radiale_x3E__00000122688644307564504540000013630841094674371715_">
			
				<ellipse transform="matrix(0.8449 -0.5348 0.5348 0.8449 -433.3264 -1053.5717)" class="st14" cx="-2033.8" cy="220.6" rx="171.4" ry="62.1"/>
		</g>
		<g id="_x3C_Répétition_radiale_x3E__00000114070073977281650040000009123097693110347393_">
			
				<ellipse transform="matrix(0.6383 -0.7698 0.7698 0.6383 -903.9089 -1488.665)" class="st14" cx="-2036.1" cy="217.6" rx="62.1" ry="171.4"/>
		</g>
		<g id="_x3C_Répétition_radiale_x3E__00000150785594575577114500000006455875408271571902_">
			
				<ellipse transform="matrix(0.3692 -0.9293 0.9293 0.3692 -1482.2969 -1755.0055)" class="st14" cx="-2034" cy="214.4" rx="171.4" ry="62.1"/>
		</g>
		<g id="_x3C_Répétition_radiale_x3E__00000088821665050739002300000004119655936778441140_">
			
				<ellipse transform="matrix(6.394781e-02 -0.998 0.998 6.394781e-02 -2115.5435 -1824.4302)" class="st14" cx="-2030.3" cy="215.5" rx="62.1" ry="171.4"/>
		</g>
		<g id="_x3C_Répétition_radiale_x3E__00000088131219995531486110000015010524201262858913_">
			
				<ellipse transform="matrix(0.9689 -0.2476 0.2476 0.9689 -117.4946 -495.7851)" class="st14" cx="-2030.2" cy="219.3" rx="62.1" ry="171.4"/>
		</g>
	</g>
	<g>
		<circle class="st13" cx="-685.7" cy="214.4" r="120.8"/>
		<ellipse class="st13" cx="-683.9" cy="216.2" rx="194" ry="25.6"/>
	</g>
</g>
</svg>
