<?xml version="1.0" encoding="utf-8"?>
<!-- Generator: Adobe Illustrator 28.0.0, SVG Export Plug-In . SVG Version: 6.00 Build 0)  -->
<svg version="1.1" xmlns="http://www.w3.org/2000/svg" xmlns:xlink="http://www.w3.org/1999/xlink" x="0px" y="0px"
	 viewBox="0 0 429.5 214.5" style="enable-background:new 0 0 429.5 214.5;" xml:space="preserve">
<style type="text/css">
	.st0{clip-path:url(#SVGID_00000119811944160341047630000002204023839211277229_);}
	
		.st1{clip-path:url(#SVGID_00000059270454908417433390000018357019108638789295_);fill:#FFFFFF;stroke:#FFFFFF;stroke-width:10;stroke-linecap:round;stroke-linejoin:round;stroke-miterlimit:10;}
	
		.st2{clip-path:url(#SVGID_00000168822227785261174280000014428810550415361930_);fill:#FFFFFF;stroke:#FFFFFF;stroke-width:10;stroke-linecap:round;stroke-linejoin:round;stroke-miterlimit:10;}
	.st3{clip-path:url(#SVGID_00000085228218698443060540000013752615928431841215_);}
	
		.st4{clip-path:url(#SVGID_00000084520144386809732870000015329151850277621682_);fill:#FFFFFF;stroke:#FFFFFF;stroke-width:10;stroke-linecap:round;stroke-linejoin:round;stroke-miterlimit:10;}
	
		.st5{clip-path:url(#SVGID_00000056387671940973921410000017491129350537701290_);fill:#FFFFFF;stroke:#FFFFFF;stroke-width:10;stroke-linecap:round;stroke-linejoin:round;stroke-miterlimit:10;}
	.st6{fill:#FFFFFF;stroke:#FFFFFF;stroke-width:3;stroke-miterlimit:10;}
	.st7{fill:#FFFFFF;stroke:#FFFFFF;stroke-width:10;stroke-linecap:round;stroke-linejoin:round;stroke-miterlimit:10;}
	.st8{fill:#FFFFFF;stroke:#FFFFFF;stroke-width:10;stroke-miterlimit:10;}
	.st9{fill:#FFFFFF;stroke:#FFFFFF;stroke-miterlimit:10;}
	.st10{fill:#FFFFFF;stroke:#FFFFFF;stroke-width:11;stroke-miterlimit:10;}
	.st11{fill:#FFFFFF;stroke:#FFFFFF;stroke-width:11;stroke-linecap:round;stroke-linejoin:round;stroke-miterlimit:10;}
	.st12{fill:none;stroke:#FFFFFF;stroke-width:13;stroke-miterlimit:10;}
	.st13{fill:none;stroke:#FFFFFF;stroke-width:10;stroke-miterlimit:10;}
	.st14{fill:none;stroke:#FFFFFF;stroke-width:9;stroke-miterlimit:10;}
</style>
<g id="Calque_1">
</g>
<g id="Calque_2">
	<g>
		<g id="_x3C_Répétition_miroir_x3E__00000157268604226128954510000017302615087014464672_">
			<g>
				<defs>
					<polygon id="SVGID_1_" points="-391.5,-58 -391.5,-58 -75.6,-58 -75.6,81.3 -391.5,81.3 					"/>
				</defs>
				<clipPath id="SVGID_00000009564903812925854610000016496745312780560772_">
					<use xlink:href="#SVGID_1_"  style="overflow:visible;"/>
				</clipPath>
				<g style="clip-path:url(#SVGID_00000009564903812925854610000016496745312780560772_);">
					<g id="_x3C_Répétition_miroir_x3E__00000086660514501132089950000001008951167279836291_">
						<g>
							<defs>
								<rect id="SVGID_00000096755381044758111370000005398334695026129058_" x="-214.8" y="-58" width="139.3" height="139.3"/>
							</defs>
							<clipPath id="SVGID_00000048497750545597038110000000444677115412837293_">
								<use xlink:href="#SVGID_00000096755381044758111370000005398334695026129058_"  style="overflow:visible;"/>
							</clipPath>
							
								<line style="clip-path:url(#SVGID_00000048497750545597038110000000444677115412837293_);fill:#FFFFFF;stroke:#FFFFFF;stroke-width:10;stroke-linecap:round;stroke-linejoin:round;stroke-miterlimit:10;" x1="-209.8" y1="76.3" x2="-80.6" y2="-53"/>
						</g>
					</g>
					<g id="_x3C_Répétition_miroir_x3E__00000076595014035519077230000004328501962638528397_">
						<g>
							<defs>
								<rect id="SVGID_00000029023786567623390620000009955924587109846958_" x="-391.5" y="-58" width="139.3" height="139.3"/>
							</defs>
							<clipPath id="SVGID_00000100365303165178579560000005353299049398805382_">
								<use xlink:href="#SVGID_00000029023786567623390620000009955924587109846958_"  style="overflow:visible;"/>
							</clipPath>
							
								<line style="clip-path:url(#SVGID_00000100365303165178579560000005353299049398805382_);fill:#FFFFFF;stroke:#FFFFFF;stroke-width:10;stroke-linecap:round;stroke-linejoin:round;stroke-miterlimit:10;" x1="-257.3" y1="76.3" x2="-386.5" y2="-53"/>
						</g>
					</g>
				</g>
			</g>
		</g>
		<g id="_x3C_Répétition_miroir_x3E__00000064353774924258290040000007787803880763079070_">
			<g>
				<defs>
					<polygon id="SVGID_00000012472226255054507650000016172615104614123147_" points="-394.8,257.1 -394.8,257.1 -78.9,263.7 
						-76,124.5 -391.9,117.9 					"/>
				</defs>
				<clipPath id="SVGID_00000116954720964369060730000011160052045100568206_">
					<use xlink:href="#SVGID_00000012472226255054507650000016172615104614123147_"  style="overflow:visible;"/>
				</clipPath>
				<g style="clip-path:url(#SVGID_00000116954720964369060730000011160052045100568206_);">
					<g id="_x3C_Répétition_miroir_x3E__00000121958370907807517390000009653242449765644439_">
						<g>
							<defs>
								
									<rect id="SVGID_00000109009205224679477940000009161489188222317710_" x="-216.7" y="123" transform="matrix(2.079125e-02 -0.9998 0.9998 2.079125e-02 -336.6358 41.5938)" width="139.3" height="139.3"/>
							</defs>
							<clipPath id="SVGID_00000124884253141111342830000000759767940079343235_">
								<use xlink:href="#SVGID_00000109009205224679477940000009161489188222317710_"  style="overflow:visible;"/>
							</clipPath>
							
								<line style="clip-path:url(#SVGID_00000124884253141111342830000000759767940079343235_);fill:#FFFFFF;stroke:#FFFFFF;stroke-width:10;stroke-linecap:round;stroke-linejoin:round;stroke-miterlimit:10;" x1="-210.4" y1="126.7" x2="-83.8" y2="258.6"/>
						</g>
					</g>
					<g id="_x3C_Répétition_miroir_x3E__00000057834615200991549800000000238869590863522688_">
						<g>
							<defs>
								
									<rect id="SVGID_00000183933171850636728990000007416914909119081872_" x="-393.4" y="119.4" transform="matrix(2.079125e-02 -0.9998 0.9998 2.079125e-02 -505.9316 -138.606)" width="139.3" height="139.3"/>
							</defs>
							<clipPath id="SVGID_00000099640859089746393030000006184587288850710153_">
								<use xlink:href="#SVGID_00000183933171850636728990000007416914909119081872_"  style="overflow:visible;"/>
							</clipPath>
							
								<line style="clip-path:url(#SVGID_00000099640859089746393030000006184587288850710153_);fill:#FFFFFF;stroke:#FFFFFF;stroke-width:10;stroke-linecap:round;stroke-linejoin:round;stroke-miterlimit:10;" x1="-257.8" y1="125.7" x2="-389.7" y2="252.2"/>
						</g>
					</g>
				</g>
			</g>
		</g>
	</g>
	<g>
		<g>
			<g>
				<circle class="st6" cx="-3827.6" cy="190.2" r="52.3"/>
			</g>
			<g>
				<circle class="st6" cx="-3930" cy="93.4" r="52.3"/>
			</g>
			<g>
				<circle class="st6" cx="-3833.2" cy="-9" r="52.3"/>
			</g>
			<g>
				<circle class="st6" cx="-3730.8" cy="87.8" r="52.3"/>
			</g>
		</g>
	</g>
	<g>
		<line class="st7" x1="19.6" y1="109.8" x2="410.6" y2="109.8"/>
		<line class="st7" x1="215.1" y1="179.8" x2="215.1" y2="39.8"/>
		<path class="st8" d="M215.1,162.8L215.1,162.8c0-29.3-23.7-53-53-53v0c29.3,0,53-23.7,53-53h0c0,29.3,23.7,53,53,53v0
			C238.8,109.8,215.1,133.6,215.1,162.8z"/>
	</g>
	<g>
		<path class="st9" d="M472.4,132.7C459.7,80.1,701,52.3,700.8,53.2c0,0-157,24-152.3,65.1c8.1,71.4,282.7,51,282.7,51
			S488.1,198.1,472.4,132.7z"/>
		<path class="st9" d="M856.1,72.3c12.7,52.6-228.6,80.6-228.4,79.7c0,0,156.9-24.1,152.2-65.2C771.9,15.4,497.3,36,497.3,36
			S840.4,6.9,856.1,72.3z"/>
		<path class="st6" d="M497.3,36"/>
	</g>
	<g>
		<circle class="st10" cx="-683.9" cy="101.4" r="33.6"/>
		<line class="st11" x1="-604" y1="182.1" x2="-764.2" y2="21.9"/>
		<line class="st11" x1="-763" y1="180.5" x2="-600.8" y2="22.2"/>
		<line class="st11" x1="-856" y1="101.4" x2="-511.8" y2="101.4"/>
		<line class="st11" x1="-683.9" y1="-78.7" x2="-683.9" y2="285.3"/>
	</g>
	<path class="st9" d="M-4729.6-88.2L-4729.6-88.2c0,99-80.3,179.2-179.3,179.2v0c99,0,179.2,80.3,179.2,179.2h0
		c0-99,80.3-179.2,179.2-179.2v0C-4649.4,91.1-4729.6,10.8-4729.6-88.2z"/>
	<path class="st9" d="M-4246.5,35c2.7,1.1,47-79.3-117.5-111.7c0,0,235.1-2.9,141,202.8c0,0,61.7,50,108.7-102.8
		c0,0-8.8,214.5-196.9,126.4c0,0-58.8,73.5,117.5,108.7c0,0-232.1,5.9-144-199.8c0,0-76.4-61.7-108.7,126.4
		C-4446.3,184.9-4461-50.2-4246.5,35z"/>
	<g>
		<circle class="st12" cx="-2032.9" cy="93.8" r="87.6"/>
		<ellipse class="st12" cx="-2034.1" cy="93.8" rx="144.8" ry="87.6"/>
		<ellipse class="st12" cx="-2032.9" cy="93.8" rx="182.5" ry="87.6"/>
	</g>
	<g>
		<g>
			<circle class="st13" cx="-1582.9" cy="93.8" r="88.1"/>
			<ellipse class="st13" cx="-1584.1" cy="93.8" rx="145.6" ry="88.1"/>
			<ellipse class="st13" cx="-1582.9" cy="93.8" rx="183.5" ry="88.1"/>
		</g>
		<line class="st13" x1="-1582.9" y1="5.8" x2="-1582.9" y2="181.9"/>
		<line class="st13" x1="-1766.4" y1="93.8" x2="-1399.4" y2="93.8"/>
	</g>
	<g>
		<g>
			
				<ellipse transform="matrix(0.8449 -0.5348 0.5348 0.8449 -506.243 -1553.2794)" class="st12" cx="-2932.1" cy="96.5" rx="178.1" ry="64.6"/>
		</g>
		<g>
			
				<ellipse transform="matrix(0.9992 -4.071705e-02 4.071705e-02 0.9992 -6.1308 -119.3678)" class="st12" cx="-2933.5" cy="90.8" rx="64.6" ry="178.1"/>
		</g>
		<g>
			
				<ellipse transform="matrix(0.4643 -0.8857 0.8857 0.4643 -1650.3142 -2543.5974)" class="st12" cx="-2927.9" cy="92.5" rx="64.6" ry="178.1"/>
		</g>
	</g>
	<g>
		<g>
			
				<ellipse transform="matrix(0.8449 -0.5348 0.5348 0.8449 -575.018 -1800.7454)" class="st12" cx="-3393.3" cy="91.4" rx="61" ry="168.3"/>
		</g>
		<g>
			
				<ellipse transform="matrix(0.8449 -0.5348 0.5348 0.8449 -576.7805 -1802.5288)" class="st12" cx="-3397.3" cy="93.5" rx="168.3" ry="61"/>
		</g>
	</g>
	<g>
		<g id="_x3C_Répétition_radiale_x3E__00000156554456791261962100000005841089306568129723_">
			
				<ellipse transform="matrix(0.8449 -0.5348 0.5348 0.8449 -436.7012 -1313.2128)" class="st14" cx="-2483.3" cy="96.6" rx="171.4" ry="62.1"/>
		</g>
		<g id="_x3C_Répétition_radiale_x3E__00000062157576203038464430000000063115309420308394_">
			
				<ellipse transform="matrix(0.6383 -0.7698 0.7698 0.6383 -971.0341 -1879.5282)" class="st14" cx="-2485.6" cy="93.6" rx="62.1" ry="171.4"/>
		</g>
		<g id="_x3C_Répétition_radiale_x3E__00000021092474805192732190000001590878905307694221_">
			
				<ellipse transform="matrix(0.3692 -0.9293 0.9293 0.3692 -1650.6022 -2250.9683)" class="st14" cx="-2483.5" cy="90.4" rx="171.4" ry="62.1"/>
		</g>
		<g id="_x3C_Répétition_radiale_x3E__00000119809024444871383700000013818982425602173844_">
			
				<ellipse transform="matrix(6.394781e-02 -0.998 0.998 6.394781e-02 -2412.5544 -2389.0823)" class="st14" cx="-2479.8" cy="91.5" rx="62.1" ry="171.4"/>
		</g>
		<g id="_x3C_Répétition_radiale_x3E__00000059289287874885870550000004827328727526933914_">
			
				<ellipse transform="matrix(0.9689 -0.2476 0.2476 0.9689 -100.7889 -610.9268)" class="st14" cx="-2479.7" cy="95.3" rx="62.1" ry="171.4"/>
		</g>
	</g>
	<g>
		<circle class="st13" cx="-1135.2" cy="90.4" r="120.8"/>
		<ellipse class="st13" cx="-1133.4" cy="92.2" rx="194" ry="25.6"/>
	</g>
</g>
</svg>
