<?xml version="1.0" encoding="utf-8"?>
<!-- Generator: Adobe Illustrator 28.0.0, SVG Export Plug-In . SVG Version: 6.00 Build 0)  -->
<svg version="1.1" xmlns="http://www.w3.org/2000/svg" xmlns:xlink="http://www.w3.org/1999/xlink" x="0px" y="0px"
	 viewBox="0 0 429.5 384.5" style="enable-background:new 0 0 429.5 384.5;" xml:space="preserve">
<style type="text/css">
	.st0{clip-path:url(#SVGID_00000166637707764013720450000013851651541481803191_);}
	
		.st1{clip-path:url(#SVGID_00000121269103260590995790000016408252087864447624_);fill:#FFFFFF;stroke:#FFFFFF;stroke-width:10;stroke-linecap:round;stroke-linejoin:round;stroke-miterlimit:10;}
	
		.st2{clip-path:url(#SVGID_00000181792339434485927620000000140232565509476484_);fill:#FFFFFF;stroke:#FFFFFF;stroke-width:10;stroke-linecap:round;stroke-linejoin:round;stroke-miterlimit:10;}
	.st3{clip-path:url(#SVGID_00000099659752142400400620000016144303928982919078_);}
	
		.st4{clip-path:url(#SVGID_00000081648487758239695480000006865212645462821303_);fill:#FFFFFF;stroke:#FFFFFF;stroke-width:10;stroke-linecap:round;stroke-linejoin:round;stroke-miterlimit:10;}
	
		.st5{clip-path:url(#SVGID_00000148658281585422424670000012109472418660610451_);fill:#FFFFFF;stroke:#FFFFFF;stroke-width:10;stroke-linecap:round;stroke-linejoin:round;stroke-miterlimit:10;}
	.st6{fill:#FFFFFF;stroke:#FFFFFF;stroke-width:3;stroke-miterlimit:10;}
	.st7{fill:#FFFFFF;stroke:#FFFFFF;stroke-width:10;stroke-linecap:round;stroke-linejoin:round;stroke-miterlimit:10;}
	.st8{fill:#FFFFFF;stroke:#FFFFFF;stroke-width:10;stroke-miterlimit:10;}
	.st9{fill:#FFFFFF;stroke:#FFFFFF;stroke-miterlimit:10;}
	.st10{fill:#FFFFFF;stroke:#FFFFFF;stroke-width:11;stroke-miterlimit:10;}
	.st11{fill:#FFFFFF;stroke:#FFFFFF;stroke-width:11;stroke-linecap:round;stroke-linejoin:round;stroke-miterlimit:10;}
	.st12{fill:none;stroke:#FFFFFF;stroke-width:13;stroke-miterlimit:10;}
	.st13{fill:none;stroke:#FFFFFF;stroke-width:27;stroke-miterlimit:10;}
	.st14{fill:none;stroke:#FFFFFF;stroke-width:20;stroke-miterlimit:10;}
	.st15{fill:none;stroke:#FFFFFF;stroke-width:9;stroke-miterlimit:10;}
	.st16{fill:none;stroke:#FFFFFF;stroke-width:33;stroke-miterlimit:10;}
</style>
<g id="Calque_1">
</g>
<g id="Calque_2">
	<g>
		<g id="_x3C_Répétition_miroir_x3E__00000103958803422069128820000011976654763305402503_">
			<g>
				<defs>
					<polygon id="SVGID_1_" points="1406.5,21 1406.5,21 1722.4,21 1722.4,160.3 1406.5,160.3 					"/>
				</defs>
				<clipPath id="SVGID_00000170972148505376054520000016346199803576713135_">
					<use xlink:href="#SVGID_1_"  style="overflow:visible;"/>
				</clipPath>
				<g style="clip-path:url(#SVGID_00000170972148505376054520000016346199803576713135_);">
					<g id="_x3C_Répétition_miroir_x3E__00000182494912476367369620000003037984164511810975_">
						<g>
							<defs>
								<rect id="SVGID_00000148628185006723839290000007840365954550453888_" x="1583.2" y="21" width="139.3" height="139.3"/>
							</defs>
							<clipPath id="SVGID_00000013182450295471696640000010214813209267688862_">
								<use xlink:href="#SVGID_00000148628185006723839290000007840365954550453888_"  style="overflow:visible;"/>
							</clipPath>
							
								<line style="clip-path:url(#SVGID_00000013182450295471696640000010214813209267688862_);fill:#FFFFFF;stroke:#FFFFFF;stroke-width:10;stroke-linecap:round;stroke-linejoin:round;stroke-miterlimit:10;" x1="1588.2" y1="155.3" x2="1717.4" y2="26"/>
						</g>
					</g>
					<g id="_x3C_Répétition_miroir_x3E__00000090263011301031719210000010794905063465639558_">
						<g>
							<defs>
								<rect id="SVGID_00000027587835654431584460000003349104605948272277_" x="1406.5" y="21" width="139.3" height="139.3"/>
							</defs>
							<clipPath id="SVGID_00000166657141086774992170000007844065521764373919_">
								<use xlink:href="#SVGID_00000027587835654431584460000003349104605948272277_"  style="overflow:visible;"/>
							</clipPath>
							
								<line style="clip-path:url(#SVGID_00000166657141086774992170000007844065521764373919_);fill:#FFFFFF;stroke:#FFFFFF;stroke-width:10;stroke-linecap:round;stroke-linejoin:round;stroke-miterlimit:10;" x1="1540.8" y1="155.3" x2="1411.5" y2="26"/>
						</g>
					</g>
				</g>
			</g>
		</g>
		<g id="_x3C_Répétition_miroir_x3E__00000167378329115074549550000004349824250836890514_">
			<g>
				<defs>
					<polygon id="SVGID_00000100364252025775399650000008424646870049664672_" points="1403.2,336.1 1403.2,336.1 1719.1,342.7 
						1722,203.5 1406.1,196.9 					"/>
				</defs>
				<clipPath id="SVGID_00000166650847723711124380000009395722857763523231_">
					<use xlink:href="#SVGID_00000100364252025775399650000008424646870049664672_"  style="overflow:visible;"/>
				</clipPath>
				<g style="clip-path:url(#SVGID_00000166650847723711124380000009395722857763523231_);">
					<g id="_x3C_Répétition_miroir_x3E__00000075863848228732045850000014838462909465380482_">
						<g>
							<defs>
								
									<rect id="SVGID_00000034792391256963197970000000472997209542908583_" x="1581.3" y="202" transform="matrix(2.079125e-02 -0.9998 0.9998 2.079125e-02 1345.0054 1916.5696)" width="139.3" height="139.3"/>
							</defs>
							<clipPath id="SVGID_00000172436905266362864890000007469250479693199293_">
								<use xlink:href="#SVGID_00000034792391256963197970000000472997209542908583_"  style="overflow:visible;"/>
							</clipPath>
							
								<line style="clip-path:url(#SVGID_00000172436905266362864890000007469250479693199293_);fill:#FFFFFF;stroke:#FFFFFF;stroke-width:10;stroke-linecap:round;stroke-linejoin:round;stroke-miterlimit:10;" x1="1587.7" y1="205.7" x2="1714.2" y2="337.6"/>
						</g>
					</g>
					<g id="_x3C_Répétition_miroir_x3E__00000163753755337524855590000016363760942219181961_">
						<g>
							<defs>
								
									<rect id="SVGID_00000150790614063893718490000013915897202556358533_" x="1404.7" y="198.4" transform="matrix(2.079125e-02 -0.9998 0.9998 2.079125e-02 1175.7096 1736.3698)" width="139.3" height="139.3"/>
							</defs>
							<clipPath id="SVGID_00000042731350407001486530000008313447538816232884_">
								<use xlink:href="#SVGID_00000150790614063893718490000013915897202556358533_"  style="overflow:visible;"/>
							</clipPath>
							
								<line style="clip-path:url(#SVGID_00000042731350407001486530000008313447538816232884_);fill:#FFFFFF;stroke:#FFFFFF;stroke-width:10;stroke-linecap:round;stroke-linejoin:round;stroke-miterlimit:10;" x1="1540.2" y1="204.7" x2="1408.3" y2="331.2"/>
						</g>
					</g>
				</g>
			</g>
		</g>
	</g>
	<g>
		<g>
			<g>
				<circle class="st6" cx="-2029.6" cy="269.2" r="52.3"/>
			</g>
			<g>
				<circle class="st6" cx="-2132" cy="172.4" r="52.3"/>
			</g>
			<g>
				<circle class="st6" cx="-2035.2" cy="70" r="52.3"/>
			</g>
			<g>
				<circle class="st6" cx="-1932.8" cy="166.8" r="52.3"/>
			</g>
		</g>
	</g>
	<g>
		<line class="st7" x1="1817.6" y1="188.8" x2="2208.6" y2="188.8"/>
		<line class="st7" x1="2013.1" y1="258.8" x2="2013.1" y2="118.8"/>
		<path class="st8" d="M2013.1,241.8L2013.1,241.8c0-29.3-23.7-53-53-53v0c29.3,0,53-23.7,53-53h0c0,29.3,23.7,53,53,53v0
			C2036.9,188.8,2013.1,212.6,2013.1,241.8z"/>
	</g>
	<g>
		<path class="st9" d="M2270.4,211.7c-12.6-52.6,228.7-80.4,228.4-79.6c0,0-157,24-152.3,65.1c8.1,71.4,282.7,51,282.7,51
			S2286.1,277.1,2270.4,211.7z"/>
		<path class="st9" d="M2654.1,151.3c12.7,52.6-228.6,80.6-228.4,79.7c0,0,156.9-24.1,152.2-65.2c-8.1-71.4-282.7-50.7-282.7-50.7
			S2638.4,85.9,2654.1,151.3z"/>
		<path class="st6" d="M2295.3,115"/>
	</g>
	<g>
		<circle class="st10" cx="1114.1" cy="180.4" r="33.6"/>
		<line class="st11" x1="1194" y1="261.1" x2="1033.8" y2="100.9"/>
		<line class="st11" x1="1035" y1="259.5" x2="1197.2" y2="101.2"/>
		<line class="st11" x1="942" y1="180.4" x2="1286.2" y2="180.4"/>
		<line class="st11" x1="1114.1" y1="0.3" x2="1114.1" y2="364.3"/>
	</g>
	<path class="st9" d="M-2931.6-9.2L-2931.6-9.2c0,99-80.3,179.2-179.2,179.2v0c99,0,179.2,80.3,179.2,179.2h0
		c0-99,80.3-179.2,179.2-179.2v0C-2851.4,170.1-2931.6,89.8-2931.6-9.2z"/>
	<path class="st9" d="M-2448.5,114c2.7,1.1,47-79.3-117.5-111.7c0,0,235.1-2.9,141,202.8c0,0,61.7,50,108.7-102.8
		c0,0-8.8,214.5-196.9,126.4c0,0-58.8,73.5,117.5,108.7c0,0-232.1,5.9-144-199.8c0,0-76.4-61.7-108.7,126.4
		C-2648.3,263.9-2663,28.8-2448.5,114z"/>
	<g>
		<circle class="st12" cx="-234.9" cy="172.8" r="87.6"/>
		<ellipse class="st12" cx="-236.1" cy="172.8" rx="144.8" ry="87.6"/>
		<ellipse class="st12" cx="-234.9" cy="172.8" rx="182.5" ry="87.6"/>
	</g>
	<g>
		<g>
			<circle class="st13" cx="215.1" cy="172.8" r="88.1"/>
			<ellipse class="st13" cx="213.9" cy="172.8" rx="145.6" ry="88.1"/>
			<ellipse class="st13" cx="215.1" cy="172.8" rx="183.5" ry="88.1"/>
		</g>
		<line class="st13" x1="215.1" y1="84.8" x2="215.1" y2="260.9"/>
		<line class="st13" x1="31.6" y1="172.8" x2="398.6" y2="172.8"/>
	</g>
	<g>
		<g>
			
				<ellipse transform="matrix(0.8449 -0.5348 0.5348 0.8449 -269.7126 -579.3712)" class="st12" cx="-1134.1" cy="175.5" rx="178.1" ry="64.6"/>
		</g>
		<g>
			
				<ellipse transform="matrix(0.9992 -4.071705e-02 4.071705e-02 0.9992 -7.8564 -46.0927)" class="st12" cx="-1135.5" cy="169.8" rx="64.6" ry="178.1"/>
		</g>
		<g>
			
				<ellipse transform="matrix(0.4643 -0.8857 0.8857 0.4643 -757.1315 -908.8458)" class="st12" cx="-1129.9" cy="171.5" rx="64.6" ry="178.1"/>
		</g>
	</g>
	<g>
		<g>
			
				<ellipse transform="matrix(0.8449 -0.5348 0.5348 0.8449 -338.4876 -826.8371)" class="st14" cx="-1595.3" cy="170.4" rx="61" ry="168.3"/>
		</g>
		<g>
			
				<ellipse transform="matrix(0.8449 -0.5348 0.5348 0.8449 -340.2501 -828.6205)" class="st14" cx="-1599.3" cy="172.5" rx="168.3" ry="61"/>
		</g>
	</g>
	<g>
		<g id="_x3C_Répétition_radiale_x3E__00000146501204432619323590000011289374397796926891_">
			
				<ellipse transform="matrix(0.8449 -0.5348 0.5348 0.8449 -200.1708 -339.3045)" class="st15" cx="-685.3" cy="175.6" rx="171.4" ry="62.1"/>
		</g>
		<g id="_x3C_Répétition_radiale_x3E__00000042736040807240479990000014234061787158213534_">
			
				<ellipse transform="matrix(0.6383 -0.7698 0.7698 0.6383 -381.5378 -466.8971)" class="st15" cx="-687.6" cy="172.6" rx="62.1" ry="171.4"/>
		</g>
		<g id="_x3C_Répétition_radiale_x3E__00000031169912632323816030000006873482479314993045_">
			
				<ellipse transform="matrix(0.3692 -0.9293 0.9293 0.3692 -589.8424 -530.1595)" class="st15" cx="-685.5" cy="169.4" rx="171.4" ry="62.1"/>
		</g>
		<g id="_x3C_Répétition_radiale_x3E__00000144323408764413583900000004355275328738903212_">
			
				<ellipse transform="matrix(6.394781e-02 -0.998 0.998 6.394781e-02 -808.3644 -520.8074)" class="st15" cx="-681.8" cy="170.5" rx="62.1" ry="171.4"/>
		</g>
		<g id="_x3C_Répétition_radiale_x3E__00000041262842312624314270000007382121516081281164_">
			
				<ellipse transform="matrix(0.9689 -0.2476 0.2476 0.9689 -64.3763 -163.3412)" class="st15" cx="-681.7" cy="174.3" rx="62.1" ry="171.4"/>
		</g>
	</g>
	<g>
		<circle class="st16" cx="662.8" cy="169.4" r="120.8"/>
		<ellipse class="st16" cx="664.6" cy="171.2" rx="194" ry="25.6"/>
	</g>
</g>
</svg>
