<?xml version="1.0" encoding="utf-8"?>
<!-- Generator: Adobe Illustrator 28.0.0, SVG Export Plug-In . SVG Version: 6.00 Build 0)  -->
<svg version="1.1" xmlns="http://www.w3.org/2000/svg" xmlns:xlink="http://www.w3.org/1999/xlink" x="0px" y="0px"
	 viewBox="0 0 429.5 429.5" style="enable-background:new 0 0 429.5 429.5;" xml:space="preserve">
<style type="text/css">
	.st0{clip-path:url(#SVGID_00000174578265684144501510000009965577446796482692_);}
	
		.st1{clip-path:url(#SVGID_00000142865685734197521210000012846245783236000155_);fill:#FFFFFF;stroke:#FFFFFF;stroke-width:13;stroke-linecap:round;stroke-linejoin:round;stroke-miterlimit:10;}
	
		.st2{clip-path:url(#SVGID_00000070120766717801770560000014073895207934914221_);fill:#FFFFFF;stroke:#FFFFFF;stroke-width:13;stroke-linecap:round;stroke-linejoin:round;stroke-miterlimit:10;}
	.st3{clip-path:url(#SVGID_00000010284469885071473440000001476985755082722216_);}
	
		.st4{clip-path:url(#SVGID_00000037668983192443972400000017943834720489505947_);fill:#FFFFFF;stroke:#FFFFFF;stroke-width:13;stroke-linecap:round;stroke-linejoin:round;stroke-miterlimit:10;}
	
		.st5{clip-path:url(#SVGID_00000060008999006333451350000017427254269624775296_);fill:#FFFFFF;stroke:#FFFFFF;stroke-width:13;stroke-linecap:round;stroke-linejoin:round;stroke-miterlimit:10;}
	.st6{fill:#FFFFFF;stroke:#FFFFFF;stroke-width:3;stroke-miterlimit:10;}
	.st7{fill:#FFFFFF;stroke:#FFFFFF;stroke-width:13;stroke-linecap:round;stroke-linejoin:round;stroke-miterlimit:10;}
	.st8{fill:#FFFFFF;stroke:#FFFFFF;stroke-width:13;stroke-miterlimit:10;}
	.st9{fill:#FFFFFF;stroke:#FFFFFF;stroke-miterlimit:10;}
	.st10{fill:#FFFFFF;stroke:#FFFFFF;stroke-width:11;stroke-miterlimit:10;}
	.st11{fill:#FFFFFF;stroke:#FFFFFF;stroke-width:11;stroke-linecap:round;stroke-linejoin:round;stroke-miterlimit:10;}
	.st12{fill:none;stroke:#FFFFFF;stroke-width:13;stroke-miterlimit:10;}
	.st13{fill:none;stroke:#FFFFFF;stroke-width:10;stroke-miterlimit:10;}
	.st14{fill:none;stroke:#FFFFFF;stroke-width:9;stroke-miterlimit:10;}
</style>
<g id="Calque_1">
</g>
<g id="Calque_2">
	<g>
		<g id="_x3C_Répétition_miroir_x3E__00000034809686533500974020000001104335877211877264_">
			<g>
				<defs>
					<polygon id="SVGID_1_" points="506,64.5 506,64.5 824.9,64.5 824.9,206.8 506,206.8 					"/>
				</defs>
				<clipPath id="SVGID_00000088816906344410358790000002887478280521354154_">
					<use xlink:href="#SVGID_1_"  style="overflow:visible;"/>
				</clipPath>
				<g style="clip-path:url(#SVGID_00000088816906344410358790000002887478280521354154_);">
					<g id="_x3C_Répétition_miroir_x3E__00000143597034589480048910000013530954959114909863_">
						<g>
							<defs>
								<rect id="SVGID_00000147901222700264330500000012058084225533099944_" x="682.7" y="64.5" width="142.3" height="142.3"/>
							</defs>
							<clipPath id="SVGID_00000004521935670477586350000016928911075835498393_">
								<use xlink:href="#SVGID_00000147901222700264330500000012058084225533099944_"  style="overflow:visible;"/>
							</clipPath>
							
								<line style="clip-path:url(#SVGID_00000004521935670477586350000016928911075835498393_);fill:#FFFFFF;stroke:#FFFFFF;stroke-width:13;stroke-linecap:round;stroke-linejoin:round;stroke-miterlimit:10;" x1="689.2" y1="200.3" x2="818.4" y2="71"/>
						</g>
					</g>
					<g id="_x3C_Répétition_miroir_x3E__00000035520420217618963200000016920632669504560031_">
						<g>
							<defs>
								<rect id="SVGID_00000158716107173564175380000000811896602629183393_" x="506" y="64.5" width="142.3" height="142.3"/>
							</defs>
							<clipPath id="SVGID_00000042001997783330613390000002423916610395538603_">
								<use xlink:href="#SVGID_00000158716107173564175380000000811896602629183393_"  style="overflow:visible;"/>
							</clipPath>
							
								<line style="clip-path:url(#SVGID_00000042001997783330613390000002423916610395538603_);fill:#FFFFFF;stroke:#FFFFFF;stroke-width:13;stroke-linecap:round;stroke-linejoin:round;stroke-miterlimit:10;" x1="641.7" y1="200.3" x2="512.5" y2="71"/>
						</g>
					</g>
				</g>
			</g>
		</g>
		<g id="_x3C_Répétition_miroir_x3E__00000114778795327091622350000002701618694236789128_">
			<g>
				<defs>
					<polygon id="SVGID_00000035494028630565693960000009821626311841954204_" points="502.7,382.6 502.7,382.6 821.6,389.2 
						824.5,247 505.6,240.4 					"/>
				</defs>
				<clipPath id="SVGID_00000079459901971567482090000008695326742912240808_">
					<use xlink:href="#SVGID_00000035494028630565693960000009821626311841954204_"  style="overflow:visible;"/>
				</clipPath>
				<g style="clip-path:url(#SVGID_00000079459901971567482090000008695326742912240808_);">
					<g id="_x3C_Répétition_miroir_x3E__00000067950905690715205470000001735873392283971477_">
						<g>
							<defs>
								
									<rect id="SVGID_00000137126215420529185480000009462731899112206514_" x="680.8" y="245.5" transform="matrix(2.079125e-02 -0.9998 0.9998 2.079125e-02 419.7031 1061.8248)" width="142.3" height="142.3"/>
							</defs>
							<clipPath id="SVGID_00000116205222649480918600000007992984421072745892_">
								<use xlink:href="#SVGID_00000137126215420529185480000009462731899112206514_"  style="overflow:visible;"/>
							</clipPath>
							
								<line style="clip-path:url(#SVGID_00000116205222649480918600000007992984421072745892_);fill:#FFFFFF;stroke:#FFFFFF;stroke-width:13;stroke-linecap:round;stroke-linejoin:round;stroke-miterlimit:10;" x1="688.6" y1="250.7" x2="815.2" y2="382.6"/>
						</g>
					</g>
					<g id="_x3C_Répétition_miroir_x3E__00000176740030252089570130000004069224452702288825_">
						<g>
							<defs>
								
									<rect id="SVGID_00000086684655490051216540000009264677988226519964_" x="504.2" y="241.9" transform="matrix(2.079125e-02 -0.9998 0.9998 2.079125e-02 250.4073 881.625)" width="142.3" height="142.3"/>
							</defs>
							<clipPath id="SVGID_00000107561081161715825490000004950434895917290673_">
								<use xlink:href="#SVGID_00000086684655490051216540000009264677988226519964_"  style="overflow:visible;"/>
							</clipPath>
							
								<line style="clip-path:url(#SVGID_00000107561081161715825490000004950434895917290673_);fill:#FFFFFF;stroke:#FFFFFF;stroke-width:13;stroke-linecap:round;stroke-linejoin:round;stroke-miterlimit:10;" x1="641.2" y1="249.7" x2="509.3" y2="376.2"/>
						</g>
					</g>
				</g>
			</g>
		</g>
	</g>
	<g>
		<g>
			<g>
				<circle class="st6" cx="-2928.6" cy="314.2" r="52.3"/>
			</g>
			<g>
				<circle class="st6" cx="-3031" cy="217.4" r="52.3"/>
			</g>
			<g>
				<circle class="st6" cx="-2934.2" cy="115" r="52.3"/>
			</g>
			<g>
				<circle class="st6" cx="-2831.8" cy="211.8" r="52.3"/>
			</g>
		</g>
	</g>
	<g>
		<line class="st7" x1="918.6" y1="233.8" x2="1309.6" y2="233.8"/>
		<line class="st7" x1="1114.1" y1="303.8" x2="1114.1" y2="163.8"/>
		<path class="st8" d="M1114.1,286.8L1114.1,286.8c0-29.3-23.7-53-53-53v0c29.3,0,53-23.7,53-53l0,0c0,29.3,23.7,53,53,53v0
			C1137.8,233.8,1114.1,257.6,1114.1,286.8z"/>
	</g>
	<g>
		<path class="st9" d="M1371.4,256.7c-12.6-52.6,228.7-80.4,228.4-79.6c0,0-157,24-152.3,65.1c8.1,71.4,282.7,51,282.7,51
			S1387.1,322.1,1371.4,256.7z"/>
		<path class="st9" d="M1755.1,196.3c12.7,52.6-228.6,80.6-228.4,79.7c0,0,156.9-24.1,152.2-65.2c-8.1-71.4-282.7-50.7-282.7-50.7
			S1739.4,130.9,1755.1,196.3z"/>
		<path class="st6" d="M1396.3,160"/>
	</g>
	<g>
		<circle class="st10" cx="215.1" cy="225.4" r="33.6"/>
		<line class="st11" x1="295" y1="306.1" x2="134.8" y2="145.9"/>
		<line class="st11" x1="136" y1="304.5" x2="298.2" y2="146.2"/>
		<line class="st11" x1="43" y1="225.4" x2="387.2" y2="225.4"/>
		<line class="st11" x1="215.1" y1="45.3" x2="215.1" y2="409.3"/>
	</g>
	<path class="st9" d="M-3830.6,35.8L-3830.6,35.8c0,99-80.3,179.2-179.2,179.2v0c99,0,179.2,80.3,179.2,179.2h0
		c0-99,80.3-179.2,179.2-179.2v0C-3750.4,215.1-3830.6,134.8-3830.6,35.8z"/>
	<path class="st9" d="M-3347.5,159c2.7,1.1,47-79.3-117.5-111.7c0,0,235.1-2.9,141,202.8c0,0,61.7,50,108.7-102.8
		c0,0-8.8,214.5-196.9,126.4c0,0-58.8,73.5,117.5,108.7c0,0-232.1,5.9-144-199.8c0,0-76.4-61.7-108.7,126.4
		C-3547.3,308.9-3562,73.8-3347.5,159z"/>
	<g>
		<circle class="st12" cx="-1133.9" cy="217.8" r="87.6"/>
		<ellipse class="st12" cx="-1135.1" cy="217.8" rx="144.8" ry="87.6"/>
		<ellipse class="st12" cx="-1133.9" cy="217.8" rx="182.5" ry="87.6"/>
	</g>
	<g>
		<g>
			<circle class="st13" cx="-683.9" cy="217.8" r="88.1"/>
			<ellipse class="st13" cx="-685.1" cy="217.8" rx="145.6" ry="88.1"/>
			<ellipse class="st13" cx="-683.9" cy="217.8" rx="183.5" ry="88.1"/>
		</g>
		<line class="st13" x1="-683.9" y1="129.8" x2="-683.9" y2="305.9"/>
		<line class="st13" x1="-867.4" y1="217.8" x2="-500.4" y2="217.8"/>
	</g>
	<g>
		<g>
			
				<ellipse transform="matrix(0.8449 -0.5348 0.5348 0.8449 -433.1724 -1053.2235)" class="st12" cx="-2033.1" cy="220.5" rx="178.1" ry="64.6"/>
		</g>
		<g>
			
				<ellipse transform="matrix(0.9992 -4.071705e-02 4.071705e-02 0.9992 -10.4342 -82.6602)" class="st12" cx="-2034.5" cy="214.8" rx="64.6" ry="178.1"/>
		</g>
		<g>
			
				<ellipse transform="matrix(0.4643 -0.8857 0.8857 0.4643 -1278.5616 -1680.9569)" class="st12" cx="-2028.9" cy="216.5" rx="64.6" ry="178.1"/>
		</g>
	</g>
	<g>
		<g>
			
				<ellipse transform="matrix(0.8449 -0.5348 0.5348 0.8449 -501.9474 -1300.6895)" class="st12" cx="-2494.3" cy="215.4" rx="61" ry="168.3"/>
		</g>
		<g>
			
				<ellipse transform="matrix(0.8449 -0.5348 0.5348 0.8449 -503.7099 -1302.4729)" class="st12" cx="-2498.3" cy="217.5" rx="168.3" ry="61"/>
		</g>
	</g>
	<g>
		<g id="_x3C_Répétition_radiale_x3E__00000106830965408698709860000011390801532743090307_">
			
				<ellipse transform="matrix(0.8449 -0.5348 0.5348 0.8449 -363.6306 -813.1569)" class="st14" cx="-1584.3" cy="220.6" rx="171.4" ry="62.1"/>
		</g>
		<g id="_x3C_Répétition_radiale_x3E__00000127040317928190174820000012390558567964769940_">
			
				<ellipse transform="matrix(0.6383 -0.7698 0.7698 0.6383 -741.3318 -1142.6504)" class="st14" cx="-1586.6" cy="217.6" rx="62.1" ry="171.4"/>
		</g>
		<g id="_x3C_Répétition_radiale_x3E__00000132078404725225678500000008794304262397519279_">
			
				<ellipse transform="matrix(0.3692 -0.9293 0.9293 0.3692 -1198.7522 -1337.2616)" class="st14" cx="-1584.5" cy="214.4" rx="171.4" ry="62.1"/>
		</g>
		<g id="_x3C_Répétition_radiale_x3E__00000162353388693768314690000003993322690505581757_">
			
				<ellipse transform="matrix(6.394781e-02 -0.998 0.998 6.394781e-02 -1694.7865 -1375.8485)" class="st14" cx="-1580.8" cy="215.5" rx="62.1" ry="171.4"/>
		</g>
		<g id="_x3C_Répétition_radiale_x3E__00000137828650530997183830000017249665004818088600_">
			
				<ellipse transform="matrix(0.9689 -0.2476 0.2476 0.9689 -103.502 -384.5035)" class="st14" cx="-1580.7" cy="219.3" rx="62.1" ry="171.4"/>
		</g>
	</g>
	<g>
		<circle class="st13" cx="-236.2" cy="214.4" r="120.8"/>
		<ellipse class="st13" cx="-234.4" cy="216.2" rx="194" ry="25.6"/>
	</g>
</g>
</svg>
