<?xml version="1.0" encoding="utf-8"?>
<!-- Generator: Adobe Illustrator 28.0.0, SVG Export Plug-In . SVG Version: 6.00 Build 0)  -->
<svg version="1.1" xmlns="http://www.w3.org/2000/svg" xmlns:xlink="http://www.w3.org/1999/xlink" x="0px" y="0px"
	 viewBox="0 0 429.5 429.5" style="enable-background:new 0 0 429.5 429.5;" xml:space="preserve">
<style type="text/css">
	.st0{clip-path:url(#SVGID_00000163783616152803643760000005231778356097852801_);}
	
		.st1{clip-path:url(#SVGID_00000106854822591941217120000014640672175657490097_);fill:#FFFFFF;stroke:#FFFFFF;stroke-width:13;stroke-linecap:round;stroke-linejoin:round;stroke-miterlimit:10;}
	
		.st2{clip-path:url(#SVGID_00000180344695852277883020000016748288181535975067_);fill:#FFFFFF;stroke:#FFFFFF;stroke-width:13;stroke-linecap:round;stroke-linejoin:round;stroke-miterlimit:10;}
	.st3{clip-path:url(#SVGID_00000062902543149376667120000009661577597997890947_);}
	
		.st4{clip-path:url(#SVGID_00000060711546432437302650000013963723522163149451_);fill:#FFFFFF;stroke:#FFFFFF;stroke-width:13;stroke-linecap:round;stroke-linejoin:round;stroke-miterlimit:10;}
	
		.st5{clip-path:url(#SVGID_00000002386493464455673880000015490134835010058158_);fill:#FFFFFF;stroke:#FFFFFF;stroke-width:13;stroke-linecap:round;stroke-linejoin:round;stroke-miterlimit:10;}
	.st6{fill:#FFFFFF;stroke:#FFFFFF;stroke-width:3;stroke-miterlimit:10;}
	.st7{fill:#FFFFFF;stroke:#FFFFFF;stroke-width:13;stroke-linecap:round;stroke-linejoin:round;stroke-miterlimit:10;}
	.st8{fill:#FFFFFF;stroke:#FFFFFF;stroke-width:13;stroke-miterlimit:10;}
	.st9{fill:#FFFFFF;stroke:#FFFFFF;stroke-miterlimit:10;}
	.st10{fill:none;stroke:#FFFFFF;stroke-width:13;stroke-miterlimit:10;}
</style>
<g id="Calque_1">
</g>
<g id="Calque_2">
	<g>
		<g id="_x3C_Répétition_miroir_x3E__00000152946739782501202480000009648279463167310778_">
			<g>
				<defs>
					<polygon id="SVGID_1_" points="2753.5,64.5 2753.5,64.5 3072.4,64.5 3072.4,206.8 2753.5,206.8 					"/>
				</defs>
				<clipPath id="SVGID_00000174593033513465025710000007118721885235097273_">
					<use xlink:href="#SVGID_1_"  style="overflow:visible;"/>
				</clipPath>
				<g style="clip-path:url(#SVGID_00000174593033513465025710000007118721885235097273_);">
					<g id="_x3C_Répétition_miroir_x3E__00000026122722198671748890000009223072695314910866_">
						<g>
							<defs>
								<rect id="SVGID_00000103975211185907086110000001025821120522373278_" x="2930.2" y="64.5" width="142.3" height="142.3"/>
							</defs>
							<clipPath id="SVGID_00000098923119641355544590000009448381685583048370_">
								<use xlink:href="#SVGID_00000103975211185907086110000001025821120522373278_"  style="overflow:visible;"/>
							</clipPath>
							
								<line style="clip-path:url(#SVGID_00000098923119641355544590000009448381685583048370_);fill:#FFFFFF;stroke:#FFFFFF;stroke-width:13;stroke-linecap:round;stroke-linejoin:round;stroke-miterlimit:10;" x1="2936.7" y1="200.3" x2="3065.9" y2="71"/>
						</g>
					</g>
					<g id="_x3C_Répétition_miroir_x3E__00000019653858874475061600000016114274699383066031_">
						<g>
							<defs>
								<rect id="SVGID_00000012439062048759998990000011485962014473724330_" x="2753.5" y="64.5" width="142.3" height="142.3"/>
							</defs>
							<clipPath id="SVGID_00000121987921476261608790000012420387191275103925_">
								<use xlink:href="#SVGID_00000012439062048759998990000011485962014473724330_"  style="overflow:visible;"/>
							</clipPath>
							
								<line style="clip-path:url(#SVGID_00000121987921476261608790000012420387191275103925_);fill:#FFFFFF;stroke:#FFFFFF;stroke-width:13;stroke-linecap:round;stroke-linejoin:round;stroke-miterlimit:10;" x1="2889.3" y1="200.3" x2="2760" y2="71"/>
						</g>
					</g>
				</g>
			</g>
		</g>
		<g id="_x3C_Répétition_miroir_x3E__00000075131068923673291150000010388686038268580286_">
			<g>
				<defs>
					<polygon id="SVGID_00000132063714643508289780000008353582815201732262_" points="2750.2,382.6 2750.2,382.6 3069.1,389.2 
						3072,247 2753.2,240.4 					"/>
				</defs>
				<clipPath id="SVGID_00000019643950083280965730000013299991759261670805_">
					<use xlink:href="#SVGID_00000132063714643508289780000008353582815201732262_"  style="overflow:visible;"/>
				</clipPath>
				<g style="clip-path:url(#SVGID_00000019643950083280965730000013299991759261670805_);">
					<g id="_x3C_Répétition_miroir_x3E__00000047033170523839753910000002000664754400503207_">
						<g>
							<defs>
								
									<rect id="SVGID_00000058564889201204176130000011300468481995613317_" x="2928.3" y="245.5" transform="matrix(2.079125e-02 -0.9998 0.9998 2.079125e-02 2620.4832 3308.8477)" width="142.3" height="142.3"/>
							</defs>
							<clipPath id="SVGID_00000049193898856815676660000014371609297496423559_">
								<use xlink:href="#SVGID_00000058564889201204176130000011300468481995613317_"  style="overflow:visible;"/>
							</clipPath>
							
								<line style="clip-path:url(#SVGID_00000049193898856815676660000014371609297496423559_);fill:#FFFFFF;stroke:#FFFFFF;stroke-width:13;stroke-linecap:round;stroke-linejoin:round;stroke-miterlimit:10;" x1="2936.2" y1="250.7" x2="3062.7" y2="382.6"/>
						</g>
					</g>
					<g id="_x3C_Répétition_miroir_x3E__00000133508669983416794550000007047742730906197892_">
						<g>
							<defs>
								
									<rect id="SVGID_00000169517984413581360080000015800696169315797677_" x="2751.7" y="241.9" transform="matrix(2.079125e-02 -0.9998 0.9998 2.079125e-02 2451.1875 3128.6479)" width="142.3" height="142.3"/>
							</defs>
							<clipPath id="SVGID_00000070106020939407102720000008875063165146143904_">
								<use xlink:href="#SVGID_00000169517984413581360080000015800696169315797677_"  style="overflow:visible;"/>
							</clipPath>
							
								<line style="clip-path:url(#SVGID_00000070106020939407102720000008875063165146143904_);fill:#FFFFFF;stroke:#FFFFFF;stroke-width:13;stroke-linecap:round;stroke-linejoin:round;stroke-miterlimit:10;" x1="2888.7" y1="249.7" x2="2756.8" y2="376.2"/>
						</g>
					</g>
				</g>
			</g>
		</g>
	</g>
	<g>
		<g>
			<g>
				<circle class="st6" cx="-681.1" cy="314.2" r="52.3"/>
			</g>
			<g>
				<circle class="st6" cx="-783.5" cy="217.4" r="52.3"/>
			</g>
			<g>
				<circle class="st6" cx="-686.7" cy="115" r="52.3"/>
			</g>
			<g>
				<circle class="st6" cx="-584.3" cy="211.8" r="52.3"/>
			</g>
		</g>
	</g>
	<g>
		<line class="st7" x1="3166.1" y1="233.8" x2="3557.1" y2="233.8"/>
		<line class="st7" x1="3361.6" y1="303.8" x2="3361.6" y2="163.8"/>
		<path class="st8" d="M3361.6,286.8L3361.6,286.8c0-29.3-23.7-53-53-53v0c29.3,0,53-23.7,53-53l0,0c0,29.3,23.7,53,53,53v0
			C3385.4,233.8,3361.6,257.6,3361.6,286.8z"/>
	</g>
	<g>
		<path class="st9" d="M3618.9,256.7c-12.6-52.6,228.7-80.4,228.4-79.6c0,0-157,24-152.3,65.1c8.1,71.4,282.7,51,282.7,51
			S3634.6,322.1,3618.9,256.7z"/>
		<path class="st9" d="M4002.6,196.3c12.7,52.6-228.6,80.6-228.4,79.7c0,0,156.9-24.1,152.2-65.2c-8.1-71.4-282.7-50.7-282.7-50.7
			S3986.9,130.9,4002.6,196.3z"/>
		<path class="st6" d="M3643.8,160"/>
	</g>
	<g>
		<circle class="st8" cx="2462.6" cy="225.4" r="33.6"/>
		<line class="st7" x1="2542.6" y1="306.1" x2="2382.3" y2="145.9"/>
		<line class="st7" x1="2383.5" y1="304.5" x2="2545.7" y2="146.2"/>
		<line class="st7" x1="2290.5" y1="225.4" x2="2634.7" y2="225.4"/>
		<line class="st7" x1="2462.6" y1="45.3" x2="2462.6" y2="409.3"/>
	</g>
	<path class="st9" d="M-1583.1,35.8L-1583.1,35.8c0,99-80.3,179.2-179.3,179.2v0c99,0,179.2,80.3,179.2,179.2h0
		c0-99,80.3-179.2,179.2-179.2v0C-1502.9,215.1-1583.1,134.8-1583.1,35.8z"/>
	<path class="st9" d="M-1100,159c2.7,1.1,47-79.3-117.5-111.7c0,0,235.1-2.9,141,202.8c0,0,61.7,50,108.7-102.8
		c0,0-8.8,214.5-196.9,126.4c0,0-58.8,73.5,117.5,108.7c0,0-232.1,5.9-144-199.8c0,0-76.4-61.7-108.7,126.4
		C-1299.8,308.9-1314.5,73.8-1100,159z"/>
	<g>
		<circle class="st10" cx="1113.6" cy="217.8" r="87.6"/>
		<ellipse class="st10" cx="1112.4" cy="217.8" rx="144.8" ry="87.6"/>
		<ellipse class="st10" cx="1113.6" cy="217.8" rx="182.5" ry="87.6"/>
	</g>
	<g>
		<g>
			<circle class="st10" cx="1563.6" cy="217.8" r="88.1"/>
			<ellipse class="st10" cx="1562.4" cy="217.8" rx="145.6" ry="88.1"/>
			<ellipse class="st10" cx="1563.6" cy="217.8" rx="183.5" ry="88.1"/>
		</g>
		<line class="st10" x1="1563.6" y1="129.8" x2="1563.6" y2="305.9"/>
		<line class="st10" x1="1380.1" y1="217.8" x2="1747.1" y2="217.8"/>
	</g>
	<g>
		<g>
			
				<ellipse transform="matrix(0.8449 -0.5348 0.5348 0.8449 -84.6932 148.8506)" class="st10" cx="214.4" cy="220.5" rx="178.1" ry="64.6"/>
		</g>
		<g>
			
				<ellipse transform="matrix(0.9992 -4.071705e-02 4.071705e-02 0.9992 -8.5704 8.8517)" class="st10" cx="213" cy="214.8" rx="64.6" ry="178.1"/>
		</g>
		<g>
			
				<ellipse transform="matrix(0.4643 -0.8857 0.8857 0.4643 -74.6238 309.5845)" class="st10" cx="218.6" cy="216.5" rx="64.6" ry="178.1"/>
		</g>
	</g>
	<g>
		<g>
			
				<ellipse transform="matrix(0.8449 -0.5348 0.5348 0.8449 -153.4683 -98.6153)" class="st10" cx="-246.8" cy="215.4" rx="61" ry="168.3"/>
		</g>
		<g>
			
				<ellipse transform="matrix(0.8449 -0.5348 0.5348 0.8449 -155.2307 -100.3988)" class="st10" cx="-250.8" cy="217.5" rx="168.3" ry="61"/>
		</g>
	</g>
	<g>
		<g>
			
				<ellipse transform="matrix(0.8449 -0.5348 0.5348 0.8449 -15.1515 388.9169)" class="st10" cx="663.2" cy="220.6" rx="171.4" ry="62.1"/>
		</g>
		<g>
			
				<ellipse transform="matrix(0.6383 -0.7698 0.7698 0.6383 71.553 587.4227)" class="st10" cx="660.9" cy="217.6" rx="62.1" ry="171.4"/>
		</g>
		<g>
			
				<ellipse transform="matrix(0.3692 -0.9293 0.9293 0.3692 218.971 751.4581)" class="st10" cx="663" cy="214.4" rx="171.4" ry="62.1"/>
		</g>
		<g>
			
				<ellipse transform="matrix(6.394779e-02 -0.998 0.998 6.394779e-02 408.9996 867.0613)" class="st10" cx="666.7" cy="215.5" rx="62.1" ry="171.4"/>
		</g>
		<g>
			
				<ellipse transform="matrix(0.9689 -0.2476 0.2476 0.9689 -33.5389 171.9042)" class="st10" cx="666.8" cy="219.3" rx="62.1" ry="171.4"/>
		</g>
	</g>
	<g>
		<circle class="st10" cx="2011.3" cy="214.4" r="120.8"/>
		<ellipse class="st10" cx="2013.1" cy="216.2" rx="194" ry="25.6"/>
	</g>
</g>
</svg>
