<?xml version="1.0" encoding="utf-8"?>
<!-- Generator: Adobe Illustrator 28.0.0, SVG Export Plug-In . SVG Version: 6.00 Build 0)  -->
<svg version="1.1" xmlns="http://www.w3.org/2000/svg" xmlns:xlink="http://www.w3.org/1999/xlink" x="0px" y="0px"
	 viewBox="0 0 429.5 429.5" style="enable-background:new 0 0 429.5 429.5;" xml:space="preserve">
<style type="text/css">
	.st0{clip-path:url(#SVGID_00000134952871688795304450000005357707892319838610_);}
	
		.st1{clip-path:url(#SVGID_00000037656194887982351150000011643633070994898051_);fill:#FFFFFF;stroke:#FFFFFF;stroke-width:13;stroke-linecap:round;stroke-linejoin:round;stroke-miterlimit:10;}
	
		.st2{clip-path:url(#SVGID_00000148621772367840451080000009625802292117122485_);fill:#FFFFFF;stroke:#FFFFFF;stroke-width:13;stroke-linecap:round;stroke-linejoin:round;stroke-miterlimit:10;}
	.st3{clip-path:url(#SVGID_00000178170780508430491820000011595824698956171958_);}
	
		.st4{clip-path:url(#SVGID_00000065043385879089804860000016148638598333263032_);fill:#FFFFFF;stroke:#FFFFFF;stroke-width:13;stroke-linecap:round;stroke-linejoin:round;stroke-miterlimit:10;}
	
		.st5{clip-path:url(#SVGID_00000104696322822213282840000009184961482640514721_);fill:#FFFFFF;stroke:#FFFFFF;stroke-width:13;stroke-linecap:round;stroke-linejoin:round;stroke-miterlimit:10;}
	.st6{fill:#FFFFFF;stroke:#FFFFFF;stroke-width:3;stroke-miterlimit:10;}
	.st7{fill:#FFFFFF;stroke:#FFFFFF;stroke-width:13;stroke-linecap:round;stroke-linejoin:round;stroke-miterlimit:10;}
	.st8{fill:#FFFFFF;stroke:#FFFFFF;stroke-width:13;stroke-miterlimit:10;}
	.st9{fill:#FFFFFF;stroke:#FFFFFF;stroke-miterlimit:10;}
	.st10{fill:none;stroke:#FFFFFF;stroke-width:13;stroke-miterlimit:10;}
</style>
<g id="Calque_1">
</g>
<g id="Calque_2">
	<g>
		<g id="_x3C_Répétition_miroir_x3E__00000172406449631544455030000011369051359271388829_">
			<g>
				<defs>
					<polygon id="SVGID_1_" points="4102,64.5 4102,64.5 4420.9,64.5 4420.9,206.8 4102,206.8 					"/>
				</defs>
				<clipPath id="SVGID_00000107581936385672867270000009597809662001380485_">
					<use xlink:href="#SVGID_1_"  style="overflow:visible;"/>
				</clipPath>
				<g style="clip-path:url(#SVGID_00000107581936385672867270000009597809662001380485_);">
					<g id="_x3C_Répétition_miroir_x3E__00000161602591531469560950000018175230035451388848_">
						<g>
							<defs>
								<rect id="SVGID_00000090280683216359521230000014707956961524634813_" x="4278.7" y="64.5" width="142.3" height="142.3"/>
							</defs>
							<clipPath id="SVGID_00000101088381116842545650000016452259567254871214_">
								<use xlink:href="#SVGID_00000090280683216359521230000014707956961524634813_"  style="overflow:visible;"/>
							</clipPath>
							
								<line style="clip-path:url(#SVGID_00000101088381116842545650000016452259567254871214_);fill:#FFFFFF;stroke:#FFFFFF;stroke-width:13;stroke-linecap:round;stroke-linejoin:round;stroke-miterlimit:10;" x1="4285.2" y1="200.3" x2="4414.4" y2="71"/>
						</g>
					</g>
					<g id="_x3C_Répétition_miroir_x3E__00000132801243908527730050000007224940571945506957_">
						<g>
							<defs>
								<rect id="SVGID_00000076588995504168675650000016186694501559021460_" x="4102" y="64.5" width="142.3" height="142.3"/>
							</defs>
							<clipPath id="SVGID_00000042003886031955235090000006494319477244421565_">
								<use xlink:href="#SVGID_00000076588995504168675650000016186694501559021460_"  style="overflow:visible;"/>
							</clipPath>
							
								<line style="clip-path:url(#SVGID_00000042003886031955235090000006494319477244421565_);fill:#FFFFFF;stroke:#FFFFFF;stroke-width:13;stroke-linecap:round;stroke-linejoin:round;stroke-miterlimit:10;" x1="4237.8" y1="200.3" x2="4108.5" y2="71"/>
						</g>
					</g>
				</g>
			</g>
		</g>
		<g id="_x3C_Répétition_miroir_x3E__00000109714148715027533890000014007084745181464195_">
			<g>
				<defs>
					<polygon id="SVGID_00000047020436584478947050000000880415270011307427_" points="4098.7,382.6 4098.7,382.6 4417.6,389.2 
						4420.5,247 4101.7,240.4 					"/>
				</defs>
				<clipPath id="SVGID_00000031205557666168947540000009827572085927579294_">
					<use xlink:href="#SVGID_00000047020436584478947050000000880415270011307427_"  style="overflow:visible;"/>
				</clipPath>
				<g style="clip-path:url(#SVGID_00000031205557666168947540000009827572085927579294_);">
					<g id="_x3C_Répétition_miroir_x3E__00000111887181837601996050000008604701003998363536_">
						<g>
							<defs>
								
									<rect id="SVGID_00000119797164889442613630000017643030614043565241_" x="4276.8" y="245.5" transform="matrix(2.079125e-02 -0.9998 0.9998 2.079125e-02 3940.9512 4657.0615)" width="142.3" height="142.3"/>
							</defs>
							<clipPath id="SVGID_00000030477321665464675840000000851775136845747614_">
								<use xlink:href="#SVGID_00000119797164889442613630000017643030614043565241_"  style="overflow:visible;"/>
							</clipPath>
							
								<line style="clip-path:url(#SVGID_00000030477321665464675840000000851775136845747614_);fill:#FFFFFF;stroke:#FFFFFF;stroke-width:13;stroke-linecap:round;stroke-linejoin:round;stroke-miterlimit:10;" x1="4284.7" y1="250.7" x2="4411.2" y2="382.6"/>
						</g>
					</g>
					<g id="_x3C_Répétition_miroir_x3E__00000115480313473959104610000015903549044412242344_">
						<g>
							<defs>
								
									<rect id="SVGID_00000061468091648507779580000010738267671040770951_" x="4100.2" y="241.9" transform="matrix(2.079125e-02 -0.9998 0.9998 2.079125e-02 3771.6555 4476.8613)" width="142.3" height="142.3"/>
							</defs>
							<clipPath id="SVGID_00000088117182901320252420000015026052728626047898_">
								<use xlink:href="#SVGID_00000061468091648507779580000010738267671040770951_"  style="overflow:visible;"/>
							</clipPath>
							
								<line style="clip-path:url(#SVGID_00000088117182901320252420000015026052728626047898_);fill:#FFFFFF;stroke:#FFFFFF;stroke-width:13;stroke-linecap:round;stroke-linejoin:round;stroke-miterlimit:10;" x1="4237.2" y1="249.7" x2="4105.3" y2="376.2"/>
						</g>
					</g>
				</g>
			</g>
		</g>
	</g>
	<g>
		<g>
			<g>
				<circle class="st6" cx="667.4" cy="314.2" r="52.3"/>
			</g>
			<g>
				<circle class="st6" cx="565" cy="217.4" r="52.3"/>
			</g>
			<g>
				<circle class="st6" cx="661.8" cy="115" r="52.3"/>
			</g>
			<g>
				<circle class="st6" cx="764.2" cy="211.8" r="52.3"/>
			</g>
		</g>
	</g>
	<g>
		<line class="st7" x1="4514.6" y1="233.8" x2="4905.6" y2="233.8"/>
		<line class="st7" x1="4710.1" y1="303.8" x2="4710.1" y2="163.8"/>
		<path class="st8" d="M4710.1,286.8L4710.1,286.8c0-29.3-23.7-53-53-53v0c29.3,0,53-23.7,53-53h0c0,29.3,23.7,53,53,53v0
			C4733.9,233.8,4710.1,257.6,4710.1,286.8z"/>
	</g>
	<g>
		<path class="st9" d="M4967.4,256.7c-12.6-52.6,228.7-80.4,228.4-79.6c0,0-157,24-152.3,65.1c8.1,71.4,282.7,51,282.7,51
			S4983.1,322.1,4967.4,256.7z"/>
		<path class="st9" d="M5351.1,196.3c12.7,52.6-228.6,80.6-228.4,79.7c0,0,156.9-24.1,152.2-65.2c-8.1-71.4-282.7-50.7-282.7-50.7
			S5335.4,130.9,5351.1,196.3z"/>
		<path class="st6" d="M4992.3,160"/>
	</g>
	<g>
		<circle class="st8" cx="3811.1" cy="225.4" r="33.6"/>
		<line class="st7" x1="3891.1" y1="306.1" x2="3730.8" y2="145.9"/>
		<line class="st7" x1="3732" y1="304.5" x2="3894.2" y2="146.2"/>
		<line class="st7" x1="3639" y1="225.4" x2="3983.2" y2="225.4"/>
		<line class="st7" x1="3811.1" y1="45.3" x2="3811.1" y2="409.3"/>
	</g>
	<path class="st9" d="M-234.6,35.8L-234.6,35.8c0,99-80.3,179.2-179.3,179.2v0c99,0,179.2,80.3,179.2,179.2h0
		c0-99,80.3-179.2,179.2-179.2v0C-154.4,215.1-234.6,134.8-234.6,35.8z"/>
	<path class="st9" d="M248.5,159c2.7,1.1,47-79.3-117.5-111.7c0,0,235.1-2.9,141,202.8c0,0,61.7,50,108.7-102.8
		c0,0-8.8,214.5-196.9,126.4c0,0-58.8,73.5,117.5,108.7c0,0-232.1,5.9-144-199.8c0,0-76.4-61.7-108.7,126.4
		C48.7,308.9,34,73.8,248.5,159z"/>
	<g>
		<circle class="st10" cx="2462.1" cy="217.8" r="87.6"/>
		<ellipse class="st10" cx="2460.9" cy="217.8" rx="144.8" ry="87.6"/>
		<ellipse class="st10" cx="2462.1" cy="217.8" rx="182.5" ry="87.6"/>
	</g>
	<g>
		<g>
			<circle class="st10" cx="2912.1" cy="217.8" r="88.1"/>
			<ellipse class="st10" cx="2910.9" cy="217.8" rx="145.6" ry="88.1"/>
			<ellipse class="st10" cx="2912.1" cy="217.8" rx="183.5" ry="88.1"/>
		</g>
		<line class="st10" x1="2912.1" y1="129.8" x2="2912.1" y2="305.9"/>
		<line class="st10" x1="2728.6" y1="217.8" x2="3095.6" y2="217.8"/>
	</g>
	<g>
		<g>
			
				<ellipse transform="matrix(0.8449 -0.5348 0.5348 0.8449 124.3943 870.095)" class="st10" cx="1562.9" cy="220.5" rx="178.1" ry="64.6"/>
		</g>
		<g>
			
				<ellipse transform="matrix(0.9992 -4.071705e-02 4.071705e-02 0.9992 -7.4521 63.7589)" class="st10" cx="1561.5" cy="214.8" rx="64.6" ry="178.1"/>
		</g>
		<g>
			
				<ellipse transform="matrix(0.4643 -0.8857 0.8857 0.4643 647.7389 1503.9093)" class="st10" cx="1567.1" cy="216.5" rx="64.6" ry="178.1"/>
		</g>
	</g>
	<g>
		<g>
			
				<ellipse transform="matrix(0.8449 -0.5348 0.5348 0.8449 55.6192 622.6291)" class="st10" cx="1101.7" cy="215.4" rx="61" ry="168.3"/>
		</g>
		<g>
			
				<ellipse transform="matrix(0.8449 -0.5348 0.5348 0.8449 53.8568 620.8456)" class="st10" cx="1097.7" cy="217.5" rx="168.3" ry="61"/>
		</g>
	</g>
	<g>
		<g>
			
				<ellipse transform="matrix(0.8449 -0.5348 0.5348 0.8449 193.936 1110.1614)" class="st10" cx="2011.7" cy="220.6" rx="171.4" ry="62.1"/>
		</g>
		<g>
			
				<ellipse transform="matrix(0.6383 -0.7698 0.7698 0.6383 559.2843 1625.4663)" class="st10" cx="2009.4" cy="217.6" rx="62.1" ry="171.4"/>
		</g>
		<g>
			
				<ellipse transform="matrix(0.3692 -0.9293 0.9293 0.3692 1069.6047 2004.6901)" class="st10" cx="2011.5" cy="214.4" rx="171.4" ry="62.1"/>
		</g>
		<g>
			
				<ellipse transform="matrix(6.394779e-02 -0.998 0.998 6.394779e-02 1671.2709 2212.8064)" class="st10" cx="2015.2" cy="215.5" rx="62.1" ry="171.4"/>
		</g>
		<g>
			
				<ellipse transform="matrix(0.9689 -0.2476 0.2476 0.9689 8.4389 505.7489)" class="st10" cx="2015.3" cy="219.3" rx="62.1" ry="171.4"/>
		</g>
	</g>
	<g>
		<circle class="st10" cx="3359.8" cy="214.4" r="120.8"/>
		<ellipse class="st10" cx="3361.6" cy="216.2" rx="194" ry="25.6"/>
	</g>
</g>
</svg>
