<?xml version="1.0" encoding="utf-8"?>
<!-- Generator: Adobe Illustrator 28.0.0, SVG Export Plug-In . SVG Version: 6.00 Build 0)  -->
<svg version="1.1" xmlns="http://www.w3.org/2000/svg" xmlns:xlink="http://www.w3.org/1999/xlink" x="0px" y="0px"
	 viewBox="0 0 429.5 384.5" style="enable-background:new 0 0 429.5 384.5;" xml:space="preserve">
<style type="text/css">
	.st0{clip-path:url(#SVGID_00000006687557322606072560000010465201663437312130_);}
	
		.st1{clip-path:url(#SVGID_00000013883047526325096970000018424677413984997033_);fill:#FFFFFF;stroke:#FFFFFF;stroke-width:38;stroke-linecap:round;stroke-linejoin:round;stroke-miterlimit:10;}
	
		.st2{clip-path:url(#SVGID_00000053543014511768274550000008951046334458884266_);fill:#FFFFFF;stroke:#FFFFFF;stroke-width:38;stroke-linecap:round;stroke-linejoin:round;stroke-miterlimit:10;}
	.st3{clip-path:url(#SVGID_00000130643475144774491250000001892421042115012790_);}
	
		.st4{clip-path:url(#SVGID_00000023966838447968925520000007924685784051929234_);fill:#FFFFFF;stroke:#FFFFFF;stroke-width:38;stroke-linecap:round;stroke-linejoin:round;stroke-miterlimit:10;}
	
		.st5{clip-path:url(#SVGID_00000023271256852371169720000009134128157892759212_);fill:#FFFFFF;stroke:#FFFFFF;stroke-width:38;stroke-linecap:round;stroke-linejoin:round;stroke-miterlimit:10;}
	.st6{fill:#FFFFFF;stroke:#FFFFFF;stroke-width:3;stroke-miterlimit:10;}
	.st7{fill:#FFFFFF;stroke:#FFFFFF;stroke-width:10;stroke-linecap:round;stroke-linejoin:round;stroke-miterlimit:10;}
	.st8{fill:#FFFFFF;stroke:#FFFFFF;stroke-width:10;stroke-miterlimit:10;}
	.st9{fill:#FFFFFF;stroke:#FFFFFF;stroke-miterlimit:10;}
	.st10{fill:#FFFFFF;stroke:#FFFFFF;stroke-width:11;stroke-miterlimit:10;}
	.st11{fill:#FFFFFF;stroke:#FFFFFF;stroke-width:11;stroke-linecap:round;stroke-linejoin:round;stroke-miterlimit:10;}
	.st12{fill:none;stroke:#FFFFFF;stroke-width:13;stroke-miterlimit:10;}
	.st13{fill:none;stroke:#FFFFFF;stroke-width:27;stroke-miterlimit:10;}
	.st14{fill:none;stroke:#FFFFFF;stroke-width:20;stroke-miterlimit:10;}
	.st15{fill:none;stroke:#FFFFFF;stroke-width:9;stroke-miterlimit:10;}
	.st16{fill:none;stroke:#FFFFFF;stroke-width:33;stroke-miterlimit:10;}
</style>
<g id="Calque_1">
</g>
<g id="Calque_2">
	<g>
		<g id="_x3C_Répétition_miroir_x3E__00000134236351993440663820000002361214537372784048_">
			<g>
				<defs>
					<polygon id="SVGID_1_" points="74.3,24.5 74.3,24.5 358.9,24.5 358.9,148.3 74.3,148.3 					"/>
				</defs>
				<clipPath id="SVGID_00000178883016237606441120000012126700690876333495_">
					<use xlink:href="#SVGID_1_"  style="overflow:visible;"/>
				</clipPath>
				<g style="clip-path:url(#SVGID_00000178883016237606441120000012126700690876333495_);">
					<g id="_x3C_Répétition_miroir_x3E__00000083777990442777297460000014000388829584509076_">
						<g>
							<defs>
								<rect id="SVGID_00000108281884798508326760000013896378831497581219_" x="235.1" y="24.5" width="123.8" height="123.8"/>
							</defs>
							<clipPath id="SVGID_00000129892561799215116340000013402511007993922442_">
								<use xlink:href="#SVGID_00000108281884798508326760000013896378831497581219_"  style="overflow:visible;"/>
							</clipPath>
							
								<line style="clip-path:url(#SVGID_00000129892561799215116340000013402511007993922442_);fill:#FFFFFF;stroke:#FFFFFF;stroke-width:38;stroke-linecap:round;stroke-linejoin:round;stroke-miterlimit:10;" x1="254.1" y1="129.3" x2="339.9" y2="43.5"/>
						</g>
					</g>
					<g id="_x3C_Répétition_miroir_x3E__00000160879012066658270530000015352763760486834341_">
						<g>
							<defs>
								<rect id="SVGID_00000088853491111196327930000011386270700981442494_" x="74.3" y="24.5" width="123.8" height="123.8"/>
							</defs>
							<clipPath id="SVGID_00000039093755215578821190000002170903112677559202_">
								<use xlink:href="#SVGID_00000088853491111196327930000011386270700981442494_"  style="overflow:visible;"/>
							</clipPath>
							
								<line style="clip-path:url(#SVGID_00000039093755215578821190000002170903112677559202_);fill:#FFFFFF;stroke:#FFFFFF;stroke-width:38;stroke-linecap:round;stroke-linejoin:round;stroke-miterlimit:10;" x1="179.1" y1="129.3" x2="93.3" y2="43.5"/>
						</g>
					</g>
				</g>
			</g>
		</g>
		<g id="_x3C_Répétition_miroir_x3E__00000180368639274732166070000002050050903100786597_">
			<g>
				<defs>
					<polygon id="SVGID_00000005970393827342264220000010276653184137530043_" points="71.4,308.1 71.4,308.1 355.9,314.1 
						358.5,190.3 73.9,184.3 					"/>
				</defs>
				<clipPath id="SVGID_00000093897701110358782390000007950997411635859591_">
					<use xlink:href="#SVGID_00000005970393827342264220000010276653184137530043_"  style="overflow:visible;"/>
				</clipPath>
				<g style="clip-path:url(#SVGID_00000093897701110358782390000007950997411635859591_);">
					<g id="_x3C_Répétition_miroir_x3E__00000132089015673079537660000018245677319878254242_">
						<g>
							<defs>
								
									<rect id="SVGID_00000172429641230699273250000016743394947396343689_" x="233.4" y="189" transform="matrix(2.079125e-02 -0.9998 0.9998 2.079125e-02 38.3459 540.903)" width="123.8" height="123.8"/>
							</defs>
							<clipPath id="SVGID_00000093170648581122834120000002930357318737819327_">
								<use xlink:href="#SVGID_00000172429641230699273250000016743394947396343689_"  style="overflow:visible;"/>
							</clipPath>
							
								<line style="clip-path:url(#SVGID_00000093170648581122834120000002930357318737819327_);fill:#FFFFFF;stroke:#FFFFFF;stroke-width:38;stroke-linecap:round;stroke-linejoin:round;stroke-miterlimit:10;" x1="253.3" y1="207.1" x2="337.3" y2="294.7"/>
						</g>
					</g>
					<g id="_x3C_Répétition_miroir_x3E__00000016754021764169898420000005275298759747529386_">
						<g>
							<defs>
								
									<rect id="SVGID_00000153680496059852228800000002577166129784944269_" x="72.6" y="185.6" transform="matrix(2.079125e-02 -0.9998 0.9998 2.079125e-02 -115.7246 376.9091)" width="123.8" height="123.8"/>
							</defs>
							<clipPath id="SVGID_00000096765859250632209010000001702974837433085335_">
								<use xlink:href="#SVGID_00000153680496059852228800000002577166129784944269_"  style="overflow:visible;"/>
							</clipPath>
							
								<line style="clip-path:url(#SVGID_00000096765859250632209010000001702974837433085335_);fill:#FFFFFF;stroke:#FFFFFF;stroke-width:38;stroke-linecap:round;stroke-linejoin:round;stroke-miterlimit:10;" x1="178.4" y1="205.5" x2="90.8" y2="289.5"/>
						</g>
					</g>
				</g>
			</g>
		</g>
	</g>
	<g>
		<g>
			<g>
				<circle class="st6" cx="-3378.1" cy="269.2" r="52.3"/>
			</g>
			<g>
				<circle class="st6" cx="-3480.5" cy="172.4" r="52.3"/>
			</g>
			<g>
				<circle class="st6" cx="-3383.7" cy="70" r="52.3"/>
			</g>
			<g>
				<circle class="st6" cx="-3281.3" cy="166.8" r="52.3"/>
			</g>
		</g>
	</g>
	<g>
		<line class="st7" x1="469.1" y1="188.8" x2="860.1" y2="188.8"/>
		<line class="st7" x1="664.6" y1="258.8" x2="664.6" y2="118.8"/>
		<path class="st8" d="M664.6,241.8L664.6,241.8c0-29.3-23.7-53-53-53v0c29.3,0,53-23.7,53-53h0c0,29.3,23.7,53,53,53v0
			C688.3,188.8,664.6,212.6,664.6,241.8z"/>
	</g>
	<g>
		<path class="st9" d="M921.9,211.7c-12.6-52.6,228.7-80.4,228.4-79.6c0,0-157,24-152.3,65.1c8.1,71.4,282.7,51,282.7,51
			S937.6,277.1,921.9,211.7z"/>
		<path class="st9" d="M1305.6,151.3c12.7,52.6-228.6,80.6-228.4,79.7c0,0,156.9-24.1,152.2-65.2c-8.1-71.4-282.7-50.7-282.7-50.7
			S1289.9,85.9,1305.6,151.3z"/>
		<path class="st6" d="M946.8,115"/>
	</g>
	<g>
		<circle class="st10" cx="-234.4" cy="180.4" r="33.6"/>
		<line class="st11" x1="-154.5" y1="261.1" x2="-314.7" y2="100.9"/>
		<line class="st11" x1="-313.5" y1="259.5" x2="-151.3" y2="101.2"/>
		<line class="st11" x1="-406.5" y1="180.4" x2="-62.3" y2="180.4"/>
		<line class="st11" x1="-234.4" y1="0.3" x2="-234.4" y2="364.3"/>
	</g>
	<path class="st9" d="M-4280.1-9.2L-4280.1-9.2c0,99-80.3,179.2-179.2,179.2v0c99,0,179.2,80.3,179.2,179.2h0
		c0-99,80.3-179.2,179.2-179.2v0C-4199.9,170.1-4280.1,89.8-4280.1-9.2z"/>
	<path class="st9" d="M-3797,114c2.7,1.1,47-79.3-117.5-111.7c0,0,235.1-2.9,141,202.8c0,0,61.7,50,108.7-102.8
		c0,0-8.8,214.5-196.9,126.4c0,0-58.8,73.5,117.5,108.7c0,0-232.1,5.9-144-199.8c0,0-76.4-61.7-108.7,126.4
		C-3996.8,263.9-4011.5,28.8-3797,114z"/>
	<g>
		<circle class="st12" cx="-1583.4" cy="172.8" r="87.6"/>
		<ellipse class="st12" cx="-1584.6" cy="172.8" rx="144.8" ry="87.6"/>
		<ellipse class="st12" cx="-1583.4" cy="172.8" rx="182.5" ry="87.6"/>
	</g>
	<g>
		<g>
			<circle class="st13" cx="-1133.4" cy="172.8" r="88.1"/>
			<ellipse class="st13" cx="-1134.6" cy="172.8" rx="145.6" ry="88.1"/>
			<ellipse class="st13" cx="-1133.4" cy="172.8" rx="183.5" ry="88.1"/>
		</g>
		<line class="st13" x1="-1133.4" y1="84.8" x2="-1133.4" y2="260.9"/>
		<line class="st13" x1="-1316.9" y1="172.8" x2="-949.9" y2="172.8"/>
	</g>
	<g>
		<g>
			
				<ellipse transform="matrix(0.8449 -0.5348 0.5348 0.8449 -478.8 -1300.6156)" class="st12" cx="-2482.6" cy="175.5" rx="178.1" ry="64.6"/>
		</g>
		<g>
			
				<ellipse transform="matrix(0.9992 -4.071705e-02 4.071705e-02 0.9992 -8.9747 -100.9999)" class="st12" cx="-2484" cy="169.8" rx="64.6" ry="178.1"/>
		</g>
		<g>
			
				<ellipse transform="matrix(0.4643 -0.8857 0.8857 0.4643 -1479.4943 -2103.1707)" class="st12" cx="-2478.4" cy="171.5" rx="64.6" ry="178.1"/>
		</g>
	</g>
	<g>
		<g>
			
				<ellipse transform="matrix(0.8449 -0.5348 0.5348 0.8449 -547.5751 -1548.0815)" class="st14" cx="-2943.8" cy="170.4" rx="61" ry="168.3"/>
		</g>
		<g>
			
				<ellipse transform="matrix(0.8449 -0.5348 0.5348 0.8449 -549.3376 -1549.865)" class="st14" cx="-2947.8" cy="172.5" rx="168.3" ry="61"/>
		</g>
	</g>
	<g>
		<g id="_x3C_Répétition_radiale_x3E__00000060753279012249064290000002043807236690839695_">
			
				<ellipse transform="matrix(0.8449 -0.5348 0.5348 0.8449 -409.2583 -1060.549)" class="st15" cx="-2033.8" cy="175.6" rx="171.4" ry="62.1"/>
		</g>
		<g id="_x3C_Répétition_radiale_x3E__00000057139779731021191670000003069450462492550282_">
			
				<ellipse transform="matrix(0.6383 -0.7698 0.7698 0.6383 -869.2692 -1504.9407)" class="st15" cx="-2036.1" cy="172.6" rx="62.1" ry="171.4"/>
		</g>
		<g id="_x3C_Répétition_radiale_x3E__00000132800066853263356630000007389946120110692258_">
			
				<ellipse transform="matrix(0.3692 -0.9293 0.9293 0.3692 -1440.4761 -1783.3914)" class="st15" cx="-2034" cy="169.4" rx="171.4" ry="62.1"/>
		</g>
		<g id="_x3C_Répétition_radiale_x3E__00000010269664786766665510000007889269834618152346_">
			
				<ellipse transform="matrix(6.394781e-02 -0.998 0.998 6.394781e-02 -2070.6357 -1866.5526)" class="st15" cx="-2030.3" cy="170.5" rx="62.1" ry="171.4"/>
		</g>
		<g id="_x3C_Répétition_radiale_x3E__00000130635859136748239950000017616782284260179588_">
			
				<ellipse transform="matrix(0.9689 -0.2476 0.2476 0.9689 -106.3541 -497.1859)" class="st15" cx="-2030.2" cy="174.3" rx="62.1" ry="171.4"/>
		</g>
	</g>
	<g>
		<circle class="st16" cx="-685.7" cy="169.4" r="120.8"/>
		<ellipse class="st16" cx="-683.9" cy="171.2" rx="194" ry="25.6"/>
	</g>
</g>
</svg>
