<?xml version="1.0" encoding="utf-8"?>
<!-- Generator: Adobe Illustrator 28.0.0, SVG Export Plug-In . SVG Version: 6.00 Build 0)  -->
<svg version="1.1" xmlns="http://www.w3.org/2000/svg" xmlns:xlink="http://www.w3.org/1999/xlink" x="0px" y="0px"
	 viewBox="0 0 429.5 429.5" style="enable-background:new 0 0 429.5 429.5;" xml:space="preserve">
<style type="text/css">
	.st0{clip-path:url(#SVGID_00000145764115053162098090000005565114324996380812_);}
	
		.st1{clip-path:url(#SVGID_00000056424154268993698250000017992940738250236347_);fill:#FFFFFF;stroke:#FFFFFF;stroke-width:13;stroke-linecap:round;stroke-linejoin:round;stroke-miterlimit:10;}
	
		.st2{clip-path:url(#SVGID_00000005239239802072184820000007018192689057765531_);fill:#FFFFFF;stroke:#FFFFFF;stroke-width:13;stroke-linecap:round;stroke-linejoin:round;stroke-miterlimit:10;}
	.st3{clip-path:url(#SVGID_00000002360716692536679270000002791660280744004494_);}
	
		.st4{clip-path:url(#SVGID_00000087406499358654316330000004456756883157979832_);fill:#FFFFFF;stroke:#FFFFFF;stroke-width:13;stroke-linecap:round;stroke-linejoin:round;stroke-miterlimit:10;}
	
		.st5{clip-path:url(#SVGID_00000120557517424275332040000001822004527670856094_);fill:#FFFFFF;stroke:#FFFFFF;stroke-width:13;stroke-linecap:round;stroke-linejoin:round;stroke-miterlimit:10;}
	.st6{fill:#FFFFFF;stroke:#FFFFFF;stroke-width:3;stroke-miterlimit:10;}
	.st7{fill:#FFFFFF;stroke:#FFFFFF;stroke-width:13;stroke-linecap:round;stroke-linejoin:round;stroke-miterlimit:10;}
	.st8{fill:#FFFFFF;stroke:#FFFFFF;stroke-width:13;stroke-miterlimit:10;}
	.st9{fill:#FFFFFF;stroke:#FFFFFF;stroke-miterlimit:10;}
	.st10{fill:none;stroke:#FFFFFF;stroke-width:13;stroke-miterlimit:10;}
	.st11{fill:none;stroke:#FFFFFF;stroke-width:10;stroke-miterlimit:10;}
	.st12{fill:none;stroke:#FFFFFF;stroke-width:9;stroke-miterlimit:10;}
</style>
<g id="Calque_1">
</g>
<g id="Calque_2">
	<g>
		<g id="_x3C_Répétition_miroir_x3E__00000008114481676898975910000004353078164957194131_">
			<g>
				<defs>
					<polygon id="SVGID_1_" points="1405,64.5 1405,64.5 1723.9,64.5 1723.9,206.8 1405,206.8 					"/>
				</defs>
				<clipPath id="SVGID_00000153707597364475888860000002698286931969305508_">
					<use xlink:href="#SVGID_1_"  style="overflow:visible;"/>
				</clipPath>
				<g style="clip-path:url(#SVGID_00000153707597364475888860000002698286931969305508_);">
					<g id="_x3C_Répétition_miroir_x3E__00000088839120027015963620000017157321261235514001_">
						<g>
							<defs>
								<rect id="SVGID_00000093885953301334693270000007948056409917634441_" x="1581.7" y="64.5" width="142.3" height="142.3"/>
							</defs>
							<clipPath id="SVGID_00000163072623451338315830000010131984040651145377_">
								<use xlink:href="#SVGID_00000093885953301334693270000007948056409917634441_"  style="overflow:visible;"/>
							</clipPath>
							
								<line style="clip-path:url(#SVGID_00000163072623451338315830000010131984040651145377_);fill:#FFFFFF;stroke:#FFFFFF;stroke-width:13;stroke-linecap:round;stroke-linejoin:round;stroke-miterlimit:10;" x1="1588.2" y1="200.3" x2="1717.4" y2="71"/>
						</g>
					</g>
					<g id="_x3C_Répétition_miroir_x3E__00000045609204666665080610000017846882748399945354_">
						<g>
							<defs>
								<rect id="SVGID_00000145765735850537888280000013179077831217791111_" x="1405" y="64.5" width="142.3" height="142.3"/>
							</defs>
							<clipPath id="SVGID_00000046321529144269226210000018237178014991627189_">
								<use xlink:href="#SVGID_00000145765735850537888280000013179077831217791111_"  style="overflow:visible;"/>
							</clipPath>
							
								<line style="clip-path:url(#SVGID_00000046321529144269226210000018237178014991627189_);fill:#FFFFFF;stroke:#FFFFFF;stroke-width:13;stroke-linecap:round;stroke-linejoin:round;stroke-miterlimit:10;" x1="1540.8" y1="200.3" x2="1411.5" y2="71"/>
						</g>
					</g>
				</g>
			</g>
		</g>
		<g id="_x3C_Répétition_miroir_x3E__00000067205357083377606360000001686661487362114479_">
			<g>
				<defs>
					<polygon id="SVGID_00000120519649212426929500000009489712954588961206_" points="1401.7,382.6 1401.7,382.6 1720.6,389.2 
						1723.5,247 1404.6,240.4 					"/>
				</defs>
				<clipPath id="SVGID_00000011751749715536865020000007460091115422166711_">
					<use xlink:href="#SVGID_00000120519649212426929500000009489712954588961206_"  style="overflow:visible;"/>
				</clipPath>
				<g style="clip-path:url(#SVGID_00000011751749715536865020000007460091115422166711_);">
					<g id="_x3C_Répétition_miroir_x3E__00000020390965938302441650000012331834976941302404_">
						<g>
							<defs>
								
									<rect id="SVGID_00000021083463488164774620000008542572152190359973_" x="1579.8" y="245.5" transform="matrix(2.079125e-02 -0.9998 0.9998 2.079125e-02 1300.0151 1960.6339)" width="142.3" height="142.3"/>
							</defs>
							<clipPath id="SVGID_00000027562814849893176630000012073745540748594875_">
								<use xlink:href="#SVGID_00000021083463488164774620000008542572152190359973_"  style="overflow:visible;"/>
							</clipPath>
							
								<line style="clip-path:url(#SVGID_00000027562814849893176630000012073745540748594875_);fill:#FFFFFF;stroke:#FFFFFF;stroke-width:13;stroke-linecap:round;stroke-linejoin:round;stroke-miterlimit:10;" x1="1587.7" y1="250.7" x2="1714.2" y2="382.6"/>
						</g>
					</g>
					<g id="_x3C_Répétition_miroir_x3E__00000000921342347114754160000012159553434449773491_">
						<g>
							<defs>
								
									<rect id="SVGID_00000003086423684209754940000013399527471868880802_" x="1403.2" y="241.9" transform="matrix(2.079125e-02 -0.9998 0.9998 2.079125e-02 1130.7194 1780.4342)" width="142.3" height="142.3"/>
							</defs>
							<clipPath id="SVGID_00000036959638688794780830000000888434390721667724_">
								<use xlink:href="#SVGID_00000003086423684209754940000013399527471868880802_"  style="overflow:visible;"/>
							</clipPath>
							
								<line style="clip-path:url(#SVGID_00000036959638688794780830000000888434390721667724_);fill:#FFFFFF;stroke:#FFFFFF;stroke-width:13;stroke-linecap:round;stroke-linejoin:round;stroke-miterlimit:10;" x1="1540.2" y1="249.7" x2="1408.3" y2="376.2"/>
						</g>
					</g>
				</g>
			</g>
		</g>
	</g>
	<g>
		<g>
			<g>
				<circle class="st6" cx="-2029.6" cy="314.2" r="52.3"/>
			</g>
			<g>
				<circle class="st6" cx="-2132" cy="217.4" r="52.3"/>
			</g>
			<g>
				<circle class="st6" cx="-2035.2" cy="115" r="52.3"/>
			</g>
			<g>
				<circle class="st6" cx="-1932.8" cy="211.8" r="52.3"/>
			</g>
		</g>
	</g>
	<g>
		<line class="st7" x1="1817.6" y1="233.8" x2="2208.6" y2="233.8"/>
		<line class="st7" x1="2013.1" y1="303.8" x2="2013.1" y2="163.8"/>
		<path class="st8" d="M2013.1,286.8L2013.1,286.8c0-29.3-23.7-53-53-53v0c29.3,0,53-23.7,53-53h0c0,29.3,23.7,53,53,53v0
			C2036.9,233.8,2013.1,257.6,2013.1,286.8z"/>
	</g>
	<g>
		<path class="st9" d="M2270.4,256.7c-12.6-52.6,228.7-80.4,228.4-79.6c0,0-157,24-152.3,65.1c8.1,71.4,282.7,51,282.7,51
			S2286.1,322.1,2270.4,256.7z"/>
		<path class="st9" d="M2654.1,196.3c12.7,52.6-228.6,80.6-228.4,79.7c0,0,156.9-24.1,152.2-65.2c-8.1-71.4-282.7-50.7-282.7-50.7
			S2638.4,130.9,2654.1,196.3z"/>
		<path class="st6" d="M2295.3,160"/>
	</g>
	<g>
		<circle class="st8" cx="1114.1" cy="225.4" r="33.6"/>
		<line class="st7" x1="1194" y1="306.1" x2="1033.8" y2="145.9"/>
		<line class="st7" x1="1035" y1="304.5" x2="1197.2" y2="146.2"/>
		<line class="st7" x1="942" y1="225.4" x2="1286.2" y2="225.4"/>
		<line class="st7" x1="1114.1" y1="45.3" x2="1114.1" y2="409.3"/>
	</g>
	<path class="st9" d="M-2931.6,35.8L-2931.6,35.8c0,99-80.3,179.2-179.2,179.2v0c99,0,179.2,80.3,179.2,179.2h0
		c0-99,80.3-179.2,179.2-179.2v0C-2851.4,215.1-2931.6,134.8-2931.6,35.8z"/>
	<path class="st9" d="M-2448.5,159c2.7,1.1,47-79.3-117.5-111.7c0,0,235.1-2.9,141,202.8c0,0,61.7,50,108.7-102.8
		c0,0-8.8,214.5-196.9,126.4c0,0-58.8,73.5,117.5,108.7c0,0-232.1,5.9-144-199.8c0,0-76.4-61.7-108.7,126.4
		C-2648.3,308.9-2663,73.8-2448.5,159z"/>
	<g>
		<circle class="st10" cx="-234.9" cy="217.8" r="87.6"/>
		<ellipse class="st10" cx="-236.1" cy="217.8" rx="144.8" ry="87.6"/>
		<ellipse class="st10" cx="-234.9" cy="217.8" rx="182.5" ry="87.6"/>
	</g>
	<g>
		<g>
			<circle class="st11" cx="215.1" cy="217.8" r="88.1"/>
			<ellipse class="st11" cx="213.9" cy="217.8" rx="145.6" ry="88.1"/>
			<ellipse class="st11" cx="215.1" cy="217.8" rx="183.5" ry="88.1"/>
		</g>
		<line class="st11" x1="215.1" y1="129.8" x2="215.1" y2="305.9"/>
		<line class="st11" x1="31.6" y1="217.8" x2="398.6" y2="217.8"/>
	</g>
	<g>
		<g>
			
				<ellipse transform="matrix(0.8449 -0.5348 0.5348 0.8449 -293.7807 -572.3939)" class="st10" cx="-1134.1" cy="220.5" rx="178.1" ry="64.6"/>
		</g>
		<g>
			
				<ellipse transform="matrix(0.9992 -4.071705e-02 4.071705e-02 0.9992 -9.6887 -46.0554)" class="st10" cx="-1135.5" cy="214.8" rx="64.6" ry="178.1"/>
		</g>
		<g>
			
				<ellipse transform="matrix(0.4643 -0.8857 0.8857 0.4643 -796.9865 -884.7404)" class="st10" cx="-1129.9" cy="216.5" rx="64.6" ry="178.1"/>
		</g>
	</g>
	<g>
		<g>
			
				<ellipse transform="matrix(0.8449 -0.5348 0.5348 0.8449 -362.5558 -819.8598)" class="st10" cx="-1595.3" cy="215.4" rx="61" ry="168.3"/>
		</g>
		<g>
			
				<ellipse transform="matrix(0.8449 -0.5348 0.5348 0.8449 -364.3182 -821.6432)" class="st10" cx="-1599.3" cy="217.5" rx="168.3" ry="61"/>
		</g>
	</g>
	<g>
		<g id="_x3C_Répétition_radiale_x3E__00000054232638577879065500000007749766380315515031_">
			
				<ellipse transform="matrix(0.8449 -0.5348 0.5348 0.8449 -224.2389 -332.3272)" class="st12" cx="-685.3" cy="220.6" rx="171.4" ry="62.1"/>
		</g>
		<g id="_x3C_Répétition_radiale_x3E__00000058571735425237780040000001950849553209248419_">
			
				<ellipse transform="matrix(0.6383 -0.7698 0.7698 0.6383 -416.1776 -450.6213)" class="st12" cx="-687.6" cy="217.6" rx="62.1" ry="171.4"/>
		</g>
		<g id="_x3C_Répétition_radiale_x3E__00000152264343895289084050000005051545194145093001_">
			
				<ellipse transform="matrix(0.3692 -0.9293 0.9293 0.3692 -631.6631 -501.7736)" class="st12" cx="-685.5" cy="214.4" rx="171.4" ry="62.1"/>
		</g>
		<g id="_x3C_Répétition_radiale_x3E__00000147203155519440159580000001906373654169130130_">
			
				<ellipse transform="matrix(6.394781e-02 -0.998 0.998 6.394781e-02 -853.2723 -478.6851)" class="st12" cx="-681.8" cy="215.5" rx="62.1" ry="171.4"/>
		</g>
		<g id="_x3C_Répétition_radiale_x3E__00000178887571457200066370000009492904756928153242_">
			
				<ellipse transform="matrix(0.9689 -0.2476 0.2476 0.9689 -75.5168 -161.9404)" class="st12" cx="-681.7" cy="219.3" rx="62.1" ry="171.4"/>
		</g>
	</g>
	<g>
		<circle class="st10" cx="662.8" cy="214.4" r="120.8"/>
		<ellipse class="st10" cx="664.6" cy="216.2" rx="194" ry="25.6"/>
	</g>
</g>
</svg>
