<?xml version="1.0" encoding="utf-8"?>
<!-- Generator: Adobe Illustrator 28.0.0, SVG Export Plug-In . SVG Version: 6.00 Build 0)  -->
<svg version="1.1" xmlns="http://www.w3.org/2000/svg" xmlns:xlink="http://www.w3.org/1999/xlink" x="0px" y="0px"
	 viewBox="0 0 429.5 429.5" style="enable-background:new 0 0 429.5 429.5;" xml:space="preserve">
<style type="text/css">
	.st0{clip-path:url(#SVGID_00000053536046395948550030000016589173080060237445_);}
	
		.st1{clip-path:url(#SVGID_00000111161156227296752000000011998107877738563499_);fill:#FFFFFF;stroke:#FFFFFF;stroke-width:10;stroke-linecap:round;stroke-linejoin:round;stroke-miterlimit:10;}
	
		.st2{clip-path:url(#SVGID_00000163779155264196390170000006116674481017799047_);fill:#FFFFFF;stroke:#FFFFFF;stroke-width:10;stroke-linecap:round;stroke-linejoin:round;stroke-miterlimit:10;}
	.st3{clip-path:url(#SVGID_00000034064052058425163410000008275506466689563524_);}
	
		.st4{clip-path:url(#SVGID_00000122716757244565472430000017638113046574110385_);fill:#FFFFFF;stroke:#FFFFFF;stroke-width:10;stroke-linecap:round;stroke-linejoin:round;stroke-miterlimit:10;}
	
		.st5{clip-path:url(#SVGID_00000005971846376543453980000002821283724719782037_);fill:#FFFFFF;stroke:#FFFFFF;stroke-width:10;stroke-linecap:round;stroke-linejoin:round;stroke-miterlimit:10;}
	.st6{fill:#FFFFFF;stroke:#FFFFFF;stroke-width:3;stroke-miterlimit:10;}
	.st7{fill:#FFFFFF;stroke:#FFFFFF;stroke-width:10;stroke-linecap:round;stroke-linejoin:round;stroke-miterlimit:10;}
	.st8{fill:#FFFFFF;stroke:#FFFFFF;stroke-width:10;stroke-miterlimit:10;}
	.st9{fill:#FFFFFF;stroke:#FFFFFF;stroke-miterlimit:10;}
	.st10{fill:#FFFFFF;stroke:#FFFFFF;stroke-width:11;stroke-miterlimit:10;}
	.st11{fill:#FFFFFF;stroke:#FFFFFF;stroke-width:11;stroke-linecap:round;stroke-linejoin:round;stroke-miterlimit:10;}
	.st12{fill:none;stroke:#FFFFFF;stroke-width:13;stroke-miterlimit:10;}
	.st13{fill:none;stroke:#FFFFFF;stroke-width:10;stroke-miterlimit:10;}
	.st14{fill:none;stroke:#FFFFFF;stroke-width:20;stroke-miterlimit:10;}
	.st15{fill:none;stroke:#FFFFFF;stroke-width:9;stroke-miterlimit:10;}
</style>
<g id="Calque_1">
</g>
<g id="Calque_2">
	<g>
		<g id="_x3C_Répétition_miroir_x3E__00000063607958137692419430000008417640837583633804_">
			<g>
				<defs>
					<polygon id="SVGID_1_" points="3204.5,66 3204.5,66 3520.4,66 3520.4,205.3 3204.5,205.3 					"/>
				</defs>
				<clipPath id="SVGID_00000034777760548677562980000000628833858321840536_">
					<use xlink:href="#SVGID_1_"  style="overflow:visible;"/>
				</clipPath>
				<g style="clip-path:url(#SVGID_00000034777760548677562980000000628833858321840536_);">
					<g id="_x3C_Répétition_miroir_x3E__00000047031617052836892160000005833082908183763863_">
						<g>
							<defs>
								<rect id="SVGID_00000165936947923433574260000007838759469273814960_" x="3381.2" y="66" width="139.3" height="139.3"/>
							</defs>
							<clipPath id="SVGID_00000114787735638506533590000005553736225279712681_">
								<use xlink:href="#SVGID_00000165936947923433574260000007838759469273814960_"  style="overflow:visible;"/>
							</clipPath>
							
								<line style="clip-path:url(#SVGID_00000114787735638506533590000005553736225279712681_);fill:#FFFFFF;stroke:#FFFFFF;stroke-width:10;stroke-linecap:round;stroke-linejoin:round;stroke-miterlimit:10;" x1="3386.2" y1="200.3" x2="3515.4" y2="71"/>
						</g>
					</g>
					<g id="_x3C_Répétition_miroir_x3E__00000025417871651522744520000008942005896701228422_">
						<g>
							<defs>
								<rect id="SVGID_00000140728386091713671320000006385533120301842568_" x="3204.5" y="66" width="139.3" height="139.3"/>
							</defs>
							<clipPath id="SVGID_00000014631317901660264320000008974138567787309188_">
								<use xlink:href="#SVGID_00000140728386091713671320000006385533120301842568_"  style="overflow:visible;"/>
							</clipPath>
							
								<line style="clip-path:url(#SVGID_00000014631317901660264320000008974138567787309188_);fill:#FFFFFF;stroke:#FFFFFF;stroke-width:10;stroke-linecap:round;stroke-linejoin:round;stroke-miterlimit:10;" x1="3338.8" y1="200.3" x2="3209.5" y2="71"/>
						</g>
					</g>
				</g>
			</g>
		</g>
		<g id="_x3C_Répétition_miroir_x3E__00000013184811918195585510000016124386880297387439_">
			<g>
				<defs>
					<polygon id="SVGID_00000028317420907550569640000005621942599764730789_" points="3201.2,381.1 3201.2,381.1 3517.1,387.7 
						3520,248.5 3204.1,241.9 					"/>
				</defs>
				<clipPath id="SVGID_00000092446097803177811580000000139585329587399341_">
					<use xlink:href="#SVGID_00000028317420907550569640000005621942599764730789_"  style="overflow:visible;"/>
				</clipPath>
				<g style="clip-path:url(#SVGID_00000092446097803177811580000000139585329587399341_);">
					<g id="_x3C_Répétition_miroir_x3E__00000133528634127279761610000000019136903278249381_">
						<g>
							<defs>
								
									<rect id="SVGID_00000108281295444698775450000003312629094602250166_" x="3379.3" y="247" transform="matrix(2.079125e-02 -0.9998 0.9998 2.079125e-02 3060.6392 3758.2522)" width="139.3" height="139.3"/>
							</defs>
							<clipPath id="SVGID_00000051369711103101787490000016639897802323599020_">
								<use xlink:href="#SVGID_00000108281295444698775450000003312629094602250166_"  style="overflow:visible;"/>
							</clipPath>
							
								<line style="clip-path:url(#SVGID_00000051369711103101787490000016639897802323599020_);fill:#FFFFFF;stroke:#FFFFFF;stroke-width:10;stroke-linecap:round;stroke-linejoin:round;stroke-miterlimit:10;" x1="3385.7" y1="250.7" x2="3512.2" y2="382.6"/>
						</g>
					</g>
					<g id="_x3C_Répétition_miroir_x3E__00000057840003632217612760000014410332234665303479_">
						<g>
							<defs>
								
									<rect id="SVGID_00000175295893188297210060000001693660032212465582_" x="3202.7" y="243.4" transform="matrix(2.079125e-02 -0.9998 0.9998 2.079125e-02 2891.3435 3578.0525)" width="139.3" height="139.3"/>
							</defs>
							<clipPath id="SVGID_00000030473731016520940490000004573956111563165621_">
								<use xlink:href="#SVGID_00000175295893188297210060000001693660032212465582_"  style="overflow:visible;"/>
							</clipPath>
							
								<line style="clip-path:url(#SVGID_00000030473731016520940490000004573956111563165621_);fill:#FFFFFF;stroke:#FFFFFF;stroke-width:10;stroke-linecap:round;stroke-linejoin:round;stroke-miterlimit:10;" x1="3338.2" y1="249.7" x2="3206.3" y2="376.2"/>
						</g>
					</g>
				</g>
			</g>
		</g>
	</g>
	<g>
		<g>
			<g>
				<circle class="st6" cx="-231.6" cy="314.2" r="52.3"/>
			</g>
			<g>
				<circle class="st6" cx="-334" cy="217.4" r="52.3"/>
			</g>
			<g>
				<circle class="st6" cx="-237.2" cy="115" r="52.3"/>
			</g>
			<g>
				<circle class="st6" cx="-134.8" cy="211.8" r="52.3"/>
			</g>
		</g>
	</g>
	<g>
		<line class="st7" x1="3615.6" y1="233.8" x2="4006.6" y2="233.8"/>
		<line class="st7" x1="3811.1" y1="303.8" x2="3811.1" y2="163.8"/>
		<path class="st8" d="M3811.1,286.8L3811.1,286.8c0-29.3-23.7-53-53-53v0c29.3,0,53-23.7,53-53l0,0c0,29.3,23.7,53,53,53v0
			C3834.9,233.8,3811.1,257.6,3811.1,286.8z"/>
	</g>
	<g>
		<path class="st9" d="M4068.4,256.7c-12.6-52.6,228.7-80.4,228.4-79.6c0,0-157,24-152.3,65.1c8.1,71.4,282.7,51,282.7,51
			S4084.1,322.1,4068.4,256.7z"/>
		<path class="st9" d="M4452.1,196.3c12.7,52.6-228.6,80.6-228.4,79.7c0,0,156.9-24.1,152.2-65.2c-8.1-71.4-282.7-50.7-282.7-50.7
			S4436.4,130.9,4452.1,196.3z"/>
		<path class="st6" d="M4093.3,160"/>
	</g>
	<g>
		<circle class="st10" cx="2912.1" cy="225.4" r="33.6"/>
		<line class="st11" x1="2992.1" y1="306.1" x2="2831.8" y2="145.9"/>
		<line class="st11" x1="2833" y1="304.5" x2="2995.2" y2="146.2"/>
		<line class="st11" x1="2740" y1="225.4" x2="3084.2" y2="225.4"/>
		<line class="st11" x1="2912.1" y1="45.3" x2="2912.1" y2="409.3"/>
	</g>
	<path class="st9" d="M-1133.6,35.8L-1133.6,35.8c0,99-80.3,179.2-179.3,179.2v0c99,0,179.2,80.3,179.2,179.2h0
		c0-99,80.3-179.2,179.2-179.2v0C-1053.4,215.1-1133.6,134.8-1133.6,35.8z"/>
	<path class="st9" d="M-650.5,159c2.7,1.1,47-79.3-117.5-111.7c0,0,235.1-2.9,141,202.8c0,0,61.7,50,108.7-102.8
		c0,0-8.8,214.5-196.9,126.4c0,0-58.8,73.5,117.5,108.7c0,0-232.1,5.9-144-199.8c0,0-76.4-61.7-108.7,126.4
		C-850.3,308.9-865,73.8-650.5,159z"/>
	<g>
		<circle class="st12" cx="1563.1" cy="217.8" r="87.6"/>
		<ellipse class="st12" cx="1561.9" cy="217.8" rx="144.8" ry="87.6"/>
		<ellipse class="st12" cx="1563.1" cy="217.8" rx="182.5" ry="87.6"/>
	</g>
	<g>
		<g>
			<circle class="st13" cx="2013.1" cy="217.8" r="88.1"/>
			<ellipse class="st13" cx="2011.9" cy="217.8" rx="145.6" ry="88.1"/>
			<ellipse class="st13" cx="2013.1" cy="217.8" rx="183.5" ry="88.1"/>
		</g>
		<line class="st13" x1="2013.1" y1="129.8" x2="2013.1" y2="305.9"/>
		<line class="st13" x1="1829.6" y1="217.8" x2="2196.6" y2="217.8"/>
	</g>
	<g>
		<g>
			
				<ellipse transform="matrix(0.8449 -0.5348 0.5348 0.8449 -14.9974 389.2654)" class="st12" cx="663.9" cy="220.5" rx="178.1" ry="64.6"/>
		</g>
		<g>
			
				<ellipse transform="matrix(0.9992 -4.071705e-02 4.071705e-02 0.9992 -8.1976 27.1541)" class="st12" cx="662.5" cy="214.8" rx="64.6" ry="178.1"/>
		</g>
		<g>
			
				<ellipse transform="matrix(0.4643 -0.8857 0.8857 0.4643 166.1638 707.6927)" class="st12" cx="668.1" cy="216.5" rx="64.6" ry="178.1"/>
		</g>
	</g>
	<g>
		<g>
			
				<ellipse transform="matrix(0.8449 -0.5348 0.5348 0.8449 -83.7724 141.7995)" class="st14" cx="202.7" cy="215.4" rx="61" ry="168.3"/>
		</g>
		<g>
			
				<ellipse transform="matrix(0.8449 -0.5348 0.5348 0.8449 -85.5349 140.016)" class="st14" cx="198.7" cy="217.5" rx="168.3" ry="61"/>
		</g>
	</g>
	<g>
		<g id="_x3C_Répétition_radiale_x3E__00000173149915408851414310000004445986087066342815_">
			
				<ellipse transform="matrix(0.8449 -0.5348 0.5348 0.8449 54.5444 629.332)" class="st15" cx="1112.7" cy="220.6" rx="171.4" ry="62.1"/>
		</g>
		<g id="_x3C_Répétition_radiale_x3E__00000005231447684966795250000015417869047198325176_">
			
				<ellipse transform="matrix(0.6383 -0.7698 0.7698 0.6383 234.1308 933.4368)" class="st15" cx="1110.4" cy="217.6" rx="62.1" ry="171.4"/>
		</g>
		<g id="_x3C_Répétition_radiale_x3E__00000132776115040294561440000009721684330250923946_">
			
				<ellipse transform="matrix(0.3692 -0.9293 0.9293 0.3692 502.5152 1169.2023)" class="st15" cx="1112.5" cy="214.4" rx="171.4" ry="62.1"/>
		</g>
		<g id="_x3C_Répétition_radiale_x3E__00000013900790773631067880000000322298797798136480_">
			
				<ellipse transform="matrix(6.394781e-02 -0.998 0.998 6.394781e-02 829.756 1315.6417)" class="st15" cx="1116.2" cy="215.5" rx="62.1" ry="171.4"/>
		</g>
		<g id="_x3C_Répétition_radiale_x3E__00000122719132369274135140000000938675819921568166_">
			
				<ellipse transform="matrix(0.9689 -0.2476 0.2476 0.9689 -19.5465 283.186)" class="st15" cx="1116.3" cy="219.3" rx="62.1" ry="171.4"/>
		</g>
	</g>
	<g>
		<circle class="st13" cx="2460.8" cy="214.4" r="120.8"/>
		<ellipse class="st13" cx="2462.6" cy="216.2" rx="194" ry="25.6"/>
	</g>
</g>
</svg>
