<?xml version="1.0" encoding="utf-8"?>
<!-- Generator: Adobe Illustrator 28.0.0, SVG Export Plug-In . SVG Version: 6.00 Build 0)  -->
<svg version="1.1" xmlns="http://www.w3.org/2000/svg" xmlns:xlink="http://www.w3.org/1999/xlink" x="0px" y="0px"
	 viewBox="0 0 429.5 429.5" style="enable-background:new 0 0 429.5 429.5;" xml:space="preserve">
<style type="text/css">
	.st0{clip-path:url(#SVGID_00000122714552399441599680000006978992015550098343_);}
	
		.st1{clip-path:url(#SVGID_00000052821033174286480740000012715167074840005006_);fill:#FFFFFF;stroke:#FFFFFF;stroke-width:10;stroke-linecap:round;stroke-linejoin:round;stroke-miterlimit:10;}
	
		.st2{clip-path:url(#SVGID_00000132780958037977874780000012982505119246757254_);fill:#FFFFFF;stroke:#FFFFFF;stroke-width:10;stroke-linecap:round;stroke-linejoin:round;stroke-miterlimit:10;}
	.st3{clip-path:url(#SVGID_00000030486094452333167550000003674167093322420617_);}
	
		.st4{clip-path:url(#SVGID_00000181068656569772556780000003431032992844057777_);fill:#FFFFFF;stroke:#FFFFFF;stroke-width:10;stroke-linecap:round;stroke-linejoin:round;stroke-miterlimit:10;}
	
		.st5{clip-path:url(#SVGID_00000064331904505217715250000015611916603845099398_);fill:#FFFFFF;stroke:#FFFFFF;stroke-width:10;stroke-linecap:round;stroke-linejoin:round;stroke-miterlimit:10;}
	.st6{fill:#FFFFFF;stroke:#FFFFFF;stroke-width:3;stroke-miterlimit:10;}
	.st7{fill:#FFFFFF;stroke:#FFFFFF;stroke-width:10;stroke-linecap:round;stroke-linejoin:round;stroke-miterlimit:10;}
	.st8{fill:#FFFFFF;stroke:#FFFFFF;stroke-width:10;stroke-miterlimit:10;}
	.st9{fill:#FFFFFF;stroke:#FFFFFF;stroke-miterlimit:10;}
	.st10{fill:#FFFFFF;stroke:#FFFFFF;stroke-width:11;stroke-miterlimit:10;}
	.st11{fill:#FFFFFF;stroke:#FFFFFF;stroke-width:11;stroke-linecap:round;stroke-linejoin:round;stroke-miterlimit:10;}
	.st12{fill:none;stroke:#FFFFFF;stroke-width:13;stroke-miterlimit:10;}
	.st13{fill:none;stroke:#FFFFFF;stroke-width:10;stroke-miterlimit:10;}
	.st14{fill:none;stroke:#FFFFFF;stroke-width:9;stroke-miterlimit:10;}
</style>
<g id="Calque_1">
</g>
<g id="Calque_2">
	<g>
		<g id="_x3C_Répétition_miroir_x3E__00000074406756746198783960000016683549853972005784_">
			<g>
				<defs>
					<polygon id="SVGID_1_" points="-841,66 -841,66 -525.1,66 -525.1,205.3 -841,205.3 					"/>
				</defs>
				<clipPath id="SVGID_00000020381875766839129500000005453976503560693924_">
					<use xlink:href="#SVGID_1_"  style="overflow:visible;"/>
				</clipPath>
				<g style="clip-path:url(#SVGID_00000020381875766839129500000005453976503560693924_);">
					<g id="_x3C_Répétition_miroir_x3E__00000044163581211864010050000003084213873583122072_">
						<g>
							<defs>
								<rect id="SVGID_00000038380630613027711500000007972718854561036945_" x="-664.3" y="66" width="139.3" height="139.3"/>
							</defs>
							<clipPath id="SVGID_00000134249007617884750790000006148603370761410449_">
								<use xlink:href="#SVGID_00000038380630613027711500000007972718854561036945_"  style="overflow:visible;"/>
							</clipPath>
							
								<line style="clip-path:url(#SVGID_00000134249007617884750790000006148603370761410449_);fill:#FFFFFF;stroke:#FFFFFF;stroke-width:10;stroke-linecap:round;stroke-linejoin:round;stroke-miterlimit:10;" x1="-659.3" y1="200.3" x2="-530.1" y2="71"/>
						</g>
					</g>
					<g id="_x3C_Répétition_miroir_x3E__00000109723005750921563110000010948985973552067512_">
						<g>
							<defs>
								<rect id="SVGID_00000059292966570322954930000016076700102015961273_" x="-841" y="66" width="139.3" height="139.3"/>
							</defs>
							<clipPath id="SVGID_00000133518175504116245040000002372989697779947912_">
								<use xlink:href="#SVGID_00000059292966570322954930000016076700102015961273_"  style="overflow:visible;"/>
							</clipPath>
							
								<line style="clip-path:url(#SVGID_00000133518175504116245040000002372989697779947912_);fill:#FFFFFF;stroke:#FFFFFF;stroke-width:10;stroke-linecap:round;stroke-linejoin:round;stroke-miterlimit:10;" x1="-706.8" y1="200.3" x2="-836" y2="71"/>
						</g>
					</g>
				</g>
			</g>
		</g>
		<g id="_x3C_Répétition_miroir_x3E__00000029018933341837620920000005684990101109841072_">
			<g>
				<defs>
					<polygon id="SVGID_00000014627733713382681330000017093726266743781799_" points="-844.3,381.1 -844.3,381.1 -528.4,387.7 
						-525.5,248.5 -841.4,241.9 					"/>
				</defs>
				<clipPath id="SVGID_00000001651921128834171820000006116167140406041998_">
					<use xlink:href="#SVGID_00000014627733713382681330000017093726266743781799_"  style="overflow:visible;"/>
				</clipPath>
				<g style="clip-path:url(#SVGID_00000001651921128834171820000006116167140406041998_);">
					<g id="_x3C_Répétition_miroir_x3E__00000181084718396811055990000013124238916562497699_">
						<g>
							<defs>
								
									<rect id="SVGID_00000015328623624042834080000010750824275402689168_" x="-666.2" y="247" transform="matrix(2.079125e-02 -0.9998 0.9998 2.079125e-02 -900.765 -286.3889)" width="139.3" height="139.3"/>
							</defs>
							<clipPath id="SVGID_00000115495021194130272510000008766101951264589734_">
								<use xlink:href="#SVGID_00000015328623624042834080000010750824275402689168_"  style="overflow:visible;"/>
							</clipPath>
							
								<line style="clip-path:url(#SVGID_00000115495021194130272510000008766101951264589734_);fill:#FFFFFF;stroke:#FFFFFF;stroke-width:10;stroke-linecap:round;stroke-linejoin:round;stroke-miterlimit:10;" x1="-659.9" y1="250.7" x2="-533.3" y2="382.6"/>
						</g>
					</g>
					<g id="_x3C_Répétition_miroir_x3E__00000138557314883806466220000004428094363878321039_">
						<g>
							<defs>
								
									<rect id="SVGID_00000117635404505500792980000013063686915143033250_" x="-842.9" y="243.4" transform="matrix(2.079125e-02 -0.9998 0.9998 2.079125e-02 -1070.0608 -466.5887)" width="139.3" height="139.3"/>
							</defs>
							<clipPath id="SVGID_00000094577777986406242620000010134625493700969910_">
								<use xlink:href="#SVGID_00000117635404505500792980000013063686915143033250_"  style="overflow:visible;"/>
							</clipPath>
							
								<line style="clip-path:url(#SVGID_00000094577777986406242620000010134625493700969910_);fill:#FFFFFF;stroke:#FFFFFF;stroke-width:10;stroke-linecap:round;stroke-linejoin:round;stroke-miterlimit:10;" x1="-707.3" y1="249.7" x2="-839.2" y2="376.2"/>
						</g>
					</g>
				</g>
			</g>
		</g>
	</g>
	<g>
		<g>
			<g>
				<circle class="st6" cx="-4277.1" cy="314.2" r="52.3"/>
			</g>
			<g>
				<circle class="st6" cx="-4379.5" cy="217.4" r="52.3"/>
			</g>
			<g>
				<circle class="st6" cx="-4282.7" cy="115" r="52.3"/>
			</g>
			<g>
				<circle class="st6" cx="-4180.3" cy="211.8" r="52.3"/>
			</g>
		</g>
	</g>
	<g>
		<line class="st7" x1="-429.9" y1="233.8" x2="-38.9" y2="233.8"/>
		<line class="st7" x1="-234.4" y1="303.8" x2="-234.4" y2="163.8"/>
		<path class="st8" d="M-234.4,286.8L-234.4,286.8c0-29.3-23.7-53-53-53v0c29.3,0,53-23.7,53-53h0c0,29.3,23.7,53,53,53v0
			C-210.7,233.8-234.4,257.6-234.4,286.8z"/>
	</g>
	<g>
		<path class="st9" d="M22.9,256.7c-12.6-52.6,228.7-80.4,228.4-79.6c0,0-157,24-152.3,65.1c8.1,71.4,282.7,51,282.7,51
			S38.6,322.1,22.9,256.7z"/>
		<path class="st9" d="M406.6,196.3c12.7,52.6-228.6,80.6-228.4,79.7c0,0,156.9-24.1,152.2-65.2C322.4,139.4,47.8,160,47.8,160
			S390.8,130.9,406.6,196.3z"/>
		<path class="st6" d="M47.8,160"/>
	</g>
	<g>
		<circle class="st10" cx="-1133.4" cy="225.4" r="33.6"/>
		<line class="st11" x1="-1053.5" y1="306.1" x2="-1213.7" y2="145.9"/>
		<line class="st11" x1="-1212.5" y1="304.5" x2="-1050.3" y2="146.2"/>
		<line class="st11" x1="-1305.5" y1="225.4" x2="-961.3" y2="225.4"/>
		<line class="st11" x1="-1133.4" y1="45.3" x2="-1133.4" y2="409.3"/>
	</g>
	<path class="st9" d="M-5179.1,35.8L-5179.1,35.8c0,99-80.3,179.2-179.2,179.2v0c99,0,179.2,80.3,179.2,179.2h0
		c0-99,80.3-179.2,179.2-179.2v0C-5098.9,215.1-5179.1,134.8-5179.1,35.8z"/>
	<path class="st9" d="M-4696,159c2.7,1.1,47-79.3-117.5-111.7c0,0,235.1-2.9,141,202.8c0,0,61.7,50,108.7-102.8
		c0,0-8.8,214.5-196.9,126.4c0,0-58.8,73.5,117.5,108.7c0,0-232.1,5.9-144-199.8c0,0-76.4-61.7-108.7,126.4
		C-4895.8,308.9-4910.5,73.8-4696,159z"/>
	<g>
		<circle class="st12" cx="-2482.4" cy="217.8" r="87.6"/>
		<ellipse class="st12" cx="-2483.6" cy="217.8" rx="144.8" ry="87.6"/>
		<ellipse class="st12" cx="-2482.4" cy="217.8" rx="182.5" ry="87.6"/>
	</g>
	<g>
		<g>
			<circle class="st13" cx="-2032.4" cy="217.8" r="88.1"/>
			<ellipse class="st13" cx="-2033.6" cy="217.8" rx="145.6" ry="88.1"/>
			<ellipse class="st13" cx="-2032.4" cy="217.8" rx="183.5" ry="88.1"/>
		</g>
		<line class="st13" x1="-2032.4" y1="129.8" x2="-2032.4" y2="305.9"/>
		<line class="st13" x1="-2215.9" y1="217.8" x2="-1848.9" y2="217.8"/>
	</g>
	<g>
		<g>
			
				<ellipse transform="matrix(0.8449 -0.5348 0.5348 0.8449 -642.2598 -1774.4679)" class="st12" cx="-3381.6" cy="220.5" rx="178.1" ry="64.6"/>
		</g>
		<g>
			
				<ellipse transform="matrix(0.9992 -4.071705e-02 4.071705e-02 0.9992 -11.5525 -137.5674)" class="st12" cx="-3383" cy="214.8" rx="64.6" ry="178.1"/>
		</g>
		<g>
			
				<ellipse transform="matrix(0.4643 -0.8857 0.8857 0.4643 -2000.9243 -2875.2817)" class="st12" cx="-3377.4" cy="216.5" rx="64.6" ry="178.1"/>
		</g>
	</g>
	<g>
		<g>
			
				<ellipse transform="matrix(0.8449 -0.5348 0.5348 0.8449 -711.0349 -2021.9338)" class="st12" cx="-3842.8" cy="215.4" rx="61" ry="168.3"/>
		</g>
		<g>
			
				<ellipse transform="matrix(0.8449 -0.5348 0.5348 0.8449 -712.7974 -2023.7173)" class="st12" cx="-3846.8" cy="217.5" rx="168.3" ry="61"/>
		</g>
	</g>
	<g>
		<g id="_x3C_Répétition_radiale_x3E__00000027586509373699381580000012480464807768105397_">
			
				<ellipse transform="matrix(0.8449 -0.5348 0.5348 0.8449 -572.7181 -1534.4012)" class="st14" cx="-2932.8" cy="220.6" rx="171.4" ry="62.1"/>
		</g>
		<g id="_x3C_Répétition_radiale_x3E__00000158003551945294372710000011692805435122032034_">
			
				<ellipse transform="matrix(0.6383 -0.7698 0.7698 0.6383 -1229.0632 -2180.6941)" class="st14" cx="-2935.1" cy="217.6" rx="62.1" ry="171.4"/>
		</g>
		<g id="_x3C_Répétition_radiale_x3E__00000026144007133948576360000005917519788792719765_">
			
				<ellipse transform="matrix(0.3692 -0.9293 0.9293 0.3692 -2049.386 -2590.4934)" class="st14" cx="-2933" cy="214.4" rx="171.4" ry="62.1"/>
		</g>
		<g id="_x3C_Répétition_radiale_x3E__00000006697004471515858560000016548456054225990052_">
			
				<ellipse transform="matrix(6.394781e-02 -0.998 0.998 6.394781e-02 -2957.0576 -2721.5935)" class="st14" cx="-2929.3" cy="215.5" rx="62.1" ry="171.4"/>
		</g>
		<g id="_x3C_Répétition_radiale_x3E__00000000911762916358171440000015457836947598977183_">
			
				<ellipse transform="matrix(0.9689 -0.2476 0.2476 0.9689 -145.4798 -718.3483)" class="st14" cx="-2929.2" cy="219.3" rx="62.1" ry="171.4"/>
		</g>
	</g>
	<g>
		<circle class="st13" cx="-1584.7" cy="214.4" r="120.8"/>
		<ellipse class="st13" cx="-1582.9" cy="216.2" rx="194" ry="25.6"/>
	</g>
</g>
</svg>
