<?xml version="1.0" encoding="utf-8"?>
<!-- Generator: Adobe Illustrator 28.0.0, SVG Export Plug-In . SVG Version: 6.00 Build 0)  -->
<svg version="1.1" xmlns="http://www.w3.org/2000/svg" xmlns:xlink="http://www.w3.org/1999/xlink" x="0px" y="0px"
	 viewBox="0 0 429.5 429.5" style="enable-background:new 0 0 429.5 429.5;" xml:space="preserve">
<style type="text/css">
	.st0{clip-path:url(#SVGID_00000029045976670380152920000007897977769084719802_);}
	
		.st1{clip-path:url(#SVGID_00000173855696437943186900000005013021222353985449_);fill:#FFFFFF;stroke:#FFFFFF;stroke-width:13;stroke-linecap:round;stroke-linejoin:round;stroke-miterlimit:10;}
	
		.st2{clip-path:url(#SVGID_00000071532345871633193200000010820617774557597607_);fill:#FFFFFF;stroke:#FFFFFF;stroke-width:13;stroke-linecap:round;stroke-linejoin:round;stroke-miterlimit:10;}
	.st3{clip-path:url(#SVGID_00000103946686036693139020000016299084973224623541_);}
	
		.st4{clip-path:url(#SVGID_00000013163610172729020280000008035891062939368621_);fill:#FFFFFF;stroke:#FFFFFF;stroke-width:13;stroke-linecap:round;stroke-linejoin:round;stroke-miterlimit:10;}
	
		.st5{clip-path:url(#SVGID_00000058581216711339834530000012986109795864985520_);fill:#FFFFFF;stroke:#FFFFFF;stroke-width:13;stroke-linecap:round;stroke-linejoin:round;stroke-miterlimit:10;}
	.st6{fill:#FFFFFF;stroke:#FFFFFF;stroke-width:3;stroke-miterlimit:10;}
	.st7{fill:#FFFFFF;stroke:#FFFFFF;stroke-width:13;stroke-linecap:round;stroke-linejoin:round;stroke-miterlimit:10;}
	.st8{fill:#FFFFFF;stroke:#FFFFFF;stroke-width:13;stroke-miterlimit:10;}
	.st9{fill:#FFFFFF;stroke:#FFFFFF;stroke-miterlimit:10;}
	.st10{fill:none;stroke:#FFFFFF;stroke-width:13;stroke-miterlimit:10;}
	.st11{fill:none;stroke:#FFFFFF;stroke-width:10;stroke-miterlimit:10;}
	.st12{fill:none;stroke:#FFFFFF;stroke-width:9;stroke-miterlimit:10;}
</style>
<g id="Calque_1">
</g>
<g id="Calque_2">
	<g>
		<g id="_x3C_Répétition_miroir_x3E__00000093897828445807730610000009230070395228958142_">
			<g>
				<defs>
					<polygon id="SVGID_1_" points="955.5,64.5 955.5,64.5 1274.4,64.5 1274.4,206.8 955.5,206.8 					"/>
				</defs>
				<clipPath id="SVGID_00000128480997990361460720000005742088097920310939_">
					<use xlink:href="#SVGID_1_"  style="overflow:visible;"/>
				</clipPath>
				<g style="clip-path:url(#SVGID_00000128480997990361460720000005742088097920310939_);">
					<g id="_x3C_Répétition_miroir_x3E__00000045587581517403208590000013381686366817147833_">
						<g>
							<defs>
								<rect id="SVGID_00000145773325167081011650000002025578784201663665_" x="1132.2" y="64.5" width="142.3" height="142.3"/>
							</defs>
							<clipPath id="SVGID_00000083802694927866752840000015515020742710113668_">
								<use xlink:href="#SVGID_00000145773325167081011650000002025578784201663665_"  style="overflow:visible;"/>
							</clipPath>
							
								<line style="clip-path:url(#SVGID_00000083802694927866752840000015515020742710113668_);fill:#FFFFFF;stroke:#FFFFFF;stroke-width:13;stroke-linecap:round;stroke-linejoin:round;stroke-miterlimit:10;" x1="1138.7" y1="200.3" x2="1267.9" y2="71"/>
						</g>
					</g>
					<g id="_x3C_Répétition_miroir_x3E__00000158744127688802648690000001964556091186796462_">
						<g>
							<defs>
								<rect id="SVGID_00000078751781298734972250000000625409680718982824_" x="955.5" y="64.5" width="142.3" height="142.3"/>
							</defs>
							<clipPath id="SVGID_00000162320378119506942800000010167560240730837128_">
								<use xlink:href="#SVGID_00000078751781298734972250000000625409680718982824_"  style="overflow:visible;"/>
							</clipPath>
							
								<line style="clip-path:url(#SVGID_00000162320378119506942800000010167560240730837128_);fill:#FFFFFF;stroke:#FFFFFF;stroke-width:13;stroke-linecap:round;stroke-linejoin:round;stroke-miterlimit:10;" x1="1091.3" y1="200.3" x2="962" y2="71"/>
						</g>
					</g>
				</g>
			</g>
		</g>
		<g id="_x3C_Répétition_miroir_x3E__00000009558795577946103320000000142614180076009898_">
			<g>
				<defs>
					<polygon id="SVGID_00000116229728698672961380000007878190978291583896_" points="952.2,382.6 952.2,382.6 1271.1,389.2 
						1274,247 955.1,240.4 					"/>
				</defs>
				<clipPath id="SVGID_00000021822219479598894930000018435033158460940174_">
					<use xlink:href="#SVGID_00000116229728698672961380000007878190978291583896_"  style="overflow:visible;"/>
				</clipPath>
				<g style="clip-path:url(#SVGID_00000021822219479598894930000018435033158460940174_);">
					<g id="_x3C_Répétition_miroir_x3E__00000121971147093581558260000011591960525942779312_">
						<g>
							<defs>
								
									<rect id="SVGID_00000018920619186367207040000003539635936715382156_" x="1130.3" y="245.5" transform="matrix(2.079125e-02 -0.9998 0.9998 2.079125e-02 859.8591 1511.2294)" width="142.3" height="142.3"/>
							</defs>
							<clipPath id="SVGID_00000054241054362722493750000017834697440624081031_">
								<use xlink:href="#SVGID_00000018920619186367207040000003539635936715382156_"  style="overflow:visible;"/>
							</clipPath>
							
								<line style="clip-path:url(#SVGID_00000054241054362722493750000017834697440624081031_);fill:#FFFFFF;stroke:#FFFFFF;stroke-width:13;stroke-linecap:round;stroke-linejoin:round;stroke-miterlimit:10;" x1="1138.2" y1="250.7" x2="1264.7" y2="382.6"/>
						</g>
					</g>
					<g id="_x3C_Répétition_miroir_x3E__00000147184306084040028170000008740026363665354368_">
						<g>
							<defs>
								
									<rect id="SVGID_00000183958231225585496740000012779400212599399553_" x="953.7" y="241.9" transform="matrix(2.079125e-02 -0.9998 0.9998 2.079125e-02 690.5633 1331.0295)" width="142.3" height="142.3"/>
							</defs>
							<clipPath id="SVGID_00000005954591584569270670000007976746641739607469_">
								<use xlink:href="#SVGID_00000183958231225585496740000012779400212599399553_"  style="overflow:visible;"/>
							</clipPath>
							
								<line style="clip-path:url(#SVGID_00000005954591584569270670000007976746641739607469_);fill:#FFFFFF;stroke:#FFFFFF;stroke-width:13;stroke-linecap:round;stroke-linejoin:round;stroke-miterlimit:10;" x1="1090.7" y1="249.7" x2="958.8" y2="376.2"/>
						</g>
					</g>
				</g>
			</g>
		</g>
	</g>
	<g>
		<g>
			<g>
				<circle class="st6" cx="-2479.1" cy="314.2" r="52.3"/>
			</g>
			<g>
				<circle class="st6" cx="-2581.5" cy="217.4" r="52.3"/>
			</g>
			<g>
				<circle class="st6" cx="-2484.7" cy="115" r="52.3"/>
			</g>
			<g>
				<circle class="st6" cx="-2382.3" cy="211.8" r="52.3"/>
			</g>
		</g>
	</g>
	<g>
		<line class="st7" x1="1368.1" y1="233.8" x2="1759.1" y2="233.8"/>
		<line class="st7" x1="1563.6" y1="303.8" x2="1563.6" y2="163.8"/>
		<path class="st8" d="M1563.6,286.8L1563.6,286.8c0-29.3-23.7-53-53-53v0c29.3,0,53-23.7,53-53h0c0,29.3,23.7,53,53,53v0
			C1587.3,233.8,1563.6,257.6,1563.6,286.8z"/>
	</g>
	<g>
		<path class="st9" d="M1820.9,256.7c-12.6-52.6,228.7-80.4,228.4-79.6c0,0-157,24-152.3,65.1c8.1,71.4,282.7,51,282.7,51
			S1836.6,322.1,1820.9,256.7z"/>
		<path class="st9" d="M2204.6,196.3c12.7,52.6-228.6,80.6-228.4,79.7c0,0,156.9-24.1,152.2-65.2c-8.1-71.4-282.7-50.7-282.7-50.7
			S2188.9,130.9,2204.6,196.3z"/>
		<path class="st6" d="M1845.8,160"/>
	</g>
	<g>
		<circle class="st8" cx="664.6" cy="225.4" r="33.6"/>
		<line class="st7" x1="744.5" y1="306.1" x2="584.3" y2="145.9"/>
		<line class="st7" x1="585.5" y1="304.5" x2="747.7" y2="146.2"/>
		<line class="st7" x1="492.5" y1="225.4" x2="836.7" y2="225.4"/>
		<line class="st7" x1="664.6" y1="45.3" x2="664.6" y2="409.3"/>
	</g>
	<path class="st9" d="M-3381.1,35.8L-3381.1,35.8c0,99-80.3,179.2-179.2,179.2v0c99,0,179.2,80.3,179.2,179.2h0
		c0-99,80.3-179.2,179.2-179.2v0C-3300.9,215.1-3381.1,134.8-3381.1,35.8z"/>
	<path class="st9" d="M-2898,159c2.7,1.1,47-79.3-117.5-111.7c0,0,235.1-2.9,141,202.8c0,0,61.7,50,108.7-102.8
		c0,0-8.8,214.5-196.9,126.4c0,0-58.8,73.5,117.5,108.7c0,0-232.1,5.9-144-199.8c0,0-76.4-61.7-108.7,126.4
		C-3097.8,308.9-3112.5,73.8-2898,159z"/>
	<g>
		<circle class="st10" cx="-684.4" cy="217.8" r="87.6"/>
		<ellipse class="st10" cx="-685.6" cy="217.8" rx="144.8" ry="87.6"/>
		<ellipse class="st10" cx="-684.4" cy="217.8" rx="182.5" ry="87.6"/>
	</g>
	<g>
		<g>
			<circle class="st11" cx="-234.4" cy="217.8" r="88.1"/>
			<ellipse class="st11" cx="-235.6" cy="217.8" rx="145.6" ry="88.1"/>
			<ellipse class="st11" cx="-234.4" cy="217.8" rx="183.5" ry="88.1"/>
		</g>
		<line class="st11" x1="-234.4" y1="129.8" x2="-234.4" y2="305.9"/>
		<line class="st11" x1="-417.9" y1="217.8" x2="-50.9" y2="217.8"/>
	</g>
	<g>
		<g>
			
				<ellipse transform="matrix(0.8449 -0.5348 0.5348 0.8449 -363.4765 -812.8087)" class="st10" cx="-1583.6" cy="220.5" rx="178.1" ry="64.6"/>
		</g>
		<g>
			
				<ellipse transform="matrix(0.9992 -4.071705e-02 4.071705e-02 0.9992 -10.0614 -64.3578)" class="st10" cx="-1585" cy="214.8" rx="64.6" ry="178.1"/>
		</g>
		<g>
			
				<ellipse transform="matrix(0.4643 -0.8857 0.8857 0.4643 -1037.774 -1282.8486)" class="st10" cx="-1579.4" cy="216.5" rx="64.6" ry="178.1"/>
		</g>
	</g>
	<g>
		<g>
			
				<ellipse transform="matrix(0.8449 -0.5348 0.5348 0.8449 -432.2516 -1060.2745)" class="st10" cx="-2044.8" cy="215.4" rx="61" ry="168.3"/>
		</g>
		<g>
			
				<ellipse transform="matrix(0.8449 -0.5348 0.5348 0.8449 -434.014 -1062.0581)" class="st10" cx="-2048.8" cy="217.5" rx="168.3" ry="61"/>
		</g>
	</g>
	<g>
		<g id="_x3C_Répétition_radiale_x3E__00000060002695186616525890000014074999407676495008_">
			
				<ellipse transform="matrix(0.8449 -0.5348 0.5348 0.8449 -293.9348 -572.7421)" class="st12" cx="-1134.8" cy="220.6" rx="171.4" ry="62.1"/>
		</g>
		<g id="_x3C_Répétition_radiale_x3E__00000052825154538287803660000015733335164129225128_">
			
				<ellipse transform="matrix(0.6383 -0.7698 0.7698 0.6383 -578.7548 -796.6359)" class="st12" cx="-1137.1" cy="217.6" rx="62.1" ry="171.4"/>
		</g>
		<g id="_x3C_Répétition_radiale_x3E__00000034048686141565785220000000313795810915160735_">
			
				<ellipse transform="matrix(0.3692 -0.9293 0.9293 0.3692 -915.2077 -919.5176)" class="st12" cx="-1135" cy="214.4" rx="171.4" ry="62.1"/>
		</g>
		<g id="_x3C_Répétition_radiale_x3E__00000102525701794962362440000016383289024199217295_">
			
				<ellipse transform="matrix(6.394781e-02 -0.998 0.998 6.394781e-02 -1274.0294 -927.2668)" class="st12" cx="-1131.3" cy="215.5" rx="62.1" ry="171.4"/>
		</g>
		<g id="_x3C_Répétition_radiale_x3E__00000176745983878741872110000009643012573577123220_">
			
				<ellipse transform="matrix(0.9689 -0.2476 0.2476 0.9689 -89.5094 -273.222)" class="st12" cx="-1131.2" cy="219.3" rx="62.1" ry="171.4"/>
		</g>
	</g>
	<g>
		<circle class="st11" cx="213.3" cy="214.4" r="120.8"/>
		<ellipse class="st11" cx="215.1" cy="216.2" rx="194" ry="25.6"/>
	</g>
</g>
</svg>
