<?xml version="1.0" encoding="utf-8"?>
<!-- Generator: Adobe Illustrator 28.0.0, SVG Export Plug-In . SVG Version: 6.00 Build 0)  -->
<svg version="1.1" xmlns="http://www.w3.org/2000/svg" xmlns:xlink="http://www.w3.org/1999/xlink" x="0px" y="0px"
	 viewBox="0 0 429.5 429.5" style="enable-background:new 0 0 429.5 429.5;" xml:space="preserve">
<style type="text/css">
	.st0{clip-path:url(#SVGID_00000054228039920283165690000017721702911701982639_);}
	
		.st1{clip-path:url(#SVGID_00000036950078733807851830000007161207286620005546_);fill:#FFFFFF;stroke:#FFFFFF;stroke-width:13;stroke-linecap:round;stroke-linejoin:round;stroke-miterlimit:10;}
	
		.st2{clip-path:url(#SVGID_00000126308265485076798400000009041701568221772180_);fill:#FFFFFF;stroke:#FFFFFF;stroke-width:13;stroke-linecap:round;stroke-linejoin:round;stroke-miterlimit:10;}
	.st3{clip-path:url(#SVGID_00000119820484054293620650000014275175417727142575_);}
	
		.st4{clip-path:url(#SVGID_00000040555470014521915420000008946172509528914319_);fill:#FFFFFF;stroke:#FFFFFF;stroke-width:13;stroke-linecap:round;stroke-linejoin:round;stroke-miterlimit:10;}
	
		.st5{clip-path:url(#SVGID_00000114063732521078988840000005108882486901419436_);fill:#FFFFFF;stroke:#FFFFFF;stroke-width:13;stroke-linecap:round;stroke-linejoin:round;stroke-miterlimit:10;}
	.st6{fill:#FFFFFF;stroke:#FFFFFF;stroke-width:3;stroke-miterlimit:10;}
	.st7{fill:#FFFFFF;stroke:#FFFFFF;stroke-width:13;stroke-linecap:round;stroke-linejoin:round;stroke-miterlimit:10;}
	.st8{fill:#FFFFFF;stroke:#FFFFFF;stroke-width:13;stroke-miterlimit:10;}
	.st9{fill:#FFFFFF;stroke:#FFFFFF;stroke-miterlimit:10;}
	.st10{fill:none;stroke:#FFFFFF;stroke-width:13;stroke-miterlimit:10;}
</style>
<g id="Calque_1">
</g>
<g id="Calque_2">
	<g>
		<g id="_x3C_Répétition_miroir_x3E__00000155847327711608039220000003564096988506854543_">
			<g>
				<defs>
					<polygon id="SVGID_1_" points="3652.5,64.5 3652.5,64.5 3971.4,64.5 3971.4,206.8 3652.5,206.8 					"/>
				</defs>
				<clipPath id="SVGID_00000090262948244889112800000011055890734928917153_">
					<use xlink:href="#SVGID_1_"  style="overflow:visible;"/>
				</clipPath>
				<g style="clip-path:url(#SVGID_00000090262948244889112800000011055890734928917153_);">
					<g id="_x3C_Répétition_miroir_x3E__00000080204779955156331580000014810471519852841370_">
						<g>
							<defs>
								<rect id="SVGID_00000116914307316425344330000012206505141321737869_" x="3829.2" y="64.5" width="142.3" height="142.3"/>
							</defs>
							<clipPath id="SVGID_00000075121618310361374000000010544462886692081557_">
								<use xlink:href="#SVGID_00000116914307316425344330000012206505141321737869_"  style="overflow:visible;"/>
							</clipPath>
							
								<line style="clip-path:url(#SVGID_00000075121618310361374000000010544462886692081557_);fill:#FFFFFF;stroke:#FFFFFF;stroke-width:13;stroke-linecap:round;stroke-linejoin:round;stroke-miterlimit:10;" x1="3835.7" y1="200.3" x2="3964.9" y2="71"/>
						</g>
					</g>
					<g id="_x3C_Répétition_miroir_x3E__00000117661049509027232660000014624163789282300555_">
						<g>
							<defs>
								<rect id="SVGID_00000137845538958371653210000014946373894174106768_" x="3652.5" y="64.5" width="142.3" height="142.3"/>
							</defs>
							<clipPath id="SVGID_00000075140321136073122780000014337236309941446571_">
								<use xlink:href="#SVGID_00000137845538958371653210000014946373894174106768_"  style="overflow:visible;"/>
							</clipPath>
							
								<line style="clip-path:url(#SVGID_00000075140321136073122780000014337236309941446571_);fill:#FFFFFF;stroke:#FFFFFF;stroke-width:13;stroke-linecap:round;stroke-linejoin:round;stroke-miterlimit:10;" x1="3788.3" y1="200.3" x2="3659" y2="71"/>
						</g>
					</g>
				</g>
			</g>
		</g>
		<g id="_x3C_Répétition_miroir_x3E__00000045607499241693120750000011652060616822475147_">
			<g>
				<defs>
					<polygon id="SVGID_00000123402613301913232460000012122874877526543489_" points="3649.2,382.6 3649.2,382.6 3968.1,389.2 
						3971,247 3652.2,240.4 					"/>
				</defs>
				<clipPath id="SVGID_00000145757832003182808460000005923890435624748212_">
					<use xlink:href="#SVGID_00000123402613301913232460000012122874877526543489_"  style="overflow:visible;"/>
				</clipPath>
				<g style="clip-path:url(#SVGID_00000145757832003182808460000005923890435624748212_);">
					<g id="_x3C_Répétition_miroir_x3E__00000055689188347360672670000010563814289495365538_">
						<g>
							<defs>
								
									<rect id="SVGID_00000070798036050673035950000000859281667257184913_" x="3827.3" y="245.5" transform="matrix(2.079125e-02 -0.9998 0.9998 2.079125e-02 3500.7952 4207.6567)" width="142.3" height="142.3"/>
							</defs>
							<clipPath id="SVGID_00000079446929884952994950000000818278077812638384_">
								<use xlink:href="#SVGID_00000070798036050673035950000000859281667257184913_"  style="overflow:visible;"/>
							</clipPath>
							
								<line style="clip-path:url(#SVGID_00000079446929884952994950000000818278077812638384_);fill:#FFFFFF;stroke:#FFFFFF;stroke-width:13;stroke-linecap:round;stroke-linejoin:round;stroke-miterlimit:10;" x1="3835.2" y1="250.7" x2="3961.7" y2="382.6"/>
						</g>
					</g>
					<g id="_x3C_Répétition_miroir_x3E__00000116193943654133146260000011186985692702371497_">
						<g>
							<defs>
								
									<rect id="SVGID_00000059277254971913131700000013819314121330541745_" x="3650.7" y="241.9" transform="matrix(2.079125e-02 -0.9998 0.9998 2.079125e-02 3331.4995 4027.457)" width="142.3" height="142.3"/>
							</defs>
							<clipPath id="SVGID_00000112627085813534675560000011444948563178333582_">
								<use xlink:href="#SVGID_00000059277254971913131700000013819314121330541745_"  style="overflow:visible;"/>
							</clipPath>
							
								<line style="clip-path:url(#SVGID_00000112627085813534675560000011444948563178333582_);fill:#FFFFFF;stroke:#FFFFFF;stroke-width:13;stroke-linecap:round;stroke-linejoin:round;stroke-miterlimit:10;" x1="3787.7" y1="249.7" x2="3655.8" y2="376.2"/>
						</g>
					</g>
				</g>
			</g>
		</g>
	</g>
	<g>
		<g>
			<g>
				<circle class="st6" cx="217.9" cy="314.2" r="52.3"/>
			</g>
			<g>
				<circle class="st6" cx="115.5" cy="217.4" r="52.3"/>
			</g>
			<g>
				<circle class="st6" cx="212.3" cy="115" r="52.3"/>
			</g>
			<g>
				<circle class="st6" cx="314.7" cy="211.8" r="52.3"/>
			</g>
		</g>
	</g>
	<g>
		<line class="st7" x1="4065.1" y1="233.8" x2="4456.1" y2="233.8"/>
		<line class="st7" x1="4260.6" y1="303.8" x2="4260.6" y2="163.8"/>
		<path class="st8" d="M4260.6,286.8L4260.6,286.8c0-29.3-23.7-53-53-53v0c29.3,0,53-23.7,53-53l0,0c0,29.3,23.7,53,53,53v0
			C4284.4,233.8,4260.6,257.6,4260.6,286.8z"/>
	</g>
	<g>
		<path class="st9" d="M4517.9,256.7c-12.6-52.6,228.7-80.4,228.4-79.6c0,0-157,24-152.3,65.1c8.1,71.4,282.7,51,282.7,51
			S4533.6,322.1,4517.9,256.7z"/>
		<path class="st9" d="M4901.6,196.3c12.7,52.6-228.6,80.6-228.4,79.7c0,0,156.9-24.1,152.2-65.2c-8.1-71.4-282.7-50.7-282.7-50.7
			S4885.9,130.9,4901.6,196.3z"/>
		<path class="st6" d="M4542.8,160"/>
	</g>
	<g>
		<circle class="st8" cx="3361.6" cy="225.4" r="33.6"/>
		<line class="st7" x1="3441.6" y1="306.1" x2="3281.3" y2="145.9"/>
		<line class="st7" x1="3282.5" y1="304.5" x2="3444.7" y2="146.2"/>
		<line class="st7" x1="3189.5" y1="225.4" x2="3533.7" y2="225.4"/>
		<line class="st7" x1="3361.6" y1="45.3" x2="3361.6" y2="409.3"/>
	</g>
	<path class="st9" d="M-684.1,35.8L-684.1,35.8c0,99-80.3,179.2-179.3,179.2v0c99,0,179.2,80.3,179.2,179.2h0
		c0-99,80.3-179.2,179.2-179.2v0C-603.9,215.1-684.1,134.8-684.1,35.8z"/>
	<path class="st9" d="M-201,159c2.7,1.1,47-79.3-117.5-111.7c0,0,235.1-2.9,141,202.8c0,0,61.7,50,108.7-102.8
		c0,0-8.8,214.5-196.9,126.4c0,0-58.8,73.5,117.5,108.7c0,0-232.1,5.9-144-199.8c0,0-76.4-61.7-108.7,126.4
		C-400.8,308.9-415.5,73.8-201,159z"/>
	<g>
		<circle class="st10" cx="2012.6" cy="217.8" r="87.6"/>
		<ellipse class="st10" cx="2011.4" cy="217.8" rx="144.8" ry="87.6"/>
		<ellipse class="st10" cx="2012.6" cy="217.8" rx="182.5" ry="87.6"/>
	</g>
	<g>
		<g>
			<circle class="st10" cx="2462.6" cy="217.8" r="88.1"/>
			<ellipse class="st10" cx="2461.4" cy="217.8" rx="145.6" ry="88.1"/>
			<ellipse class="st10" cx="2462.6" cy="217.8" rx="183.5" ry="88.1"/>
		</g>
		<line class="st10" x1="2462.6" y1="129.8" x2="2462.6" y2="305.9"/>
		<line class="st10" x1="2279.1" y1="217.8" x2="2646.1" y2="217.8"/>
	</g>
	<g>
		<g>
			
				<ellipse transform="matrix(0.8449 -0.5348 0.5348 0.8449 54.6984 629.6802)" class="st10" cx="1113.4" cy="220.5" rx="178.1" ry="64.6"/>
		</g>
		<g>
			
				<ellipse transform="matrix(0.9992 -4.071705e-02 4.071705e-02 0.9992 -7.8249 45.4565)" class="st10" cx="1112" cy="214.8" rx="64.6" ry="178.1"/>
		</g>
		<g>
			
				<ellipse transform="matrix(0.4643 -0.8857 0.8857 0.4643 406.9513 1105.801)" class="st10" cx="1117.6" cy="216.5" rx="64.6" ry="178.1"/>
		</g>
	</g>
	<g>
		<g>
			
				<ellipse transform="matrix(0.8449 -0.5348 0.5348 0.8449 -14.0766 382.2143)" class="st10" cx="652.2" cy="215.4" rx="61" ry="168.3"/>
		</g>
		<g>
			
				<ellipse transform="matrix(0.8449 -0.5348 0.5348 0.8449 -15.8391 380.4308)" class="st10" cx="648.2" cy="217.5" rx="168.3" ry="61"/>
		</g>
	</g>
	<g>
		<g>
			
				<ellipse transform="matrix(0.8449 -0.5348 0.5348 0.8449 124.2402 869.7465)" class="st10" cx="1562.2" cy="220.6" rx="171.4" ry="62.1"/>
		</g>
		<g>
			
				<ellipse transform="matrix(0.6383 -0.7698 0.7698 0.6383 396.7072 1279.4518)" class="st10" cx="1559.9" cy="217.6" rx="62.1" ry="171.4"/>
		</g>
		<g>
			
				<ellipse transform="matrix(0.3692 -0.9293 0.9293 0.3692 786.0602 1586.946)" class="st10" cx="1562" cy="214.4" rx="171.4" ry="62.1"/>
		</g>
		<g>
			
				<ellipse transform="matrix(6.394779e-02 -0.998 0.998 6.394779e-02 1250.5138 1764.2247)" class="st10" cx="1565.7" cy="215.5" rx="62.1" ry="171.4"/>
		</g>
		<g>
			
				<ellipse transform="matrix(0.9689 -0.2476 0.2476 0.9689 -5.5537 394.4673)" class="st10" cx="1565.8" cy="219.3" rx="62.1" ry="171.4"/>
		</g>
	</g>
	<g>
		<circle class="st10" cx="2910.3" cy="214.4" r="120.8"/>
		<ellipse class="st10" cx="2912.1" cy="216.2" rx="194" ry="25.6"/>
	</g>
</g>
</svg>
